<svg width="43" height="47" viewBox="0 0 43 47" fill="none" xmlns="http://www.w3.org/2000/svg">
<path d="M7.02 39.252H8.1C7.896 37.62 6.552 36.252 4.452 36.252C2.1 36.252 0.48 38.124 0.48 40.704C0.48 43.296 2.1 45.168 4.452 45.168C6.564 45.168 7.908 43.8 8.1 41.904H7.02C6.948 42.984 6.252 44.208 4.452 44.208C2.412 44.208 1.56 42.444 1.56 40.704C1.56 38.976 2.412 37.212 4.452 37.212C6.24 37.212 6.864 38.436 7.02 39.252ZM12.1366 45.168C10.2646 45.168 9.13661 43.848 9.13661 41.94C9.13661 40.032 10.2646 38.712 12.1366 38.712C13.9966 38.712 15.1246 40.032 15.1246 41.94C15.1246 43.848 13.9966 45.168 12.1366 45.168ZM12.1366 44.328C13.5046 44.328 14.1646 43.248 14.1646 41.94C14.1646 40.632 13.5046 39.552 12.1366 39.552C10.7566 39.552 10.0966 40.632 10.0966 41.94C10.0966 43.248 10.7566 44.328 12.1366 44.328ZM19.4108 38.712C18.3668 38.712 17.7188 39.18 17.3948 39.612H17.3708V38.88H16.4108V45H17.3708V41.184C17.3708 40.236 18.0908 39.552 19.1708 39.552C20.1308 39.552 20.5028 40.176 20.5028 40.968V45H21.4628V40.728C21.4628 39.324 20.5268 38.712 19.4108 38.712ZM22.3142 38.88L24.5102 45H25.6022L27.7982 38.88H26.7542L25.0622 44.04H25.0502L23.3582 38.88H22.3142ZM31.2851 44.328C29.9531 44.328 29.2931 43.296 29.2931 42.192H34.1291C34.1291 40.02 33.1931 38.712 31.2731 38.712C29.4851 38.712 28.3331 39.9 28.3331 41.94C28.3331 43.86 29.4611 45.168 31.3211 45.168C32.8451 45.168 33.7211 44.256 34.0331 43.116H33.0731C32.9651 43.536 32.5091 44.328 31.2851 44.328ZM31.2731 39.552C32.4251 39.552 33.1691 40.368 33.1691 41.352H29.2931C29.2931 40.368 30.1211 39.552 31.2731 39.552ZM38.0723 38.712C37.1963 38.712 36.7043 39.288 36.3803 40.092H36.3563V38.88H35.3963V45H36.3563V41.736C36.3563 40.428 37.2803 39.492 38.6123 39.708H38.6363V38.748C38.4683 38.724 38.3003 38.712 38.0723 38.712ZM42.4904 39.72V38.88H41.2904V36.84H40.3304V38.88H39.4304V39.72H40.3304V43.5C40.3304 44.748 40.9544 45.072 41.7704 45.072C42.0224 45.072 42.2744 45.048 42.4904 45V44.16C41.6744 44.22 41.2904 44.1 41.2904 43.404V39.72H42.4904Z" fill="#C1C7CD"/>
<path d="M14.47 16.4197L12.73 14.6797L11 16.4197" stroke="#777777" stroke-width="1.5" stroke-linecap="round" stroke-linejoin="round"/>
<path d="M29.5293 17.5801L31.2693 19.3201L33.0093 17.5801" stroke="#777777" stroke-width="1.5" stroke-linecap="round" stroke-linejoin="round"/>
<path d="M31.2595 19.3203V17.0002C31.2595 11.8802 27.1095 7.74023 21.9995 7.74023C19.0795 7.74023 16.4695 9.10027 14.7695 11.2103" stroke="#777777" stroke-width="1.5" stroke-linecap="round" stroke-linejoin="round"/>
<path d="M12.7402 14.6797V16.9997C12.7402 22.1197 16.8902 26.2597 22.0002 26.2597C24.9202 26.2597 27.5302 24.8997 29.2302 22.7897" stroke="#777777" stroke-width="1.5" stroke-linecap="round" stroke-linejoin="round"/>
<g filter="url(#filter0_d_217_9385)">
<path d="M19 13.5H23.38C24.35 13.5 25.13 14.38 25.13 15.25C25.13 16.22 24.35 17 23.38 17H19V13.5Z" stroke="#5ED5A8" stroke-width="1.5" stroke-miterlimit="10" stroke-linecap="round" stroke-linejoin="round"/>
<path d="M19 17H24C25.1 17 26 17.78 26 18.75C26 19.72 25.1 20.5 24 20.5H19V17Z" stroke="#5ED5A8" stroke-width="1.5" stroke-miterlimit="10" stroke-linecap="round" stroke-linejoin="round"/>
<path d="M21.8008 20.5V22.25" stroke="#5ED5A8" stroke-width="1.5" stroke-miterlimit="10" stroke-linecap="round" stroke-linejoin="round"/>
<path d="M21.8008 11.75V13.5" stroke="#5ED5A8" stroke-width="1.5" stroke-miterlimit="10" stroke-linecap="round" stroke-linejoin="round"/>
</g>
<defs>
<filter id="filter0_d_217_9385" x="2.25" y="0" width="40.5" height="44" filterUnits="userSpaceOnUse" color-interpolation-filters="sRGB">
<feFlood flood-opacity="0" result="BackgroundImageFix"/>
<feColorMatrix in="SourceAlpha" type="matrix" values="0 0 0 0 0 0 0 0 0 0 0 0 0 0 0 0 0 0 127 0" result="hardAlpha"/>
<feOffset dy="5"/>
<feGaussianBlur stdDeviation="8"/>
<feComposite in2="hardAlpha" operator="out"/>
<feColorMatrix type="matrix" values="0 0 0 0 0.368627 0 0 0 0 0.835294 0 0 0 0 0.658824 0 0 0 0.25 0"/>
<feBlend mode="normal" in2="BackgroundImageFix" result="effect1_dropShadow_217_9385"/>
<feBlend mode="normal" in="SourceGraphic" in2="effect1_dropShadow_217_9385" result="shape"/>
</filter>
</defs>
</svg>
