<svg width="55" height="66" viewBox="0 0 55 66" fill="none" xmlns="http://www.w3.org/2000/svg">
<path d="M15.1264 44.252H16.2064C16.0024 42.62 14.6584 41.252 12.5584 41.252C10.2064 41.252 8.58644 43.124 8.58644 45.704C8.58644 48.296 10.2064 50.168 12.5584 50.168C14.6704 50.168 16.0144 48.8 16.2064 46.904H15.1264C15.0544 47.984 14.3584 49.208 12.5584 49.208C10.5184 49.208 9.66644 47.444 9.66644 45.704C9.66644 43.976 10.5184 42.212 12.5584 42.212C14.3464 42.212 14.9704 43.436 15.1264 44.252ZM20.2671 43.712C19.3911 43.712 18.8991 44.288 18.5751 45.092H18.5511V43.88H17.5911V50H18.5511V46.736C18.5511 45.428 19.4751 44.492 20.8071 44.708H20.8311V43.748C20.6631 43.724 20.4951 43.712 20.2671 43.712ZM27.2051 43.88H26.1251L24.3611 48.872H24.3371L22.4651 43.88H21.3851L23.7011 49.496C23.9411 50.096 23.6891 50.612 23.4371 50.888C23.1131 51.236 22.7411 51.272 22.2131 51.224H22.0691V51.944C22.2251 51.992 22.5011 52.064 22.8851 52.064C24.0131 52.064 24.3251 51.164 24.5891 50.504L27.2051 43.88ZM31.137 43.712C30.129 43.712 29.553 44.168 29.193 44.636H29.169V43.88H28.209V52.064H29.169V49.208H29.193C29.553 49.736 30.129 50.168 31.137 50.168C32.649 50.168 33.873 48.956 33.873 46.94C33.873 44.924 32.649 43.712 31.137 43.712ZM31.017 49.328C29.877 49.328 29.169 48.38 29.169 46.94C29.169 45.5 29.877 44.552 31.017 44.552C32.277 44.552 32.913 45.74 32.913 46.94C32.913 48.14 32.277 49.328 31.017 49.328ZM37.682 44.72V43.88H36.482V41.84H35.522V43.88H34.622V44.72H35.522V48.5C35.522 49.748 36.146 50.072 36.962 50.072C37.214 50.072 37.466 50.048 37.682 50V49.16C36.866 49.22 36.482 49.1 36.482 48.404V44.72H37.682ZM41.5962 50.168C39.7242 50.168 38.5962 48.848 38.5962 46.94C38.5962 45.032 39.7242 43.712 41.5962 43.712C43.4562 43.712 44.5842 45.032 44.5842 46.94C44.5842 48.848 43.4562 50.168 41.5962 50.168ZM41.5962 49.328C42.9642 49.328 43.6242 48.248 43.6242 46.94C43.6242 45.632 42.9642 44.552 41.5962 44.552C40.2162 44.552 39.5562 45.632 39.5562 46.94C39.5562 48.248 40.2162 49.328 41.5962 49.328ZM11.061 55.42V64H16.641V63.04H12.141V55.42H11.061ZM20.296 64.168C18.424 64.168 17.296 62.848 17.296 60.94C17.296 59.032 18.424 57.712 20.296 57.712C22.156 57.712 23.284 59.032 23.284 60.94C23.284 62.848 22.156 64.168 20.296 64.168ZM20.296 63.328C21.664 63.328 22.324 62.248 22.324 60.94C22.324 59.632 21.664 58.552 20.296 58.552C18.916 58.552 18.256 59.632 18.256 60.94C18.256 62.248 18.916 63.328 20.296 63.328ZM28.3142 59.44C28.3142 60.052 27.8462 60.184 26.8142 60.376C25.2302 60.676 24.1982 61.036 24.1982 62.428C24.1982 63.46 24.9782 64.168 26.2142 64.168C27.2222 64.168 27.9062 63.808 28.2902 63.232H28.3142C28.4822 63.904 28.8302 64.06 29.4062 64.06C29.5862 64.06 29.7182 64.048 29.9702 63.964V63.292C29.3582 63.364 29.2742 63.1 29.2742 62.62V59.644C29.2742 58.168 28.2302 57.712 27.0662 57.712C25.2902 57.712 24.5582 58.6 24.4982 59.776H25.4582C25.5182 58.888 25.9022 58.552 27.0662 58.552C28.0502 58.552 28.3142 58.96 28.3142 59.44ZM26.3102 63.328C25.5182 63.328 25.1582 62.98 25.1582 62.38C25.1582 61.648 25.7102 61.348 26.8982 61.096C27.5462 60.964 28.1342 60.796 28.3142 60.616V61.636C28.3142 62.812 27.4502 63.328 26.3102 63.328ZM34.0041 57.712C32.9601 57.712 32.3121 58.18 31.9881 58.612H31.9641V57.88H31.0041V64H31.9641V60.184C31.9641 59.236 32.6841 58.552 33.7641 58.552C34.7241 58.552 35.0961 59.176 35.0961 59.968V64H36.0561V59.728C36.0561 58.324 35.1201 57.712 34.0041 57.712ZM40.1448 60.364C39.2928 60.16 38.4648 60.1 38.4648 59.38C38.4648 58.9 38.9328 58.552 39.7968 58.552C40.9488 58.552 41.1768 59.164 41.2728 59.632H42.2328C42.1368 58.576 41.3208 57.712 39.7968 57.712C38.3568 57.712 37.5048 58.492 37.5048 59.452C37.5048 60.892 38.8968 61 39.8328 61.228C40.7088 61.444 41.5128 61.492 41.5128 62.38C41.5128 62.788 41.1048 63.328 40.0608 63.328C38.5248 63.328 38.2848 62.644 38.2248 61.96H37.2648C37.3248 63.28 38.1888 64.168 40.0608 64.168C41.4528 64.168 42.4728 63.436 42.4728 62.32C42.4728 60.808 41.2368 60.628 40.1448 60.364Z" fill="#C1C7CD"/>
<path d="M17 27.0596H27" stroke="#5ED5A8" stroke-width="1.5" stroke-miterlimit="10" stroke-linecap="round" stroke-linejoin="round"/>
<g filter="url(#filter0_d_217_9405)">
<path d="M19.22 23.5H24.78C26.56 23.5 27 23.94 27 25.7V29.81C27 31.57 26.56 32.01 24.78 32.01H19.22C17.44 32.01 17 31.57 17 29.81V25.7C17 23.94 17.44 23.5 19.22 23.5Z" stroke="#5ED5A8" stroke-width="1.5" stroke-linecap="round" stroke-linejoin="round" shape-rendering="crispEdges"/>
</g>
<path d="M37 25C37 28.87 33.87 32 30 32L31.05 30.25" stroke="#777777" stroke-width="1.5" stroke-linecap="round" stroke-linejoin="round"/>
<path d="M17 19C17 15.13 20.13 12 24 12L22.95 13.75" stroke="#777777" stroke-width="1.5" stroke-linecap="round" stroke-linejoin="round"/>
<g filter="url(#filter1_d_217_9405)">
<path d="M33.5 21C35.9853 21 38 18.9853 38 16.5C38 14.0147 35.9853 12 33.5 12C31.0147 12 29 14.0147 29 16.5C29 18.9853 31.0147 21 33.5 21Z" stroke="#5ED5A8" stroke-width="1.5" stroke-linecap="round" stroke-linejoin="round" shape-rendering="crispEdges"/>
</g>
<defs>
<filter id="filter0_d_217_9405" x="0.25" y="11.75" width="43.5" height="42.0098" filterUnits="userSpaceOnUse" color-interpolation-filters="sRGB">
<feFlood flood-opacity="0" result="BackgroundImageFix"/>
<feColorMatrix in="SourceAlpha" type="matrix" values="0 0 0 0 0 0 0 0 0 0 0 0 0 0 0 0 0 0 127 0" result="hardAlpha"/>
<feOffset dy="5"/>
<feGaussianBlur stdDeviation="8"/>
<feComposite in2="hardAlpha" operator="out"/>
<feColorMatrix type="matrix" values="0 0 0 0 0.368627 0 0 0 0 0.835294 0 0 0 0 0.658824 0 0 0 0.25 0"/>
<feBlend mode="normal" in2="BackgroundImageFix" result="effect1_dropShadow_217_9405"/>
<feBlend mode="normal" in="SourceGraphic" in2="effect1_dropShadow_217_9405" result="shape"/>
</filter>
<filter id="filter1_d_217_9405" x="12.25" y="0.25" width="42.5" height="42.5" filterUnits="userSpaceOnUse" color-interpolation-filters="sRGB">
<feFlood flood-opacity="0" result="BackgroundImageFix"/>
<feColorMatrix in="SourceAlpha" type="matrix" values="0 0 0 0 0 0 0 0 0 0 0 0 0 0 0 0 0 0 127 0" result="hardAlpha"/>
<feOffset dy="5"/>
<feGaussianBlur stdDeviation="8"/>
<feComposite in2="hardAlpha" operator="out"/>
<feColorMatrix type="matrix" values="0 0 0 0 0.368627 0 0 0 0 0.835294 0 0 0 0 0.658824 0 0 0 0.25 0"/>
<feBlend mode="normal" in2="BackgroundImageFix" result="effect1_dropShadow_217_9405"/>
<feBlend mode="normal" in="SourceGraphic" in2="effect1_dropShadow_217_9405" result="shape"/>
</filter>
</defs>
</svg>
