<svg width="53" height="51" viewBox="0 0 53 51" fill="none" xmlns="http://www.w3.org/2000/svg">
<path d="M7.804 48H10.912C13.276 48 14.728 46.476 14.728 43.716C14.728 40.956 13.276 39.42 10.912 39.42H7.804V48ZM8.884 40.38H10.912C13.096 40.38 13.648 42.036 13.648 43.716C13.648 45.396 13.096 47.04 10.912 47.04H8.884V40.38ZM18.7839 47.328C17.4519 47.328 16.7919 46.296 16.7919 45.192H21.6279C21.6279 43.02 20.6919 41.712 18.7719 41.712C16.9839 41.712 15.8319 42.9 15.8319 44.94C15.8319 46.86 16.9599 48.168 18.8199 48.168C20.3439 48.168 21.2199 47.256 21.5319 46.116H20.5719C20.4639 46.536 20.0079 47.328 18.7839 47.328ZM18.7719 42.552C19.9239 42.552 20.6679 43.368 20.6679 44.352H16.7919C16.7919 43.368 17.6199 42.552 18.7719 42.552ZM25.8232 41.712C24.8152 41.712 24.2392 42.168 23.8792 42.636H23.8552V41.88H22.8952V50.064H23.8552V47.208H23.8792C24.2392 47.736 24.8152 48.168 25.8232 48.168C27.3352 48.168 28.5592 46.956 28.5592 44.94C28.5592 42.924 27.3352 41.712 25.8232 41.712ZM25.7032 47.328C24.5632 47.328 23.8552 46.38 23.8552 44.94C23.8552 43.5 24.5632 42.552 25.7032 42.552C26.9632 42.552 27.5992 43.74 27.5992 44.94C27.5992 46.14 26.9632 47.328 25.7032 47.328ZM32.5319 48.168C30.6599 48.168 29.5319 46.848 29.5319 44.94C29.5319 43.032 30.6599 41.712 32.5319 41.712C34.3919 41.712 35.5199 43.032 35.5199 44.94C35.5199 46.848 34.3919 48.168 32.5319 48.168ZM32.5319 47.328C33.8999 47.328 34.5599 46.248 34.5599 44.94C34.5599 43.632 33.8999 42.552 32.5319 42.552C31.1519 42.552 30.4919 43.632 30.4919 44.94C30.4919 46.248 31.1519 47.328 32.5319 47.328ZM39.2901 44.364C38.4381 44.16 37.6101 44.1 37.6101 43.38C37.6101 42.9 38.0781 42.552 38.9421 42.552C40.0941 42.552 40.3221 43.164 40.4181 43.632H41.3781C41.2821 42.576 40.4661 41.712 38.9421 41.712C37.5021 41.712 36.6501 42.492 36.6501 43.452C36.6501 44.892 38.0421 45 38.9781 45.228C39.8541 45.444 40.6581 45.492 40.6581 46.38C40.6581 46.788 40.2501 47.328 39.2061 47.328C37.6701 47.328 37.4301 46.644 37.3701 45.96H36.4101C36.4701 47.28 37.3341 48.168 39.2061 48.168C40.5981 48.168 41.6181 47.436 41.6181 46.32C41.6181 44.808 40.3821 44.628 39.2901 44.364ZM43.4651 40.692C43.7411 40.692 44.0651 40.488 44.0651 40.116C44.0651 39.744 43.7411 39.54 43.4651 39.54C43.2011 39.54 42.8651 39.744 42.8651 40.116C42.8651 40.488 43.2011 40.692 43.4651 40.692ZM42.9851 41.88V48H43.9451V41.88H42.9851ZM48.3654 42.72V41.88H47.1654V39.84H46.2054V41.88H45.3054V42.72H46.2054V46.5C46.2054 47.748 46.8294 48.072 47.6454 48.072C47.8974 48.072 48.1494 48.048 48.3654 48V47.16C47.5494 47.22 47.1654 47.1 47.1654 46.404V42.72H48.3654Z" fill="#C1C7CD"/>
<g filter="url(#filter0_d_217_9376)">
<path d="M27.6895 11.9902L27.6895 18.0002L26.1895 18.0002L26.1895 11.9902C26.1895 11.5802 26.5295 11.2402 26.9395 11.2402C27.3495 11.2402 27.6895 11.5802 27.6895 11.9902Z" fill="#777777"/>
<path fill-rule="evenodd" clip-rule="evenodd" d="M36.14 17.8994C36.62 17.8994 37 18.2794 37 18.7594C37 24.6394 32.88 28.7594 26.99 28.7594C21.1 28.7594 16.99 24.6494 16.99 18.7594C16.99 18.2794 17.38 17.8994 17.85 17.8994L26.1898 17.8994L26.1898 21.5596L24.6198 19.9996C24.3298 19.7096 23.8498 19.7096 23.5598 19.9996C23.4098 20.1496 23.3398 20.3396 23.3398 20.5296C23.3398 20.7196 23.4098 20.9096 23.5598 21.0596L26.4098 23.8996C26.6998 24.1996 27.1698 24.1996 27.4598 23.8996L30.3098 21.0596C30.5998 20.7696 30.5998 20.2896 30.3098 19.9996C30.0198 19.7096 29.5398 19.7096 29.2498 19.9996L27.6898 21.5596L27.6898 17.8994L36.14 17.8994Z" fill="#5ED5A8"/>
</g>
<defs>
<filter id="filter0_d_217_9376" x="0.990234" y="0.240234" width="52.0098" height="49.5195" filterUnits="userSpaceOnUse" color-interpolation-filters="sRGB">
<feFlood flood-opacity="0" result="BackgroundImageFix"/>
<feColorMatrix in="SourceAlpha" type="matrix" values="0 0 0 0 0 0 0 0 0 0 0 0 0 0 0 0 0 0 127 0" result="hardAlpha"/>
<feOffset dy="5"/>
<feGaussianBlur stdDeviation="8"/>
<feComposite in2="hardAlpha" operator="out"/>
<feColorMatrix type="matrix" values="0 0 0 0 0.368627 0 0 0 0 0.835294 0 0 0 0 0.658824 0 0 0 0.25 0"/>
<feBlend mode="normal" in2="BackgroundImageFix" result="effect1_dropShadow_217_9376"/>
<feBlend mode="normal" in="SourceGraphic" in2="effect1_dropShadow_217_9376" result="shape"/>
</filter>
</defs>
</svg>
