<svg width="46" height="54" viewBox="0 0 46 54" fill="none" xmlns="http://www.w3.org/2000/svg">
<path d="M2.884 45.08V42.38H7.864V41.42H1.804V50H8.008V49.04H2.884V46.04H7.288V45.08H2.884ZM11.9016 50H12.9816V42.38H15.8376V41.42H9.04564V42.38H11.9016V50ZM17.2267 41.42V50H18.3067V46.028H22.8907V50H23.9707V41.42H22.8907V45.068H18.3067V41.42H17.2267ZM29.5061 44.612C29.5061 43.472 29.9381 42.5 31.3901 42.5C32.6621 42.5 32.9741 43.34 32.9741 44.036C32.9741 45.248 32.2061 45.536 30.6581 46.436C29.1341 47.324 28.1861 48.5 28.1861 50H33.9341V49.04H29.4941V49.016C30.0101 47.036 34.0541 46.868 34.0541 44.024C34.0541 42.44 32.8301 41.54 31.4141 41.54C29.3621 41.54 28.4261 42.896 28.4261 44.612H29.5061ZM35.9868 50.084C36.3588 50.084 36.6468 49.832 36.6468 49.424C36.6468 49.028 36.3588 48.764 35.9868 48.764C35.6148 48.764 35.3268 49.028 35.3268 49.424C35.3268 49.832 35.6148 50.084 35.9868 50.084ZM40.9099 50.168C43.1779 50.168 44.1019 48.212 44.1019 45.86C44.1019 43.508 43.1779 41.54 40.9099 41.54C38.6419 41.54 37.7179 43.508 37.7179 45.86C37.7179 48.212 38.6419 50.168 40.9099 50.168ZM40.9099 49.208C39.3259 49.208 38.7979 47.624 38.7979 45.86C38.7979 44.096 39.3259 42.5 40.9099 42.5C42.4939 42.5 43.0219 44.096 43.0219 45.86C43.0219 47.624 42.4939 49.208 40.9099 49.208Z" fill="#C1C7CD"/>
<g filter="url(#filter0_d_217_9415)">
<path d="M21.4506 13.0496L17.7106 17.7096C16.8606 18.7696 17.1606 20.1296 18.3706 20.7296L22.1006 22.5996C22.5906 22.8396 23.3906 22.8396 23.8806 22.5996L27.6106 20.7296C28.8206 20.1196 29.1206 18.7596 28.2706 17.7096L24.5406 13.0496C23.7006 11.9796 22.3006 11.9796 21.4506 13.0496Z" stroke="#5ED5A8" stroke-width="1.5" stroke-miterlimit="10" stroke-linecap="round" stroke-linejoin="round"/>
<path d="M23 12.2998V17.5598" stroke="#5ED5A8" stroke-width="1.5" stroke-miterlimit="10" stroke-linecap="round" stroke-linejoin="round"/>
<path d="M18.8008 20.7096L23.0008 17.5596L27.2008 20.7096" stroke="#5ED5A8" stroke-width="1.5" stroke-miterlimit="10" stroke-linecap="round" stroke-linejoin="round"/>
<path d="M19.7701 24.4292L21.3801 25.1492C22.4101 25.6092 23.5901 25.6092 24.6301 25.1492L26.2401 24.4292C27.6801 23.7892 29.0101 25.5292 28.0101 26.7492L24.5501 30.9792C23.7001 32.0192 22.3101 32.0192 21.4501 30.9792L18.0001 26.7492C16.9901 25.5292 18.3201 23.7892 19.7701 24.4292Z" stroke="#5ED5A8" stroke-width="1.5" stroke-miterlimit="10" stroke-linecap="round" stroke-linejoin="round"/>
</g>
<defs>
<filter id="filter0_d_217_9415" x="0.476562" y="0.49707" width="45.0273" height="53.0117" filterUnits="userSpaceOnUse" color-interpolation-filters="sRGB">
<feFlood flood-opacity="0" result="BackgroundImageFix"/>
<feColorMatrix in="SourceAlpha" type="matrix" values="0 0 0 0 0 0 0 0 0 0 0 0 0 0 0 0 0 0 127 0" result="hardAlpha"/>
<feOffset dy="5"/>
<feGaussianBlur stdDeviation="8"/>
<feComposite in2="hardAlpha" operator="out"/>
<feColorMatrix type="matrix" values="0 0 0 0 0.368627 0 0 0 0 0.835294 0 0 0 0 0.658824 0 0 0 0.25 0"/>
<feBlend mode="normal" in2="BackgroundImageFix" result="effect1_dropShadow_217_9415"/>
<feBlend mode="normal" in="SourceGraphic" in2="effect1_dropShadow_217_9415" result="shape"/>
</filter>
</defs>
</svg>
