<svg width="52" height="65" viewBox="0 0 52 65" fill="none" xmlns="http://www.w3.org/2000/svg">
<path d="M20.9349 42.012H22.0149C21.7149 40.38 20.5749 39.252 18.4029 39.252C16.0269 39.252 14.4189 41.124 14.4189 43.704C14.4189 46.296 15.7869 48.168 18.2829 48.168C19.6029 48.168 20.4069 47.688 21.0549 46.788H21.0789L21.4389 48H22.1589V43.536H18.2829V44.496H21.0789C21.0789 46.104 19.8189 47.208 18.2829 47.208C16.1229 47.208 15.4989 45.324 15.4989 43.704C15.4989 42.096 16.3629 40.212 18.4029 40.212C19.6989 40.212 20.6829 40.788 20.9349 42.012ZM26.4979 41.712C25.6219 41.712 25.1299 42.288 24.8059 43.092H24.7819V41.88H23.8219V48H24.7819V44.736C24.7819 43.428 25.7059 42.492 27.0379 42.708H27.0619V41.748C26.8939 41.724 26.7259 41.712 26.4979 41.712ZM28.852 40.692C29.128 40.692 29.452 40.488 29.452 40.116C29.452 39.744 29.128 39.54 28.852 39.54C28.588 39.54 28.252 39.744 28.252 40.116C28.252 40.488 28.588 40.692 28.852 40.692ZM28.372 41.88V48H29.332V41.88H28.372ZM35.4443 39.42V42.672H35.4203C35.0603 42.144 34.4843 41.712 33.5003 41.712C31.9643 41.712 30.7403 42.924 30.7403 44.94C30.7403 46.956 31.9643 48.168 33.5003 48.168C34.4843 48.168 35.0603 47.712 35.4203 47.244H35.4443V48H36.4043V39.42H35.4443ZM33.5963 47.328C32.3363 47.328 31.7003 46.14 31.7003 44.94C31.7003 43.74 32.3363 42.552 33.5963 42.552C34.7363 42.552 35.4443 43.5 35.4443 44.94C35.4443 46.38 34.7363 47.328 33.5963 47.328ZM8.45671 62H9.53671V54.38H12.3927V53.42H5.60071V54.38H8.45671V62ZM15.4114 55.712C14.5354 55.712 14.0434 56.288 13.7194 57.092H13.6954V55.88H12.7354V62H13.6954V58.736C13.6954 57.428 14.6194 56.492 15.9514 56.708H15.9754V55.748C15.8074 55.724 15.6394 55.712 15.4114 55.712ZM20.6751 57.44C20.6751 58.052 20.2071 58.184 19.1751 58.376C17.5911 58.676 16.5591 59.036 16.5591 60.428C16.5591 61.46 17.3391 62.168 18.5751 62.168C19.5831 62.168 20.2671 61.808 20.6511 61.232H20.6751C20.8431 61.904 21.1911 62.06 21.7671 62.06C21.9471 62.06 22.0791 62.048 22.3311 61.964V61.292C21.7191 61.364 21.6351 61.1 21.6351 60.62V57.644C21.6351 56.168 20.5911 55.712 19.4271 55.712C17.6511 55.712 16.9191 56.6 16.8591 57.776H17.8191C17.8791 56.888 18.2631 56.552 19.4271 56.552C20.4111 56.552 20.6751 56.96 20.6751 57.44ZM18.6711 61.328C17.8791 61.328 17.5191 60.98 17.5191 60.38C17.5191 59.648 18.0711 59.348 19.2591 59.096C19.9071 58.964 20.4951 58.796 20.6751 58.616V59.636C20.6751 60.812 19.8111 61.328 18.6711 61.328ZM27.7211 53.42V56.672H27.6971C27.3371 56.144 26.7611 55.712 25.7771 55.712C24.2411 55.712 23.0171 56.924 23.0171 58.94C23.0171 60.956 24.2411 62.168 25.7771 62.168C26.7611 62.168 27.3371 61.712 27.6971 61.244H27.7211V62H28.6811V53.42H27.7211ZM25.8731 61.328C24.6131 61.328 23.9771 60.14 23.9771 58.94C23.9771 57.74 24.6131 56.552 25.8731 56.552C27.0131 56.552 27.7211 57.5 27.7211 58.94C27.7211 60.38 27.0131 61.328 25.8731 61.328ZM30.7975 54.692C31.0735 54.692 31.3975 54.488 31.3975 54.116C31.3975 53.744 31.0735 53.54 30.7975 53.54C30.5335 53.54 30.1975 53.744 30.1975 54.116C30.1975 54.488 30.5335 54.692 30.7975 54.692ZM30.3175 55.88V62H31.2775V55.88H30.3175ZM36.0338 55.712C34.9898 55.712 34.3418 56.18 34.0178 56.612H33.9938V55.88H33.0338V62H33.9938V58.184C33.9938 57.236 34.7138 56.552 35.7938 56.552C36.7538 56.552 37.1258 57.176 37.1258 57.968V62H38.0858V57.728C38.0858 56.324 37.1498 55.712 36.0338 55.712ZM44.0465 55.88V56.636H44.0225C43.6625 56.168 43.0865 55.712 42.0785 55.712C40.5665 55.712 39.3425 56.684 39.3425 58.7C39.3425 60.716 40.5665 61.688 42.0785 61.688C43.0865 61.688 43.6625 61.256 44.0225 60.728H44.0465V61.652C44.0465 62.792 43.3865 63.284 42.2465 63.284C41.1065 63.284 40.6025 62.816 40.4825 62.192H39.5225C39.6185 63.236 40.6145 64.124 42.2945 64.124C43.9745 64.124 45.0065 63.296 45.0065 61.664V55.88H44.0465ZM42.1985 60.848C40.9385 60.848 40.3025 59.9 40.3025 58.7C40.3025 57.5 40.9385 56.552 42.1985 56.552C43.3385 56.552 44.0465 57.26 44.0465 58.7C44.0465 60.14 43.3385 60.848 42.1985 60.848Z" fill="#C1C7CD"/>
<g filter="url(#filter0_d_217_9394)">
<path d="M22.02 11.6201H20.98C19.39 11.6201 18.75 12.2201 18.75 13.7401V25.6201H24.25V13.7401C24.24 12.2201 23.6 11.6201 22.02 11.6201Z" fill="#777777"/>
<path d="M30.52 16.6201H29.48C27.89 16.6201 27.25 17.2301 27.25 18.7401V25.6201H32.75V18.7401C32.75 17.2301 32.1 16.6201 30.52 16.6201Z" fill="#5ED5A8"/>
<path d="M16.75 24.8799H35.25C35.66 24.8799 36 25.2199 36 25.6299C36 26.0399 35.66 26.3799 35.25 26.3799H16.75C16.34 26.3799 16 26.0399 16 25.6199C16 25.1999 16.34 24.8799 16.75 24.8799Z" fill="#777777"/>
</g>
<defs>
<filter id="filter0_d_217_9394" x="-2" y="-4" width="56" height="56" filterUnits="userSpaceOnUse" color-interpolation-filters="sRGB">
<feFlood flood-opacity="0" result="BackgroundImageFix"/>
<feColorMatrix in="SourceAlpha" type="matrix" values="0 0 0 0 0 0 0 0 0 0 0 0 0 0 0 0 0 0 127 0" result="hardAlpha"/>
<feOffset dy="5"/>
<feGaussianBlur stdDeviation="8"/>
<feComposite in2="hardAlpha" operator="out"/>
<feColorMatrix type="matrix" values="0 0 0 0 0.368627 0 0 0 0 0.835294 0 0 0 0 0.658824 0 0 0 0.25 0"/>
<feBlend mode="normal" in2="BackgroundImageFix" result="effect1_dropShadow_217_9394"/>
<feBlend mode="normal" in="SourceGraphic" in2="effect1_dropShadow_217_9394" result="shape"/>
</filter>
</defs>
</svg>
