<svg width="56" height="68" viewBox="0 0 56 68" fill="none" xmlns="http://www.w3.org/2000/svg">
<path d="M12.8499 42.42V51H18.4299V50.04H13.9299V42.42H12.8499ZM20.2672 43.692C20.5432 43.692 20.8672 43.488 20.8672 43.116C20.8672 42.744 20.5432 42.54 20.2672 42.54C20.0032 42.54 19.6672 42.744 19.6672 43.116C19.6672 43.488 20.0032 43.692 20.2672 43.692ZM19.7872 44.88V51H20.7472V44.88H19.7872ZM26.8956 44.88V45.636H26.8716C26.5116 45.168 25.9356 44.712 24.9276 44.712C23.4156 44.712 22.1916 45.924 22.1916 47.94C22.1916 49.956 23.4156 51.168 24.9276 51.168C25.9356 51.168 26.5116 50.736 26.8716 50.208H26.8956V53.064H27.8556V44.88H26.8956ZM25.0476 50.328C23.7876 50.328 23.1516 49.14 23.1516 47.94C23.1516 46.74 23.7876 45.552 25.0476 45.552C26.1876 45.552 26.8956 46.5 26.8956 47.94C26.8956 49.38 26.1876 50.328 25.0476 50.328ZM33.5443 44.88V48.696C33.5443 49.644 32.8243 50.328 31.7443 50.328C30.7843 50.328 30.4123 49.704 30.4123 48.912V44.88H29.4523V49.152C29.4523 50.556 30.3883 51.168 31.5043 51.168C32.5483 51.168 33.1963 50.7 33.5203 50.268H33.5443V51H34.5043V44.88H33.5443ZM36.745 43.692C37.021 43.692 37.345 43.488 37.345 43.116C37.345 42.744 37.021 42.54 36.745 42.54C36.481 42.54 36.145 42.744 36.145 43.116C36.145 43.488 36.481 43.692 36.745 43.692ZM36.265 44.88V51H37.225V44.88H36.265ZM43.3373 42.42V45.672H43.3133C42.9533 45.144 42.3773 44.712 41.3933 44.712C39.8573 44.712 38.6333 45.924 38.6333 47.94C38.6333 49.956 39.8573 51.168 41.3933 51.168C42.3773 51.168 42.9533 50.712 43.3133 50.244H43.3373V51H44.2973V42.42H43.3373ZM41.4893 50.328C40.2293 50.328 39.5933 49.14 39.5933 47.94C39.5933 46.74 40.2293 45.552 41.4893 45.552C42.6293 45.552 43.3373 46.5 43.3373 47.94C43.3373 49.38 42.6293 50.328 41.4893 50.328ZM17.5046 59.996C16.2446 59.684 15.3206 59.528 15.3206 58.388C15.3206 57.68 15.9686 57.212 17.1806 57.212C18.5366 57.212 19.1846 57.812 19.3406 58.964H20.4206C20.2766 57.188 19.0046 56.252 17.1806 56.252C15.2846 56.252 14.2406 57.152 14.2406 58.508C14.2406 60.176 15.7766 60.62 17.0606 60.92C18.9806 61.364 19.6166 61.58 19.6166 62.756C19.6166 63.524 19.0886 64.208 17.6006 64.208C15.8006 64.208 15.0806 63.296 14.9606 62.12H13.8806C14.0006 64.088 15.5726 65.168 17.6006 65.168C19.7726 65.168 20.6966 64.004 20.6966 62.756C20.6966 60.8 19.4366 60.476 17.5046 59.996ZM21.3759 58.88L23.3319 65H24.3519L25.7079 59.948H25.7319L27.1119 65H28.1319L30.0879 58.88H29.0319L27.6399 63.956H27.6159L26.2359 58.88H25.2159L23.8479 63.956H23.8239L22.4319 58.88H21.3759ZM34.6854 60.44C34.6854 61.052 34.2174 61.184 33.1854 61.376C31.6014 61.676 30.5694 62.036 30.5694 63.428C30.5694 64.46 31.3494 65.168 32.5854 65.168C33.5934 65.168 34.2774 64.808 34.6614 64.232H34.6854C34.8534 64.904 35.2014 65.06 35.7774 65.06C35.9574 65.06 36.0894 65.048 36.3414 64.964V64.292C35.7294 64.364 35.6454 64.1 35.6454 63.62V60.644C35.6454 59.168 34.6014 58.712 33.4374 58.712C31.6614 58.712 30.9294 59.6 30.8694 60.776H31.8294C31.8894 59.888 32.2734 59.552 33.4374 59.552C34.4214 59.552 34.6854 59.96 34.6854 60.44ZM32.6814 64.328C31.8894 64.328 31.5294 63.98 31.5294 63.38C31.5294 62.648 32.0814 62.348 33.2694 62.096C33.9174 61.964 34.5054 61.796 34.6854 61.616V62.636C34.6854 63.812 33.8214 64.328 32.6814 64.328ZM40.3034 58.712C39.2954 58.712 38.7194 59.168 38.3594 59.636H38.3354V58.88H37.3754V67.064H38.3354V64.208H38.3594C38.7194 64.736 39.2954 65.168 40.3034 65.168C41.8154 65.168 43.0394 63.956 43.0394 61.94C43.0394 59.924 41.8154 58.712 40.3034 58.712ZM40.1834 64.328C39.0434 64.328 38.3354 63.38 38.3354 61.94C38.3354 60.5 39.0434 59.552 40.1834 59.552C41.4434 59.552 42.0794 60.74 42.0794 61.94C42.0794 63.14 41.4434 64.328 40.1834 64.328Z" fill="#C1C7CD"/>
<g filter="url(#filter0_d_217_9397)">
<path d="M39.0004 26.2197C38.5904 26.2197 38.2504 26.5597 38.2504 26.9697C38.2504 29.9297 36.1904 32.4097 33.4204 33.0597L33.6904 32.6097C33.9004 32.2497 33.7904 31.7897 33.4304 31.5797C33.0804 31.3697 32.6104 31.4797 32.4004 31.8397L31.3504 33.5897C31.2104 33.8197 31.2104 34.1097 31.3404 34.3397C31.4704 34.5797 31.7204 34.7197 31.9904 34.7197C36.2604 34.7197 39.7404 31.2397 39.7404 26.9697C39.7504 26.5597 39.4104 26.2197 39.0004 26.2197Z" fill="#777777"/>
<path d="M24 11.2197C19.73 11.2197 16.25 14.6997 16.25 18.9697C16.25 19.3797 16.59 19.7197 17 19.7197C17.41 19.7197 17.75 19.3797 17.75 18.9697C17.75 16.0097 19.81 13.5297 22.58 12.8797L22.31 13.3297C22.1 13.6897 22.21 14.1497 22.57 14.3597C22.92 14.5697 23.39 14.4597 23.6 14.0997L24.65 12.3497C24.78 12.1197 24.79 11.8397 24.65 11.5997C24.52 11.3697 24.27 11.2197 24 11.2197Z" fill="#5ED5A8"/>
<path d="M37.5002 19.67C37.5002 22.75 35.2602 25.29 32.3302 25.76C32.3302 25.75 32.3302 25.75 32.3302 25.74C32.0402 22.01 29.0202 18.97 25.2402 18.67C25.7102 15.74 28.2502 13.5 31.3302 13.5C34.7402 13.5 37.5002 16.26 37.5002 19.67Z" fill="#777777"/>
<path d="M25.8091 25.2003C25.8091 25.0503 25.6391 24.8203 25.4291 24.8203H23.3691V25.5703H25.4291C25.6391 25.5803 25.8091 25.4103 25.8091 25.2003Z" fill="#5ED5A8"/>
<path d="M25.8291 27.0801H25.4291H23.3691V27.8301H25.8391C26.1591 27.8301 26.3791 27.6301 26.3791 27.4501C26.3791 27.2701 26.1491 27.0801 25.8291 27.0801Z" fill="#5ED5A8"/>
<path d="M30.83 25.8494C30.6 22.8194 28.18 20.3994 25.15 20.1694C24.99 20.1594 24.84 20.1494 24.67 20.1494C21.26 20.1494 18.5 22.9094 18.5 26.3294C18.5 29.7394 21.26 32.4994 24.67 32.4994C28.08 32.4994 30.85 29.7394 30.85 26.3294C30.85 26.1594 30.84 26.0094 30.83 25.8494ZM25.83 29.3294H25.17V29.7094C25.17 30.1194 24.83 30.4594 24.42 30.4594C24.01 30.4594 23.67 30.1194 23.67 29.7094V29.3294H22.62C22.21 29.3294 21.87 28.9894 21.87 28.5794V26.3294V24.0794C21.87 23.6694 22.21 23.3294 22.62 23.3294H23.67V22.9494C23.67 22.5394 24.01 22.1994 24.42 22.1994C24.83 22.1994 25.17 22.5394 25.17 22.9494V23.3294H25.43C26.43 23.3294 27.31 24.2094 27.31 25.2094C27.31 25.4994 27.24 25.7694 27.12 26.0194C27.58 26.3594 27.87 26.8794 27.87 27.4594C27.87 28.4894 26.96 29.3294 25.83 29.3294Z" fill="#5ED5A8"/>
</g>
<defs>
<filter id="filter0_d_217_9397" x="0" y="0" width="56" height="56" filterUnits="userSpaceOnUse" color-interpolation-filters="sRGB">
<feFlood flood-opacity="0" result="BackgroundImageFix"/>
<feColorMatrix in="SourceAlpha" type="matrix" values="0 0 0 0 0 0 0 0 0 0 0 0 0 0 0 0 0 0 127 0" result="hardAlpha"/>
<feOffset dy="5"/>
<feGaussianBlur stdDeviation="8"/>
<feComposite in2="hardAlpha" operator="out"/>
<feColorMatrix type="matrix" values="0 0 0 0 0.368627 0 0 0 0 0.835294 0 0 0 0 0.658824 0 0 0 0.25 0"/>
<feBlend mode="normal" in2="BackgroundImageFix" result="effect1_dropShadow_217_9397"/>
<feBlend mode="normal" in="SourceGraphic" in2="effect1_dropShadow_217_9397" result="shape"/>
</filter>
</defs>
</svg>
