<svg width="56" height="53" viewBox="0 0 56 53" fill="none" xmlns="http://www.w3.org/2000/svg">
<path d="M0.804 41.42V50H6.384V49.04H1.884V41.42H0.804ZM11.5016 43.88V47.696C11.5016 48.644 10.7816 49.328 9.70155 49.328C8.74155 49.328 8.36955 48.704 8.36955 47.912V43.88H7.40955V48.152C7.40955 49.556 8.34555 50.168 9.46155 50.168C10.5056 50.168 11.1536 49.7 11.4776 49.268H11.5016V50H12.4616V43.88H11.5016ZM17.1022 43.712C16.0582 43.712 15.4102 44.18 15.0862 44.612H15.0622V43.88H14.1022V50H15.0622V46.184C15.0622 45.236 15.7822 44.552 16.8622 44.552C17.8222 44.552 18.1942 45.176 18.1942 45.968V50H19.1542V45.728C19.1542 44.324 18.2182 43.712 17.1022 43.712ZM25.1028 46.088H26.0628C25.9188 44.72 24.8868 43.712 23.3748 43.712C21.5868 43.712 20.4108 45.02 20.4108 46.94C20.4108 48.86 21.5868 50.168 23.3748 50.168C24.8868 50.168 25.9788 49.136 26.0628 47.744H25.1028C25.0548 48.476 24.6108 49.328 23.3748 49.328C21.9228 49.328 21.3708 48.092 21.3708 46.94C21.3708 45.788 21.9228 44.552 23.3748 44.552C24.5988 44.552 25.0548 45.416 25.1028 46.088ZM30.2983 43.712C29.2543 43.712 28.6063 44.18 28.2823 44.612H28.2583V41.42H27.2983V50H28.2583V46.184C28.2583 45.236 28.9783 44.552 30.0583 44.552C31.0183 44.552 31.3903 45.176 31.3903 45.968V50H32.3503V45.728C32.3503 44.324 31.4143 43.712 30.2983 43.712ZM36.8829 43.712C35.8749 43.712 35.2989 44.168 34.9389 44.636H34.9149V43.88H33.9549V52.064H34.9149V49.208H34.9389C35.2989 49.736 35.8749 50.168 36.8829 50.168C38.3949 50.168 39.6189 48.956 39.6189 46.94C39.6189 44.924 38.3949 43.712 36.8829 43.712ZM36.7629 49.328C35.6229 49.328 34.9149 48.38 34.9149 46.94C34.9149 45.5 35.6229 44.552 36.7629 44.552C38.0229 44.552 38.6589 45.74 38.6589 46.94C38.6589 48.14 38.0229 49.328 36.7629 49.328ZM44.6837 45.44C44.6837 46.052 44.2157 46.184 43.1837 46.376C41.5997 46.676 40.5677 47.036 40.5677 48.428C40.5677 49.46 41.3477 50.168 42.5837 50.168C43.5917 50.168 44.2757 49.808 44.6597 49.232H44.6837C44.8517 49.904 45.1997 50.06 45.7757 50.06C45.9557 50.06 46.0877 50.048 46.3397 49.964V49.292C45.7277 49.364 45.6437 49.1 45.6437 48.62V45.644C45.6437 44.168 44.5997 43.712 43.4357 43.712C41.6597 43.712 40.9277 44.6 40.8677 45.776H41.8277C41.8877 44.888 42.2717 44.552 43.4357 44.552C44.4197 44.552 44.6837 44.96 44.6837 45.44ZM42.6797 49.328C41.8877 49.328 41.5277 48.98 41.5277 48.38C41.5277 47.648 42.0797 47.348 43.2677 47.096C43.9157 46.964 44.5037 46.796 44.6837 46.616V47.636C44.6837 48.812 43.8197 49.328 42.6797 49.328ZM51.7297 41.42V44.672H51.7057C51.3457 44.144 50.7697 43.712 49.7857 43.712C48.2497 43.712 47.0257 44.924 47.0257 46.94C47.0257 48.956 48.2497 50.168 49.7857 50.168C50.7697 50.168 51.3457 49.712 51.7057 49.244H51.7297V50H52.6897V41.42H51.7297ZM49.8817 49.328C48.6217 49.328 47.9857 48.14 47.9857 46.94C47.9857 45.74 48.6217 44.552 49.8817 44.552C51.0217 44.552 51.7297 45.5 51.7297 46.94C51.7297 48.38 51.0217 49.328 49.8817 49.328Z" fill="#C1C7CD"/>
<g filter="url(#filter0_d_217_9418)">
<path d="M16.6053 29.84L22.2301 24.9424C22.7684 24.4736 23.6595 24.4736 24.1978 24.9424C24.7361 25.4111 24.7361 26.187 24.1978 26.6558L18.5731 31.5534C18.2946 31.7959 17.9419 31.909 17.5892 31.909C17.2365 31.909 16.8838 31.7959 16.6053 31.5534C16.067 31.0846 16.067 30.3088 16.6053 29.84Z" fill="#777777"/>
<path d="M22.1328 13.9881L22.2108 17.5971C22.2219 18.0922 21.8541 18.7493 21.386 19.0445L18.6221 20.8347C16.85 21.9774 17.1398 23.3772 19.2574 23.9486L22.8572 24.9104C23.459 25.0722 24.0943 25.6341 24.2503 26.1578L25.1085 28.9574C25.7883 31.1666 27.4824 31.3857 28.8866 29.4431L30.8481 26.7292C31.2048 26.234 32.0518 25.8626 32.7205 25.8912L36.4429 26.0531C39.1066 26.1673 39.8644 24.8532 38.1258 23.1201L35.9191 20.93C35.5067 20.5205 35.3173 19.7587 35.5067 19.2445L36.6435 16.1592C37.3011 14.3499 36.1197 13.35 34.0133 13.9404L30.7255 14.8641C30.1683 15.0165 29.3324 14.9117 28.8643 14.6165L25.4317 12.5025C23.5705 11.3694 22.0882 12.0359 22.1328 13.9881Z" fill="#5ED5A8"/>
</g>
<defs>
<filter id="filter0_d_217_9418" x="0.201172" y="0.950195" width="54.8594" height="51.959" filterUnits="userSpaceOnUse" color-interpolation-filters="sRGB">
<feFlood flood-opacity="0" result="BackgroundImageFix"/>
<feColorMatrix in="SourceAlpha" type="matrix" values="0 0 0 0 0 0 0 0 0 0 0 0 0 0 0 0 0 0 127 0" result="hardAlpha"/>
<feOffset dy="5"/>
<feGaussianBlur stdDeviation="8"/>
<feComposite in2="hardAlpha" operator="out"/>
<feColorMatrix type="matrix" values="0 0 0 0 0.368627 0 0 0 0 0.835294 0 0 0 0 0.658824 0 0 0 0.25 0"/>
<feBlend mode="normal" in2="BackgroundImageFix" result="effect1_dropShadow_217_9418"/>
<feBlend mode="normal" in="SourceGraphic" in2="effect1_dropShadow_217_9418" result="shape"/>
</filter>
</defs>
</svg>
