<svg width="52" height="54" viewBox="0 0 52 54" fill="none" xmlns="http://www.w3.org/2000/svg">
<path d="M7.804 51H8.884V43.944H8.908L11.5 51H12.46L15.052 43.944H15.076V51H16.156V42.42H14.68L11.992 49.548H11.968L9.28 42.42H7.804V51ZM21.6817 46.44C21.6817 47.052 21.2137 47.184 20.1817 47.376C18.5977 47.676 17.5657 48.036 17.5657 49.428C17.5657 50.46 18.3457 51.168 19.5817 51.168C20.5897 51.168 21.2737 50.808 21.6577 50.232H21.6817C21.8497 50.904 22.1977 51.06 22.7737 51.06C22.9537 51.06 23.0857 51.048 23.3377 50.964V50.292C22.7257 50.364 22.6417 50.1 22.6417 49.62V46.644C22.6417 45.168 21.5977 44.712 20.4337 44.712C18.6577 44.712 17.9257 45.6 17.8657 46.776H18.8257C18.8857 45.888 19.2697 45.552 20.4337 45.552C21.4177 45.552 21.6817 45.96 21.6817 46.44ZM19.6777 50.328C18.8857 50.328 18.5257 49.98 18.5257 49.38C18.5257 48.648 19.0777 48.348 20.2657 48.096C20.9137 47.964 21.5017 47.796 21.6817 47.616V48.636C21.6817 49.812 20.8177 50.328 19.6777 50.328ZM27.0477 44.712C26.1717 44.712 25.6797 45.288 25.3557 46.092H25.3317V44.88H24.3717V51H25.3317V47.736C25.3317 46.428 26.2557 45.492 27.5877 45.708H27.6117V44.748C27.4437 44.724 27.2757 44.712 27.0477 44.712ZM32.9234 44.88V45.636H32.8994C32.5394 45.168 31.9634 44.712 30.9554 44.712C29.4434 44.712 28.2194 45.684 28.2194 47.7C28.2194 49.716 29.4434 50.688 30.9554 50.688C31.9634 50.688 32.5394 50.256 32.8994 49.728H32.9234V50.652C32.9234 51.792 32.2634 52.284 31.1234 52.284C29.9834 52.284 29.4794 51.816 29.3594 51.192H28.3994C28.4954 52.236 29.4914 53.124 31.1714 53.124C32.8514 53.124 33.8834 52.296 33.8834 50.664V44.88H32.9234ZM31.0754 49.848C29.8154 49.848 29.1794 48.9 29.1794 47.7C29.1794 46.5 29.8154 45.552 31.0754 45.552C32.2154 45.552 32.9234 46.26 32.9234 47.7C32.9234 49.14 32.2154 49.848 31.0754 49.848ZM36.117 43.692C36.393 43.692 36.717 43.488 36.717 43.116C36.717 42.744 36.393 42.54 36.117 42.54C35.853 42.54 35.517 42.744 35.517 43.116C35.517 43.488 35.853 43.692 36.117 43.692ZM35.637 44.88V51H36.597V44.88H35.637ZM41.3534 44.712C40.3094 44.712 39.6614 45.18 39.3374 45.612H39.3134V44.88H38.3534V51H39.3134V47.184C39.3134 46.236 40.0334 45.552 41.1134 45.552C42.0734 45.552 42.4454 46.176 42.4454 46.968V51H43.4054V46.728C43.4054 45.324 42.4694 44.712 41.3534 44.712Z" fill="#C1C7CD"/>
<g filter="url(#filter0_d_217_9391)">
<path opacity="0.4" d="M32.5094 11.7998C32.0094 11.7998 31.6094 12.1998 31.6094 12.6998V17.3498C31.6094 17.8498 32.0094 18.2498 32.5094 18.2498C33.0094 18.2498 33.4094 17.8498 33.4094 17.3498V12.6998C33.4094 12.1998 33.0094 11.7998 32.5094 11.7998Z" fill="#747E87"/>
<path d="M25.9996 25.75C25.4996 25.75 25.0996 26.15 25.0996 26.65V31.3C25.0996 31.8 25.4996 32.2 25.9996 32.2C26.4996 32.2 26.8996 31.8 26.8996 31.3V26.65C26.8996 26.16 26.4996 25.75 25.9996 25.75Z" fill="#5ED5A8"/>
<path opacity="0.4" d="M19.4898 11.7998C18.9898 11.7998 18.5898 12.1998 18.5898 12.6998V17.3498C18.5898 17.8498 18.9898 18.2498 19.4898 18.2498C19.9898 18.2498 20.3898 17.8498 20.3898 17.3498V12.6998C20.3898 12.1998 19.9798 11.7998 19.4898 11.7998Z" fill="#747E87"/>
<path opacity="0.4" d="M21.3505 20.1699H17.6305C17.1305 20.1699 16.7305 20.5699 16.7305 21.0699C16.7305 21.5699 17.1305 21.9699 17.6305 21.9699H18.5905V31.2999C18.5905 31.7999 18.9905 32.1999 19.4905 32.1999C19.9905 32.1999 20.3905 31.7999 20.3905 31.2999V21.9699H21.3505C21.8505 21.9699 22.2505 21.5699 22.2505 21.0699C22.2505 20.5699 21.8405 20.1699 21.3505 20.1699Z" fill="#747E87"/>
<path opacity="0.4" d="M34.37 20.1699H30.65C30.15 20.1699 29.75 20.5699 29.75 21.0699C29.75 21.5699 30.15 21.9699 30.65 21.9699H31.61V31.2999C31.61 31.7999 32.01 32.1999 32.51 32.1999C33.01 32.1999 33.41 31.7999 33.41 31.2999V21.9699H34.37C34.87 21.9699 35.27 21.5699 35.27 21.0699C35.27 20.5699 34.87 20.1699 34.37 20.1699Z" fill="#747E87"/>
<path d="M27.8602 22.0298H26.9002V12.6998C26.9002 12.1998 26.5002 11.7998 26.0002 11.7998C25.5002 11.7998 25.1002 12.1998 25.1002 12.6998V22.0298H24.1402C23.6402 22.0298 23.2402 22.4298 23.2402 22.9298C23.2402 23.4298 23.6402 23.8298 24.1402 23.8298H27.8602C28.3602 23.8298 28.7602 23.4298 28.7602 22.9298C28.7602 22.4298 28.3602 22.0298 27.8602 22.0298Z" fill="#5ED5A8"/>
</g>
<defs>
<filter id="filter0_d_217_9391" x="-2" y="-1" width="56" height="56" filterUnits="userSpaceOnUse" color-interpolation-filters="sRGB">
<feFlood flood-opacity="0" result="BackgroundImageFix"/>
<feColorMatrix in="SourceAlpha" type="matrix" values="0 0 0 0 0 0 0 0 0 0 0 0 0 0 0 0 0 0 127 0" result="hardAlpha"/>
<feOffset dy="5"/>
<feGaussianBlur stdDeviation="8"/>
<feComposite in2="hardAlpha" operator="out"/>
<feColorMatrix type="matrix" values="0 0 0 0 0.368627 0 0 0 0 0.835294 0 0 0 0 0.658824 0 0 0 0.25 0"/>
<feBlend mode="normal" in2="BackgroundImageFix" result="effect1_dropShadow_217_9391"/>
<feBlend mode="normal" in="SourceGraphic" in2="effect1_dropShadow_217_9391" result="shape"/>
</filter>
</defs>
</svg>
