<svg width="48" height="52" viewBox="0 0 48 52" fill="none" xmlns="http://www.w3.org/2000/svg">
<path d="M3.804 49H4.884V45.532H7.344C9.516 45.532 8.7 48.64 9.072 49H10.236V48.928C9.792 48.784 10.488 45.412 8.58 45.04V45.016C9.528 44.776 10.116 44.092 10.116 42.856C10.116 41.332 8.976 40.42 7.284 40.42H3.804V49ZM4.884 41.38H7.032C7.92 41.38 9.036 41.488 9.036 42.976C9.036 44.464 7.92 44.572 7.032 44.572H4.884V41.38ZM14.116 48.328C12.784 48.328 12.124 47.296 12.124 46.192H16.96C16.96 44.02 16.024 42.712 14.104 42.712C12.316 42.712 11.164 43.9 11.164 45.94C11.164 47.86 12.292 49.168 14.152 49.168C15.676 49.168 16.552 48.256 16.864 47.116H15.904C15.796 47.536 15.34 48.328 14.116 48.328ZM14.104 43.552C15.256 43.552 16 44.368 16 45.352H12.124C12.124 44.368 12.952 43.552 14.104 43.552ZM20.69 41.26V40.42C20.474 40.372 20.222 40.348 20.006 40.348C19.19 40.348 18.566 40.672 18.566 41.92V42.88H17.714V43.72H18.566V49H19.526V43.72H20.69V42.88H19.526V42.016C19.526 41.32 19.874 41.2 20.69 41.26ZM24.3706 48.328C23.0386 48.328 22.3786 47.296 22.3786 46.192H27.2146C27.2146 44.02 26.2786 42.712 24.3586 42.712C22.5706 42.712 21.4186 43.9 21.4186 45.94C21.4186 47.86 22.5466 49.168 24.4066 49.168C25.9306 49.168 26.8066 48.256 27.1186 47.116H26.1586C26.0506 47.536 25.5946 48.328 24.3706 48.328ZM24.3586 43.552C25.5106 43.552 26.2546 44.368 26.2546 45.352H22.3786C22.3786 44.368 23.2066 43.552 24.3586 43.552ZM31.1579 42.712C30.2819 42.712 29.7899 43.288 29.4659 44.092H29.4419V42.88H28.4819V49H29.4419V45.736C29.4419 44.428 30.3659 43.492 31.6979 43.708H31.7219V42.748C31.5539 42.724 31.3859 42.712 31.1579 42.712ZM35.588 42.712C34.712 42.712 34.22 43.288 33.896 44.092H33.872V42.88H32.912V49H33.872V45.736C33.872 44.428 34.796 43.492 36.128 43.708H36.152V42.748C35.984 42.724 35.816 42.712 35.588 42.712ZM40.8517 44.44C40.8517 45.052 40.3837 45.184 39.3517 45.376C37.7677 45.676 36.7357 46.036 36.7357 47.428C36.7357 48.46 37.5157 49.168 38.7517 49.168C39.7597 49.168 40.4437 48.808 40.8277 48.232H40.8517C41.0197 48.904 41.3677 49.06 41.9437 49.06C42.1237 49.06 42.2557 49.048 42.5077 48.964V48.292C41.8957 48.364 41.8117 48.1 41.8117 47.62V44.644C41.8117 43.168 40.7677 42.712 39.6037 42.712C37.8277 42.712 37.0957 43.6 37.0357 44.776H37.9957C38.0557 43.888 38.4397 43.552 39.6037 43.552C40.5877 43.552 40.8517 43.96 40.8517 44.44ZM38.8477 48.328C38.0557 48.328 37.6957 47.98 37.6957 47.38C37.6957 46.648 38.2477 46.348 39.4357 46.096C40.0837 45.964 40.6717 45.796 40.8517 45.616V46.636C40.8517 47.812 39.9877 48.328 38.8477 48.328ZM43.5777 40.42V49H44.5377V40.42H43.5777Z" fill="#C1C7CD"/>
<g filter="url(#filter0_d_217_9379)">
<path d="M24 11C21.38 11 19.25 13.13 19.25 15.75C19.25 18.32 21.26 20.4 23.88 20.49C23.96 20.48 24.04 20.48 24.1 20.49C24.12 20.49 24.13 20.49 24.15 20.49C24.16 20.49 24.16 20.49 24.17 20.49C26.73 20.4 28.74 18.32 28.75 15.75C28.75 13.13 26.62 11 24 11Z" fill="#777777"/>
<path fill-rule="evenodd" clip-rule="evenodd" d="M18.929 23.1499C21.739 21.2899 26.289 21.2899 29.079 23.1499C30.339 23.9899 31.029 25.1299 31.039 26.3599C31.039 27.5999 30.339 28.7399 29.079 29.5899C27.679 30.5299 25.839 30.9999 23.999 30.9999C22.159 30.9999 20.319 30.5299 18.919 29.5899C17.659 28.7499 16.959 27.6099 16.959 26.3799C16.959 25.1499 17.659 23.9999 18.929 23.1499ZM24.7493 25.6299H25.9993C26.4093 25.6299 26.7493 25.9699 26.7493 26.3799C26.7493 26.7899 26.4093 27.1299 25.9993 27.1299H24.7493V28.3799C24.7493 28.7899 24.4093 29.1299 23.9993 29.1299C23.5893 29.1299 23.2493 28.7899 23.2493 28.3799V27.1299H21.9993C21.5893 27.1299 21.2493 26.7899 21.2493 26.3799C21.2493 25.9699 21.5893 25.6299 21.9993 25.6299H23.2493V24.3799C23.2493 23.9699 23.5893 23.6299 23.9993 23.6299C24.4093 23.6299 24.7493 23.9699 24.7493 24.3799V25.6299Z" fill="#5ED5A8"/>
</g>
<defs>
<filter id="filter0_d_217_9379" x="0.958984" y="0" width="46.0801" height="52" filterUnits="userSpaceOnUse" color-interpolation-filters="sRGB">
<feFlood flood-opacity="0" result="BackgroundImageFix"/>
<feColorMatrix in="SourceAlpha" type="matrix" values="0 0 0 0 0 0 0 0 0 0 0 0 0 0 0 0 0 0 127 0" result="hardAlpha"/>
<feOffset dy="5"/>
<feGaussianBlur stdDeviation="8"/>
<feComposite in2="hardAlpha" operator="out"/>
<feColorMatrix type="matrix" values="0 0 0 0 0.368627 0 0 0 0 0.835294 0 0 0 0 0.658824 0 0 0 0.25 0"/>
<feBlend mode="normal" in2="BackgroundImageFix" result="effect1_dropShadow_217_9379"/>
<feBlend mode="normal" in="SourceGraphic" in2="effect1_dropShadow_217_9379" result="shape"/>
</filter>
</defs>
</svg>
