<svg width="52" height="52" viewBox="0 0 52 52" fill="none" xmlns="http://www.w3.org/2000/svg">
<path d="M9.888 43.996C8.628 43.684 7.704 43.528 7.704 42.388C7.704 41.68 8.352 41.212 9.564 41.212C10.92 41.212 11.568 41.812 11.724 42.964H12.804C12.66 41.188 11.388 40.252 9.564 40.252C7.668 40.252 6.624 41.152 6.624 42.508C6.624 44.176 8.16 44.62 9.444 44.92C11.364 45.364 12 45.58 12 46.756C12 47.524 11.472 48.208 9.984 48.208C8.184 48.208 7.464 47.296 7.344 46.12H6.264C6.384 48.088 7.956 49.168 9.984 49.168C12.156 49.168 13.08 48.004 13.08 46.756C13.08 44.8 11.82 44.476 9.888 43.996ZM18.2325 44.44C18.2325 45.052 17.7645 45.184 16.7325 45.376C15.1485 45.676 14.1165 46.036 14.1165 47.428C14.1165 48.46 14.8965 49.168 16.1325 49.168C17.1405 49.168 17.8245 48.808 18.2085 48.232H18.2325C18.4005 48.904 18.7485 49.06 19.3245 49.06C19.5045 49.06 19.6365 49.048 19.8885 48.964V48.292C19.2765 48.364 19.1925 48.1 19.1925 47.62V44.644C19.1925 43.168 18.1485 42.712 16.9845 42.712C15.2085 42.712 14.4765 43.6 14.4165 44.776H15.3765C15.4365 43.888 15.8205 43.552 16.9845 43.552C17.9685 43.552 18.2325 43.96 18.2325 44.44ZM16.2285 48.328C15.4365 48.328 15.0765 47.98 15.0765 47.38C15.0765 46.648 15.6285 46.348 16.8165 46.096C17.4645 45.964 18.0525 45.796 18.2325 45.616V46.636C18.2325 47.812 17.3685 48.328 16.2285 48.328ZM20.1693 42.88L22.3653 49H23.4573L25.6533 42.88H24.6093L22.9173 48.04H22.9053L21.2133 42.88H20.1693ZM27.2534 41.692C27.5294 41.692 27.8534 41.488 27.8534 41.116C27.8534 40.744 27.5294 40.54 27.2534 40.54C26.9894 40.54 26.6534 40.744 26.6534 41.116C26.6534 41.488 26.9894 41.692 27.2534 41.692ZM26.7734 42.88V49H27.7334V42.88H26.7734ZM32.4897 42.712C31.4457 42.712 30.7977 43.18 30.4737 43.612H30.4497V42.88H29.4897V49H30.4497V45.184C30.4497 44.236 31.1697 43.552 32.2497 43.552C33.2097 43.552 33.5817 44.176 33.5817 44.968V49H34.5417V44.728C34.5417 43.324 33.6057 42.712 32.4897 42.712ZM40.5023 42.88V43.636H40.4783C40.1183 43.168 39.5423 42.712 38.5343 42.712C37.0223 42.712 35.7983 43.684 35.7983 45.7C35.7983 47.716 37.0223 48.688 38.5343 48.688C39.5423 48.688 40.1183 48.256 40.4783 47.728H40.5023V48.652C40.5023 49.792 39.8423 50.284 38.7023 50.284C37.5623 50.284 37.0583 49.816 36.9383 49.192H35.9783C36.0743 50.236 37.0703 51.124 38.7503 51.124C40.4303 51.124 41.4623 50.296 41.4623 48.664V42.88H40.5023ZM38.6543 47.848C37.3943 47.848 36.7583 46.9 36.7583 45.7C36.7583 44.5 37.3943 43.552 38.6543 43.552C39.7943 43.552 40.5023 44.26 40.5023 45.7C40.5023 47.14 39.7943 47.848 38.6543 47.848ZM45.58 45.364C44.728 45.16 43.9 45.1 43.9 44.38C43.9 43.9 44.368 43.552 45.232 43.552C46.384 43.552 46.612 44.164 46.708 44.632H47.668C47.572 43.576 46.756 42.712 45.232 42.712C43.792 42.712 42.94 43.492 42.94 44.452C42.94 45.892 44.332 46 45.268 46.228C46.144 46.444 46.948 46.492 46.948 47.38C46.948 47.788 46.54 48.328 45.496 48.328C43.96 48.328 43.72 47.644 43.66 46.96H42.7C42.76 48.28 43.624 49.168 45.496 49.168C46.888 49.168 47.908 48.436 47.908 47.32C47.908 45.808 46.672 45.628 45.58 45.364Z" fill="#C1C7CD"/>
<g filter="url(#filter0_d_217_9421)">
<path d="M25.9412 11.2098L23.5312 16.8198H21.1212C20.7212 16.8198 20.3312 16.8498 19.9512 16.9298L20.9512 14.5298L20.9912 14.4398L21.0512 14.2798C21.0812 14.2098 21.1012 14.1498 21.1312 14.0998C22.2912 11.4098 23.5912 10.5698 25.9412 11.2098Z" fill="#3E474F"/>
<path d="M32.7291 17.0905L32.7091 17.0805C32.1091 16.9105 31.4991 16.8205 30.8791 16.8205H24.6191L26.8691 11.5905L26.8991 11.5205C27.0391 11.5705 27.1891 11.6405 27.3391 11.6905L29.5491 12.6205C30.7791 13.1305 31.6391 13.6605 32.1691 14.3005C32.2591 14.4205 32.3391 14.5305 32.4191 14.6605C32.5091 14.8005 32.5791 14.9405 32.6191 15.0905C32.6591 15.1805 32.6891 15.2605 32.7091 15.3505C32.8591 15.8605 32.8691 16.4405 32.7291 17.0905Z" fill="#3E474F"/>
<path d="M26.5195 26.6601H26.7695C27.0695 26.6601 27.3195 26.3901 27.3195 26.0601C27.3195 25.6401 27.1995 25.5801 26.9395 25.4801L26.5195 25.3301V26.6601Z" fill="#5ED5A8"/>
<path d="M32.2902 18.5203C31.8402 18.3903 31.3702 18.3203 30.8802 18.3203H21.1202C20.4402 18.3203 19.8002 18.4503 19.2002 18.7103C17.4602 19.4603 16.2402 21.1903 16.2402 23.2003V25.1503C16.2402 25.3903 16.2602 25.6203 16.2902 25.8603C16.5102 29.0403 18.2102 30.7403 21.3902 30.9503C21.6202 30.9803 21.8502 31.0003 22.1002 31.0003H29.9002C33.6002 31.0003 35.5502 29.2403 35.7402 25.7403C35.7502 25.5503 35.7602 25.3503 35.7602 25.1503V23.2003C35.7602 20.9903 34.2902 19.1303 32.2902 18.5203ZM27.2802 24.5003C27.7402 24.6603 28.3602 25.0003 28.3602 26.0603C28.3602 26.9703 27.6502 27.7003 26.7702 27.7003H26.5202V27.9203C26.5202 28.2103 26.2902 28.4403 26.0002 28.4403C25.7102 28.4403 25.4802 28.2103 25.4802 27.9203V27.7003H25.3902C24.4302 27.7003 23.6402 26.8903 23.6402 25.8903C23.6402 25.6003 23.8702 25.3703 24.1602 25.3703C24.4502 25.3703 24.6802 25.6003 24.6802 25.8903C24.6802 26.3103 25.0002 26.6603 25.3902 26.6603H25.4802V24.9703L24.7202 24.7003C24.2602 24.5403 23.6402 24.2003 23.6402 23.1403C23.6402 22.2303 24.3502 21.5003 25.2302 21.5003H25.4802V21.2803C25.4802 20.9903 25.7102 20.7603 26.0002 20.7603C26.2902 20.7603 26.5202 20.9903 26.5202 21.2803V21.5003H26.6102C27.5702 21.5003 28.3602 22.3103 28.3602 23.3103C28.3602 23.6003 28.1302 23.8303 27.8402 23.8303C27.5502 23.8303 27.3202 23.6003 27.3202 23.3103C27.3202 22.8903 27.0002 22.5403 26.6102 22.5403H26.5202V24.2303L27.2802 24.5003Z" fill="#5ED5A8"/>
<path d="M24.6797 23.14C24.6797 23.56 24.7997 23.62 25.0597 23.72L25.4797 23.87V22.54H25.2297C24.9197 22.54 24.6797 22.81 24.6797 23.14Z" fill="#5ED5A8"/>
</g>
<defs>
<filter id="filter0_d_217_9421" x="-2" y="-2" width="56" height="56" filterUnits="userSpaceOnUse" color-interpolation-filters="sRGB">
<feFlood flood-opacity="0" result="BackgroundImageFix"/>
<feColorMatrix in="SourceAlpha" type="matrix" values="0 0 0 0 0 0 0 0 0 0 0 0 0 0 0 0 0 0 127 0" result="hardAlpha"/>
<feOffset dy="5"/>
<feGaussianBlur stdDeviation="8"/>
<feComposite in2="hardAlpha" operator="out"/>
<feColorMatrix type="matrix" values="0 0 0 0 0.368627 0 0 0 0 0.835294 0 0 0 0 0.658824 0 0 0 0.25 0"/>
<feBlend mode="normal" in2="BackgroundImageFix" result="effect1_dropShadow_217_9421"/>
<feBlend mode="normal" in="SourceGraphic" in2="effect1_dropShadow_217_9421" result="shape"/>
</filter>
</defs>
</svg>
