<svg width="52" height="54" viewBox="0 0 52 54" fill="none" xmlns="http://www.w3.org/2000/svg">
<path d="M15.888 45.996C14.628 45.684 13.704 45.528 13.704 44.388C13.704 43.68 14.352 43.212 15.564 43.212C16.92 43.212 17.568 43.812 17.724 44.964H18.804C18.66 43.188 17.388 42.252 15.564 42.252C13.668 42.252 12.624 43.152 12.624 44.508C12.624 46.176 14.16 46.62 15.444 46.92C17.364 47.364 18 47.58 18 48.756C18 49.524 17.472 50.208 15.984 50.208C14.184 50.208 13.464 49.296 13.344 48.12H12.264C12.384 50.088 13.956 51.168 15.984 51.168C18.156 51.168 19.08 50.004 19.08 48.756C19.08 46.8 17.82 46.476 15.888 45.996ZM23.4165 44.712C22.4085 44.712 21.8325 45.168 21.4725 45.636H21.4485V44.88H20.4885V53.064H21.4485V50.208H21.4725C21.8325 50.736 22.4085 51.168 23.4165 51.168C24.9285 51.168 26.1525 49.956 26.1525 47.94C26.1525 45.924 24.9285 44.712 23.4165 44.712ZM23.2965 50.328C22.1565 50.328 21.4485 49.38 21.4485 47.94C21.4485 46.5 22.1565 45.552 23.2965 45.552C24.5565 45.552 25.1925 46.74 25.1925 47.94C25.1925 49.14 24.5565 50.328 23.2965 50.328ZM30.1253 51.168C28.2533 51.168 27.1253 49.848 27.1253 47.94C27.1253 46.032 28.2533 44.712 30.1253 44.712C31.9853 44.712 33.1133 46.032 33.1133 47.94C33.1133 49.848 31.9853 51.168 30.1253 51.168ZM30.1253 50.328C31.4933 50.328 32.1533 49.248 32.1533 47.94C32.1533 46.632 31.4933 45.552 30.1253 45.552C28.7453 45.552 28.0853 46.632 28.0853 47.94C28.0853 49.248 28.7453 50.328 30.1253 50.328ZM36.9463 45.72V44.88H35.7463V42.84H34.7863V44.88H33.8863V45.72H34.7863V49.5C34.7863 50.748 35.4103 51.072 36.2263 51.072C36.4783 51.072 36.7303 51.048 36.9463 51V50.16C36.1303 50.22 35.7463 50.1 35.7463 49.404V45.72H36.9463Z" fill="#C1C7CD"/>
<path d="M26.0009 23.4304C27.724 23.4304 29.1209 22.0336 29.1209 20.3104C29.1209 18.5873 27.724 17.1904 26.0009 17.1904C24.2777 17.1904 22.8809 18.5873 22.8809 20.3104C22.8809 22.0336 24.2777 23.4304 26.0009 23.4304Z" stroke="#777777" stroke-width="1.5"/>
<g filter="url(#filter0_d_217_9388)">
<path d="M17.6197 18.49C19.5897 9.83 32.4197 9.84 34.3797 18.5C35.5297 23.58 32.3697 27.88 29.5997 30.54C27.5897 32.48 24.4097 32.48 22.3897 30.54C19.6297 27.88 16.4697 23.57 17.6197 18.49Z" stroke="#5ED5A8" stroke-width="1.5" shape-rendering="crispEdges"/>
</g>
<defs>
<filter id="filter0_d_217_9388" x="0.625" y="0.25" width="50.748" height="53.4951" filterUnits="userSpaceOnUse" color-interpolation-filters="sRGB">
<feFlood flood-opacity="0" result="BackgroundImageFix"/>
<feColorMatrix in="SourceAlpha" type="matrix" values="0 0 0 0 0 0 0 0 0 0 0 0 0 0 0 0 0 0 127 0" result="hardAlpha"/>
<feOffset dy="5"/>
<feGaussianBlur stdDeviation="8"/>
<feComposite in2="hardAlpha" operator="out"/>
<feColorMatrix type="matrix" values="0 0 0 0 0.368627 0 0 0 0 0.835294 0 0 0 0 0.658824 0 0 0 0.25 0"/>
<feBlend mode="normal" in2="BackgroundImageFix" result="effect1_dropShadow_217_9388"/>
<feBlend mode="normal" in="SourceGraphic" in2="effect1_dropShadow_217_9388" result="shape"/>
</filter>
</defs>
</svg>
