<svg width="48" height="54" viewBox="0 0 48 54" fill="none" xmlns="http://www.w3.org/2000/svg">
<path d="M6.888 44.996C5.628 44.684 4.704 44.528 4.704 43.388C4.704 42.68 5.352 42.212 6.564 42.212C7.92 42.212 8.568 42.812 8.724 43.964H9.804C9.66 42.188 8.388 41.252 6.564 41.252C4.668 41.252 3.624 42.152 3.624 43.508C3.624 45.176 5.16 45.62 6.444 45.92C8.364 46.364 9 46.58 9 47.756C9 48.524 8.472 49.208 6.984 49.208C5.184 49.208 4.464 48.296 4.344 47.12H3.264C3.384 49.088 4.956 50.168 6.984 50.168C9.156 50.168 10.08 49.004 10.08 47.756C10.08 45.8 8.82 45.476 6.888 44.996ZM14.1525 44.72V43.88H12.9525V41.84H11.9925V43.88H11.0925V44.72H11.9925V48.5C11.9925 49.748 12.6165 50.072 13.4325 50.072C13.6845 50.072 13.9365 50.048 14.1525 50V49.16C13.3365 49.22 12.9525 49.1 12.9525 48.404V44.72H14.1525ZM19.2173 45.44C19.2173 46.052 18.7493 46.184 17.7173 46.376C16.1333 46.676 15.1013 47.036 15.1013 48.428C15.1013 49.46 15.8813 50.168 17.1173 50.168C18.1253 50.168 18.8093 49.808 19.1933 49.232H19.2173C19.3853 49.904 19.7333 50.06 20.3093 50.06C20.4893 50.06 20.6213 50.048 20.8733 49.964V49.292C20.2613 49.364 20.1773 49.1 20.1773 48.62V45.644C20.1773 44.168 19.1333 43.712 17.9693 43.712C16.1933 43.712 15.4613 44.6 15.4013 45.776H16.3613C16.4213 44.888 16.8053 44.552 17.9693 44.552C18.9533 44.552 19.2173 44.96 19.2173 45.44ZM17.2133 49.328C16.4213 49.328 16.0613 48.98 16.0613 48.38C16.0613 47.648 16.6133 47.348 17.8013 47.096C18.4493 46.964 19.0373 46.796 19.2173 46.616V47.636C19.2173 48.812 18.3533 49.328 17.2133 49.328ZM21.9073 41.42V50H22.8673V47.588L23.8153 46.712L25.9873 50H27.1273L24.4873 46.148L26.8753 43.88H25.6753L22.8673 46.508V41.42H21.9073ZM28.6952 42.692C28.9712 42.692 29.2952 42.488 29.2952 42.116C29.2952 41.744 28.9712 41.54 28.6952 41.54C28.4312 41.54 28.0952 41.744 28.0952 42.116C28.0952 42.488 28.4312 42.692 28.6952 42.692ZM28.2152 43.88V50H29.1752V43.88H28.2152ZM33.9315 43.712C32.8875 43.712 32.2395 44.18 31.9155 44.612H31.8915V43.88H30.9315V50H31.8915V46.184C31.8915 45.236 32.6115 44.552 33.6915 44.552C34.6515 44.552 35.0235 45.176 35.0235 45.968V50H35.9835V45.728C35.9835 44.324 35.0475 43.712 33.9315 43.712ZM41.9441 43.88V44.636H41.9201C41.5601 44.168 40.9841 43.712 39.9761 43.712C38.4641 43.712 37.2401 44.684 37.2401 46.7C37.2401 48.716 38.4641 49.688 39.9761 49.688C40.9841 49.688 41.5601 49.256 41.9201 48.728H41.9441V49.652C41.9441 50.792 41.2841 51.284 40.1441 51.284C39.0041 51.284 38.5001 50.816 38.3801 50.192H37.4201C37.5161 51.236 38.5121 52.124 40.1921 52.124C41.8721 52.124 42.9041 51.296 42.9041 49.664V43.88H41.9441ZM40.0961 48.848C38.8361 48.848 38.2001 47.9 38.2001 46.7C38.2001 45.5 38.8361 44.552 40.0961 44.552C41.2361 44.552 41.9441 45.26 41.9441 46.7C41.9441 48.14 41.2361 48.848 40.0961 48.848Z" fill="#C1C7CD"/>
<g filter="url(#filter0_d_217_9409)">
<path d="M30.5 22.6504V26.3504C30.5 29.4704 27.59 32.0004 24 32.0004C20.41 32.0004 17.5 29.4704 17.5 26.3504V22.6504C17.5 25.7704 20.41 28.0004 24 28.0004C27.59 28.0004 30.5 25.7704 30.5 22.6504Z" stroke="#5ED5A8" stroke-width="1.5" stroke-linecap="round" stroke-linejoin="round"/>
<path d="M30.5 17.65C30.5 18.56 30.25 19.4 29.81 20.12C28.74 21.88 26.54 23 24 23C21.46 23 19.26 21.88 18.19 20.12C17.75 19.4 17.5 18.56 17.5 17.65C17.5 16.09 18.23 14.68 19.4 13.66C20.58 12.63 22.2 12 24 12C25.8 12 27.42 12.63 28.6 13.65C29.77 14.68 30.5 16.09 30.5 17.65Z" stroke="#5ED5A8" stroke-width="1.5" stroke-linecap="round" stroke-linejoin="round"/>
<path d="M30.5 17.65V22.65C30.5 25.77 27.59 28 24 28C20.41 28 17.5 25.77 17.5 22.65V17.65C17.5 14.53 20.41 12 24 12C25.8 12 27.42 12.63 28.6 13.65C29.77 14.68 30.5 16.09 30.5 17.65Z" stroke="#5ED5A8" stroke-width="1.5" stroke-linecap="round" stroke-linejoin="round"/>
</g>
<defs>
<filter id="filter0_d_217_9409" x="0.75" y="0.25" width="46.5" height="53.5" filterUnits="userSpaceOnUse" color-interpolation-filters="sRGB">
<feFlood flood-opacity="0" result="BackgroundImageFix"/>
<feColorMatrix in="SourceAlpha" type="matrix" values="0 0 0 0 0 0 0 0 0 0 0 0 0 0 0 0 0 0 127 0" result="hardAlpha"/>
<feOffset dy="5"/>
<feGaussianBlur stdDeviation="8"/>
<feComposite in2="hardAlpha" operator="out"/>
<feColorMatrix type="matrix" values="0 0 0 0 0.368627 0 0 0 0 0.835294 0 0 0 0 0.658824 0 0 0 0.25 0"/>
<feBlend mode="normal" in2="BackgroundImageFix" result="effect1_dropShadow_217_9409"/>
<feBlend mode="normal" in="SourceGraphic" in2="effect1_dropShadow_217_9409" result="shape"/>
</filter>
</defs>
</svg>
