<svg width="52" height="52" viewBox="0 0 52 52" fill="none" xmlns="http://www.w3.org/2000/svg">
<path d="M7.12 49H8.2V41.38H11.056V40.42H4.264V41.38H7.12V49ZM14.0747 42.712C13.1987 42.712 12.7067 43.288 12.3827 44.092H12.3587V42.88H11.3987V49H12.3587V45.736C12.3587 44.428 13.2827 43.492 14.6147 43.708H14.6387V42.748C14.4707 42.724 14.3027 42.712 14.0747 42.712ZM19.3384 44.44C19.3384 45.052 18.8704 45.184 17.8384 45.376C16.2544 45.676 15.2224 46.036 15.2224 47.428C15.2224 48.46 16.0024 49.168 17.2384 49.168C18.2464 49.168 18.9304 48.808 19.3144 48.232H19.3384C19.5064 48.904 19.8544 49.06 20.4304 49.06C20.6104 49.06 20.7424 49.048 20.9944 48.964V48.292C20.3824 48.364 20.2984 48.1 20.2984 47.62V44.644C20.2984 43.168 19.2544 42.712 18.0904 42.712C16.3144 42.712 15.5824 43.6 15.5224 44.776H16.4824C16.5424 43.888 16.9264 43.552 18.0904 43.552C19.0744 43.552 19.3384 43.96 19.3384 44.44ZM17.3344 48.328C16.5424 48.328 16.1824 47.98 16.1824 47.38C16.1824 46.648 16.7344 46.348 17.9224 46.096C18.5704 45.964 19.1584 45.796 19.3384 45.616V46.636C19.3384 47.812 18.4744 48.328 17.3344 48.328ZM25.0284 42.712C23.9844 42.712 23.3364 43.18 23.0124 43.612H22.9884V42.88H22.0284V49H22.9884V45.184C22.9884 44.236 23.7084 43.552 24.7884 43.552C25.7484 43.552 26.1204 44.176 26.1204 44.968V49H27.0804V44.728C27.0804 43.324 26.1444 42.712 25.0284 42.712ZM31.169 45.364C30.317 45.16 29.489 45.1 29.489 44.38C29.489 43.9 29.957 43.552 30.821 43.552C31.973 43.552 32.201 44.164 32.297 44.632H33.257C33.161 43.576 32.345 42.712 30.821 42.712C29.381 42.712 28.529 43.492 28.529 44.452C28.529 45.892 29.921 46 30.857 46.228C31.733 46.444 32.537 46.492 32.537 47.38C32.537 47.788 32.129 48.328 31.085 48.328C29.549 48.328 29.309 47.644 29.249 46.96H28.289C28.349 48.28 29.213 49.168 31.085 49.168C32.477 49.168 33.497 48.436 33.497 47.32C33.497 45.808 32.261 45.628 31.169 45.364ZM37.2068 41.26V40.42C36.9908 40.372 36.7388 40.348 36.5228 40.348C35.7068 40.348 35.0828 40.672 35.0828 41.92V42.88H34.2308V43.72H35.0828V49H36.0428V43.72H37.2068V42.88H36.0428V42.016C36.0428 41.32 36.3908 41.2 37.2068 41.26ZM40.8875 48.328C39.5555 48.328 38.8955 47.296 38.8955 46.192H43.7315C43.7315 44.02 42.7955 42.712 40.8755 42.712C39.0875 42.712 37.9355 43.9 37.9355 45.94C37.9355 47.86 39.0635 49.168 40.9235 49.168C42.4475 49.168 43.3235 48.256 43.6355 47.116H42.6755C42.5675 47.536 42.1115 48.328 40.8875 48.328ZM40.8755 43.552C42.0275 43.552 42.7715 44.368 42.7715 45.352H38.8955C38.8955 44.368 39.7235 43.552 40.8755 43.552ZM47.6747 42.712C46.7987 42.712 46.3067 43.288 45.9827 44.092H45.9587V42.88H44.9987V49H45.9587V45.736C45.9587 44.428 46.8827 43.492 48.2147 43.708H48.2387V42.748C48.0707 42.724 47.9027 42.712 47.6747 42.712Z" fill="#C1C7CD"/>
<g filter="url(#filter0_d_217_9370)">
<path d="M31.2793 19.4498L34.9993 15.7297L31.2793 12.0098" stroke="#5ED5A8" stroke-width="1.5" stroke-linecap="round" stroke-linejoin="round"/>
<path d="M17 15.7295H35" stroke="#5ED5A8" stroke-width="1.5" stroke-linecap="round" stroke-linejoin="round"/>
<path d="M20.72 22.5498L17 26.2698L20.72 29.9898" stroke="#5ED5A8" stroke-width="1.5" stroke-linecap="round" stroke-linejoin="round"/>
<path d="M35 26.2695H17" stroke="#5ED5A8" stroke-width="1.5" stroke-linecap="round" stroke-linejoin="round"/>
</g>
<defs>
<filter id="filter0_d_217_9370" x="-2" y="-2" width="56" height="56" filterUnits="userSpaceOnUse" color-interpolation-filters="sRGB">
<feFlood flood-opacity="0" result="BackgroundImageFix"/>
<feColorMatrix in="SourceAlpha" type="matrix" values="0 0 0 0 0 0 0 0 0 0 0 0 0 0 0 0 0 0 127 0" result="hardAlpha"/>
<feOffset dy="5"/>
<feGaussianBlur stdDeviation="8"/>
<feComposite in2="hardAlpha" operator="out"/>
<feColorMatrix type="matrix" values="0 0 0 0 0.368627 0 0 0 0 0.835294 0 0 0 0 0.658824 0 0 0 0.25 0"/>
<feBlend mode="normal" in2="BackgroundImageFix" result="effect1_dropShadow_217_9370"/>
<feBlend mode="normal" in="SourceGraphic" in2="effect1_dropShadow_217_9370" result="shape"/>
</filter>
</defs>
</svg>
