<svg width="23" height="11" viewBox="0 0 23 11" fill="none" xmlns="http://www.w3.org/2000/svg">
<path d="M0.282267 0.99V11H6.79227V9.88H1.54227V0.99H0.282267ZM12.8245 0.99H11.7045L7.82654 11H8.94654L12.8245 0.99ZM21.892 3.51C21.892 1.956 20.66 0.99 18.616 0.99H14.584V11H18.896C20.968 11 22.284 9.936 22.284 8.088C22.284 6.59 21.388 5.792 20.338 5.61V5.582C21.164 5.302 21.892 4.742 21.892 3.51ZM15.844 5.176V2.11H18.952C20.1 2.11 20.632 2.74 20.632 3.65C20.632 4.56 20.24 5.176 18.812 5.176H15.844ZM15.844 6.296H19.302C20.352 6.296 21.024 7.01 21.024 8.088C21.024 9.026 20.632 9.88 19.022 9.88H15.844V6.296Z" fill="#5ED5A8"/>
</svg>
