<svg width="20" height="27" viewBox="0 0 20 27" fill="none" xmlns="http://www.w3.org/2000/svg">
<path fill-rule="evenodd" clip-rule="evenodd" d="M19.8303 11.1581C20.2285 8.49532 18.2013 7.06398 15.4292 6.10914L16.3285 2.50219L14.1328 1.95508L13.2574 5.46707C12.6801 5.3231 12.0874 5.18745 11.4982 5.05297L12.38 1.51781L10.1857 0.970703L9.28592 4.57648C8.80825 4.46772 8.33909 4.36024 7.88392 4.24698L7.88646 4.23564L4.8586 3.47953L4.27452 5.82463C4.27452 5.82463 5.90352 6.19804 5.86919 6.22103C6.75831 6.44294 6.9191 7.03151 6.8924 7.49803L5.86802 11.6072C5.92924 11.6227 6.00866 11.6452 6.09629 11.6805L6.03252 11.6645C5.97835 11.651 5.92202 11.6369 5.8642 11.623L4.42837 17.3794C4.31971 17.6495 4.04391 18.0549 3.42227 17.901C3.44428 17.9329 1.82643 17.5027 1.82643 17.5027L0.736328 20.016L3.59362 20.7283C3.90643 20.8068 4.21555 20.8874 4.52153 20.9671L4.5218 20.9672L4.52211 20.9673C4.73589 21.023 4.94814 21.0783 5.15905 21.1323L4.25046 24.7806L6.44358 25.3277L7.34336 21.7181C7.9425 21.8807 8.52394 22.0308 9.09315 22.1722L8.1964 25.7648L10.3922 26.3119L11.3006 22.6704C15.0447 23.379 17.86 23.0933 19.0449 19.7068C19.9998 16.9803 18.9974 15.4076 17.0277 14.382C18.4623 14.0512 19.5429 13.1076 19.8311 11.1584L19.8304 11.1579L19.8303 11.1581ZM14.8137 18.1926C14.1911 20.6941 10.2756 19.6599 8.4841 19.1868L8.48405 19.1868C8.32292 19.1442 8.17897 19.1062 8.05615 19.0757L9.26185 14.2423C9.41156 14.2797 9.5945 14.3207 9.80175 14.3672C11.6548 14.7831 15.4515 15.6351 14.8138 18.1926H14.8137ZM10.1734 12.124C11.667 12.5226 14.9252 13.3921 15.4927 11.1186H15.4929C16.0723 8.79329 12.9058 8.09224 11.3593 7.74984C11.1853 7.71133 11.0318 7.67735 10.9065 7.6461L9.81338 12.0297C9.91659 12.0554 10.0377 12.0878 10.1734 12.124Z" fill="white"/>
</svg>
