<svg width="44" height="44" viewBox="0 0 44 44" fill="none" xmlns="http://www.w3.org/2000/svg">
<path d="M15 25C14.06 25 13.19 25.33 12.5 25.88C11.58 26.61 11 27.74 11 29C11 29.75 11.21 30.46 11.58 31.06C12.27 32.22 13.54 33 15 33C16.01 33 16.93 32.63 17.63 32C17.94 31.74 18.21 31.42 18.42 31.06C18.79 30.46 19 29.75 19 29C19 26.79 17.21 25 15 25ZM17.07 28.57L14.94 30.54C14.8 30.67 14.61 30.74 14.43 30.74C14.24 30.74 14.05 30.67 13.9 30.52L12.91 29.53C12.62 29.24 12.62 28.76 12.91 28.47C13.2 28.18 13.68 28.18 13.97 28.47L14.45 28.95L16.05 27.47C16.35 27.19 16.83 27.21 17.11 27.51C17.39 27.81 17.37 28.29 17.07 28.57Z" fill="#777777"/>
<path opacity="0.4" d="M29.48 22.95H31.5V21.51C31.5 19.44 29.81 17.75 27.74 17.75H16.26C14.19 17.75 12.5 19.44 12.5 21.51V25.88C13.19 25.33 14.06 25 15 25C17.21 25 19 26.79 19 29C19 29.75 18.79 30.46 18.42 31.06C18.21 31.42 17.94 31.74 17.63 32H27.74C29.81 32 31.5 30.31 31.5 28.24V27.05H29.6C28.52 27.05 27.53 26.26 27.44 25.18C27.38 24.55 27.62 23.96 28.04 23.55C28.41 23.17 28.92 22.95 29.48 22.95Z" fill="#777777"/>
<path d="M24.85 13.9496V17.7496H16.26C14.19 17.7496 12.5 19.4396 12.5 21.5096V17.8396C12.5 16.6496 13.23 15.5896 14.34 15.1696L22.28 12.1696C23.52 11.7096 24.85 12.6196 24.85 13.9496Z" fill="#777777"/>
<path d="M32.5608 23.9702V26.0302C32.5608 26.5802 32.1208 27.0302 31.5608 27.0502H29.6008C28.5208 27.0502 27.5308 26.2602 27.4408 25.1802C27.3808 24.5502 27.6208 23.9602 28.0408 23.5502C28.4108 23.1702 28.9208 22.9502 29.4808 22.9502H31.5608C32.1208 22.9702 32.5608 23.4202 32.5608 23.9702Z" fill="#777777"/>
<path d="M24 22.75H17C16.59 22.75 16.25 22.41 16.25 22C16.25 21.59 16.59 21.25 17 21.25H24C24.41 21.25 24.75 21.59 24.75 22C24.75 22.41 24.41 22.75 24 22.75Z" fill="#777777"/>
</svg>
