<svg width="28" height="26" viewBox="0 0 28 26" fill="none" xmlns="http://www.w3.org/2000/svg">
<path d="M7.97565 12.8987C7.91876 13.8871 8.67962 14.7333 9.66802 14.7902C9.70357 14.7902 9.73913 14.7902 9.77468 14.7902C10.7702 14.7902 11.5737 13.9867 11.5666 12.9912C11.5666 11.9957 10.7631 11.1922 9.76757 11.1993C8.81472 11.1993 8.02543 11.9459 7.97565 12.8987Z" fill="#0033AD"/>
<path d="M1.27814 12.4368C0.958155 12.4155 0.680834 12.6644 0.666612 12.9844C0.65239 13.3043 0.894157 13.5817 1.21414 13.5959C1.53413 13.6172 1.80434 13.3683 1.82567 13.0484C1.847 12.7284 1.59813 12.4582 1.27814 12.4368Z" fill="#0033AD"/>
<path d="M7.86294 2.4744C8.14738 2.33219 8.26115 1.97665 8.11893 1.69221C7.97672 1.40778 7.62118 1.29401 7.33675 1.43623C7.05231 1.57844 6.93854 1.92687 7.08076 2.2113C7.22297 2.50284 7.5714 2.62373 7.86294 2.4744C7.86294 2.4744 7.85583 2.4744 7.86294 2.4744Z" fill="#0033AD"/>
<path d="M9.68305 5.65254C10.1239 5.43211 10.3017 4.89169 10.0813 4.45082C9.86082 4.00995 9.3204 3.83218 8.87953 4.05262C8.43866 4.27305 8.26089 4.81347 8.48133 5.25434C8.70176 5.69521 9.24218 5.87298 9.68305 5.65254Z" fill="#0033AD"/>
<path d="M3.5527 7.83621C3.89402 8.05665 4.34911 7.9642 4.57665 7.62289C4.79709 7.28157 4.70465 6.82648 4.36333 6.59893C4.02201 6.3785 3.56692 6.47094 3.33938 6.81226C3.11183 7.15357 3.21138 7.61578 3.5527 7.83621Z" fill="#0033AD"/>
<path d="M4.64256 12.1167C4.1448 12.0883 3.72527 12.4652 3.69682 12.9629C3.66838 13.4607 4.04525 13.8802 4.54301 13.9087C5.04076 13.9371 5.4603 13.5602 5.48874 13.0625C5.51719 12.5718 5.14031 12.1452 4.64256 12.1167Z" fill="#0033AD"/>
<path d="M3.65267 18.139C3.29002 18.3239 3.14069 18.7648 3.32557 19.1346C3.51045 19.4972 3.95132 19.6465 4.32108 19.4617C4.68373 19.2768 4.83306 18.8359 4.64818 18.4661C4.4633 18.1035 4.01532 17.9542 3.65267 18.139Z" fill="#0033AD"/>
<path d="M7.13731 10.2601C7.62795 10.58 8.28214 10.4449 8.59502 9.95429C8.915 9.46365 8.7799 8.80946 8.28925 8.49658C7.79861 8.1766 7.14442 8.3117 6.83154 8.80235C6.51156 9.28588 6.64666 9.94007 7.13731 10.2601Z" fill="#0033AD"/>
<path d="M18.1946 5.58151C18.6071 5.85172 19.1688 5.73795 19.439 5.32552C19.7092 4.9131 19.5955 4.35134 19.183 4.08113C18.7706 3.81092 18.2088 3.9247 17.9386 4.33712C17.6613 4.75666 17.7751 5.3113 18.1946 5.58151Z" fill="#0033AD"/>
<path d="M20.0288 2.41764C20.299 2.59541 20.6545 2.51719 20.8323 2.24698C21.0101 1.97677 20.9318 1.62123 20.6616 1.44346C20.3914 1.26569 20.0359 1.34391 19.8581 1.60701C19.6875 1.87722 19.7657 2.23987 20.0288 2.41764Z" fill="#0033AD"/>
<path d="M18.33 11.1846C17.3416 11.1277 16.4883 11.8886 16.4385 12.877C16.3817 13.8654 17.1425 14.7187 18.1309 14.7685C18.1665 14.7685 18.202 14.7685 18.2305 14.7685C19.2189 14.7685 20.0224 13.965 20.0224 12.9694C20.0295 12.0237 19.2829 11.2344 18.33 11.1846Z" fill="#0033AD"/>
<path d="M10.2737 10.1328C10.5795 10.7372 11.1981 11.1212 11.8807 11.1212C12.8691 11.1212 13.6727 10.3177 13.6727 9.32215C13.6727 9.04483 13.6087 8.76751 13.4807 8.51152C13.0327 7.62267 11.9519 7.26713 11.0701 7.71511C10.1813 8.1702 9.82573 9.25104 10.2737 10.1328Z" fill="#0033AD"/>
<path d="M24.3446 7.83591C24.7073 7.65103 24.8495 7.20305 24.6646 6.8404C24.4797 6.47775 24.0317 6.33554 23.6691 6.52042C23.3064 6.7053 23.1642 7.14617 23.342 7.50882C23.534 7.87147 23.9748 8.02079 24.3446 7.83591Z" fill="#0033AD"/>
<path d="M19.7951 8.40466C19.276 8.66776 19.0627 9.30062 19.3257 9.81971C19.5888 10.3388 20.2217 10.5521 20.7408 10.289C21.2599 10.0259 21.4732 9.39306 21.2101 8.87397C20.947 8.35489 20.3142 8.14867 19.7951 8.40466Z" fill="#0033AD"/>
<path d="M13.9284 2.14709C14.3337 2.16842 14.6821 1.85555 14.7105 1.45023C14.739 1.04492 14.419 0.696487 14.0137 0.668044C13.6084 0.646711 13.2599 0.952475 13.2315 1.35779C13.2102 1.77022 13.523 2.11865 13.9284 2.14709Z" fill="#0033AD"/>
<path d="M13.9206 6.79037C14.5037 6.82592 15.0015 6.37794 15.0299 5.79486C15.0655 5.21177 14.6175 4.71402 14.0344 4.68557C13.4513 4.65002 12.9536 5.098 12.9251 5.68108C12.8967 6.26417 13.3376 6.76192 13.9206 6.79037Z" fill="#0033AD"/>
<path d="M8.20369 17.5705C8.72278 17.3074 8.9361 16.6745 8.673 16.1554C8.4099 15.6363 7.77704 15.423 7.25795 15.6861C6.73887 15.9492 6.52554 16.5821 6.78864 17.1011C7.05174 17.6202 7.6846 17.8336 8.20369 17.5705Z" fill="#0033AD"/>
<path d="M14.6033 8.33309C14.0629 9.16505 14.2905 10.2743 15.1224 10.8148C15.9544 11.3552 17.0637 11.1276 17.6041 10.2957C18.1445 9.46371 17.917 8.35442 17.085 7.814C16.7935 7.62201 16.4521 7.52246 16.1037 7.52246C15.4993 7.52246 14.9375 7.82823 14.6033 8.33309Z" fill="#0033AD"/>
<path d="M17.7248 15.8426C17.2768 14.9537 16.196 14.5982 15.3143 15.0462C14.4254 15.4941 14.0699 16.575 14.5178 17.4567C14.9658 18.3456 16.0467 18.7011 16.9284 18.2531C17.8101 17.8123 18.1728 16.7456 17.7319 15.8568C17.7319 15.8497 17.7319 15.8497 17.7248 15.8426Z" fill="#0033AD"/>
<path d="M20.8615 15.7144C20.3709 15.3944 19.7167 15.5295 19.4038 16.0201C19.0838 16.5108 19.2189 17.165 19.7096 17.4778C20.2002 17.7978 20.8544 17.6627 21.1673 17.1721C21.4873 16.6885 21.3522 16.0343 20.8615 15.7144Z" fill="#0033AD"/>
<path d="M24.3032 13.0195C24.3316 12.5218 23.9548 12.1022 23.457 12.0738C22.9593 12.0453 22.5397 12.4222 22.5113 12.92C22.4828 13.4177 22.8597 13.8373 23.3575 13.8657C23.8481 13.8941 24.2748 13.5102 24.3032 13.0195Z" fill="#0033AD"/>
<path d="M26.784 12.3792C26.464 12.3579 26.1867 12.6068 26.1725 12.9267C26.1582 13.2467 26.4 13.524 26.72 13.5383C27.04 13.5596 27.3102 13.3107 27.3315 12.9907C27.3458 12.6707 27.104 12.4005 26.784 12.3792Z" fill="#0033AD"/>
<path d="M24.4442 18.139C24.1029 17.9185 23.6478 18.011 23.4202 18.3523C23.1998 18.6936 23.2922 19.1487 23.6335 19.3762C23.9749 19.5967 24.43 19.5042 24.6575 19.1629C24.885 18.8216 24.7855 18.3594 24.4442 18.139Z" fill="#0033AD"/>
<path d="M7.96182 23.5577C7.69161 23.3799 7.33607 23.4582 7.1583 23.7213C6.98053 23.9915 7.05875 24.347 7.32185 24.5248C7.59206 24.7026 7.9476 24.6243 8.12537 24.3612C8.31025 24.0981 8.23203 23.7355 7.96182 23.5577Z" fill="#0033AD"/>
<path d="M20.1356 23.5007C19.8511 23.6429 19.7374 23.9985 19.8796 24.2829C20.0218 24.5673 20.3773 24.6811 20.6618 24.5389C20.9462 24.3967 21.06 24.0482 20.9178 23.7638C20.7755 23.4723 20.4271 23.3514 20.1356 23.5007C20.1356 23.5007 20.1427 23.5007 20.1356 23.5007Z" fill="#0033AD"/>
<path d="M13.3956 17.6419C13.936 16.8099 13.7085 15.7007 12.8765 15.1531C12.0445 14.6127 10.9352 14.8403 10.3877 15.6722C9.84018 16.5042 10.0748 17.6135 10.9068 18.161C11.1983 18.353 11.5397 18.4525 11.8881 18.4525C12.4996 18.4596 13.0614 18.1539 13.3956 17.6419Z" fill="#0033AD"/>
<path d="M9.80306 20.3936C9.39064 20.1234 8.82888 20.2372 8.55867 20.6496C8.28846 21.062 8.40224 21.6238 8.81466 21.894C9.22709 22.1642 9.78884 22.0504 10.0591 21.638C10.3364 21.2256 10.2226 20.6638 9.80306 20.3936Z" fill="#0033AD"/>
<path d="M13.9929 23.8282C13.5876 23.8068 13.2392 24.1197 13.2107 24.525C13.1823 24.9304 13.5023 25.2788 13.9076 25.3072C14.3129 25.3286 14.6613 25.0228 14.6898 24.6175C14.7111 24.205 14.3982 23.8566 13.9929 23.8282Z" fill="#0033AD"/>
<path d="M13.9999 19.1846C13.4168 19.149 12.9191 19.597 12.8907 20.1801C12.8551 20.7632 13.3031 21.2609 13.8862 21.2894C14.4692 21.3178 14.967 20.877 14.9954 20.2939C15.031 19.7179 14.583 19.213 13.9999 19.1846Z" fill="#0033AD"/>
<path d="M18.3165 20.3223C17.8756 20.5499 17.6978 21.0903 17.9254 21.5312C18.1529 21.972 18.6933 22.1498 19.1342 21.9223C19.5751 21.7018 19.7529 21.1614 19.5324 20.7205C19.3049 20.2797 18.7645 20.0948 18.3165 20.3223Z" fill="#0033AD"/>
</svg>
