<svg width="51" height="51" viewBox="0 0 51 51" fill="none" xmlns="http://www.w3.org/2000/svg">
<g clip-path="url(#clip0_630_2609)">
<path d="M44.2577 18.5888L20.4813 42.3655C19.4066 43.4398 17.6646 43.4398 16.5903 42.3655L2.5987 28.3738C1.52439 27.2991 1.52439 25.5571 2.5987 24.4828L26.375 0.706119C27.4497 -0.368185 29.1917 -0.368185 30.266 0.706119L44.2577 14.6978C45.3324 15.7721 45.3324 17.5144 44.2577 18.5888Z" fill="#5ED5A8"/>
<path d="M44.2574 14.6975L42.5115 12.9512C43.4683 13.908 43.3725 15.5546 42.2982 16.6289L18.5215 40.4057C17.4472 41.4803 15.8005 41.5757 14.8438 40.6189L16.59 42.3652C17.6643 43.4395 19.4063 43.4395 20.481 42.3652L44.2574 18.5884C45.3321 17.5141 45.3321 15.7718 44.2574 14.6975Z" fill="#459D7C"/>
<path d="M7.17109 27.3954C6.97966 27.3954 6.78861 27.3222 6.6427 27.1763C6.35087 26.8845 6.35087 26.4117 6.6427 26.1199L18.2888 14.4738C18.5807 14.1819 19.0538 14.1819 19.3453 14.4738C19.6371 14.7656 19.6371 15.2387 19.3453 15.5302L7.6991 27.1767C7.55319 27.3222 7.36214 27.3954 7.17109 27.3954Z" fill="#1B232A"/>
<path d="M10.8723 31.0965C10.6808 31.0965 10.4898 31.0234 10.3439 30.8775C10.052 30.5856 10.052 30.1129 10.3439 29.8211L21.99 18.1749C22.2818 17.8831 22.755 17.8831 23.0464 18.1749C23.3382 18.4667 23.3382 18.9399 23.0464 19.2313L11.4003 30.8775C11.2544 31.0234 11.0633 31.0965 10.8723 31.0965Z" fill="#1B232A"/>
<path d="M25.9876 6.12543L23.6577 8.45497C22.7417 9.37091 22.7417 10.8557 23.6577 11.7717C24.5736 12.6876 26.0588 12.6876 26.9747 11.7717L29.3043 9.44212C30.2202 8.52618 30.2202 7.04137 29.3043 6.12543C28.3883 5.20949 26.9031 5.20949 25.9876 6.12543Z" fill="#FFCD34"/>
<path d="M46.5035 25.6104H12.8783C11.3588 25.6104 10.127 26.8422 10.127 28.3617V48.149C10.127 49.6684 11.3588 50.9003 12.8783 50.9003H46.5035C48.0233 50.9003 49.2548 49.6684 49.2548 48.149V28.3617C49.2552 26.8422 48.0233 25.6104 46.5035 25.6104Z" fill="#5ED5A8"/>
<path d="M46.5036 25.6104H44.041C45.5605 25.6104 46.7923 26.8422 46.7923 28.3617V48.149C46.7923 49.6684 45.5605 50.9003 44.041 50.9003H46.5036C48.0235 50.9003 49.255 49.6684 49.255 48.149V28.3617C49.2554 26.8422 48.0235 25.6104 46.5036 25.6104Z" fill="#459D7C"/>
<path d="M10.127 31.8271H49.2552V36.5808H10.127V31.8271Z" fill="#1B232A"/>
<path d="M46.791 31.8271H49.2536V36.5808H46.791V31.8271Z" fill="#090C0E"/>
<path d="M39.6367 44.1761V47.108C39.6367 47.3348 39.8204 47.5185 40.0472 47.5185H44.7106C44.9374 47.5185 45.1211 47.3348 45.1211 47.108V44.1761C45.1211 43.9493 44.9374 43.7656 44.7106 43.7656H40.0472C39.8204 43.7656 39.6367 43.9493 39.6367 44.1761Z" fill="#FFCD34"/>
<path d="M25.5762 44.1761V47.108C25.5762 47.3348 25.7602 47.5185 25.9867 47.5185H35.8504C36.0772 47.5185 36.2609 47.3348 36.2609 47.108V44.1761C36.2609 43.9493 36.0772 43.7656 35.8504 43.7656H25.9867C25.7602 43.7656 25.5762 43.9493 25.5762 44.1761Z" fill="#FFCD34"/>
<path d="M21.5555 48.2656H16.6416C16.2288 48.2656 15.8945 47.931 15.8945 47.5186C15.8945 47.1057 16.2288 46.7715 16.6416 46.7715H21.5555C21.9684 46.7715 22.3026 47.1057 22.3026 47.5186C22.3026 47.931 21.9684 48.2656 21.5555 48.2656Z" fill="#1B232A"/>
</g>
<defs>
<clipPath id="clip0_630_2609">
<rect width="51" height="51" fill="white"/>
</clipPath>
</defs>
</svg>
