<svg width="44" height="44" viewBox="0 0 44 44" fill="none" xmlns="http://www.w3.org/2000/svg">
<path opacity="0.4" d="M19.99 27.98C24.4028 27.98 27.98 24.4028 27.98 19.99C27.98 15.5772 24.4028 12 19.99 12C15.5772 12 12 15.5772 12 19.99C12 24.4028 15.5772 27.98 19.99 27.98Z" fill="#777777"/>
<path d="M31.9701 25.9901C31.9701 29.2901 29.2901 31.9701 25.9901 31.9701C23.9501 31.9701 22.1601 30.9501 21.0801 29.4001C25.4401 28.9101 28.9101 25.4401 29.4001 21.0801C30.9501 22.1601 31.9701 23.9501 31.9701 25.9901Z" fill="#777777"/>
<path d="M21.45 19.7102L19.05 18.8702C18.81 18.7902 18.76 18.7702 18.76 18.4202C18.76 18.1602 18.94 17.9502 19.17 17.9502H20.67C20.99 17.9502 21.25 18.2402 21.25 18.6002C21.25 19.0102 21.59 19.3502 22 19.3502C22.41 19.3502 22.75 19.0102 22.75 18.6002C22.75 17.4502 21.86 16.5102 20.75 16.4602V16.4102C20.75 16.0002 20.41 15.6602 20 15.6602C19.59 15.6602 19.25 15.9902 19.25 16.4102V16.4602H19.16C18.11 16.4602 17.25 17.3402 17.25 18.4302C17.25 19.3802 17.67 19.9902 18.54 20.2902L20.95 21.1302C21.19 21.2102 21.24 21.2302 21.24 21.5802C21.24 21.8402 21.06 22.0502 20.83 22.0502H19.33C19.01 22.0502 18.75 21.7602 18.75 21.4002C18.75 20.9902 18.41 20.6502 18 20.6502C17.59 20.6502 17.25 20.9902 17.25 21.4002C17.25 22.5502 18.14 23.4902 19.25 23.5402V23.6002C19.25 24.0102 19.59 24.3502 20 24.3502C20.41 24.3502 20.75 24.0102 20.75 23.6002V23.5502H20.84C21.89 23.5502 22.75 22.6702 22.75 21.5802C22.75 20.6302 22.32 20.0202 21.45 19.7102Z" fill="#777777"/>
</svg>
