<svg width="16" height="16" viewBox="0 0 16 16" fill="none" xmlns="http://www.w3.org/2000/svg">
<path fill-rule="evenodd" clip-rule="evenodd" d="M0.833888 8.08529C1.15472 8.40521 1.58932 8.58491 2.04241 8.58491C2.4955 8.58491 2.9301 8.40521 3.25093 8.08529L8.08627 3.24995C8.40619 2.92912 8.58589 2.49452 8.58589 2.04143C8.58589 1.58834 8.40619 1.15375 8.08627 0.832912C7.76541 0.51279 7.33067 0.333008 6.87743 0.333008C6.42418 0.333008 5.98945 0.51279 5.66858 0.832912L0.833888 5.66761C0.513766 5.98847 0.333984 6.4232 0.333984 6.87645C0.333984 7.3297 0.513766 7.76443 0.833888 8.08529ZM7.58309 12.4167L12.4178 7.58198C12.7387 7.26185 13.1734 7.08207 13.6267 7.08207C14.0799 7.08207 14.5146 7.26185 14.8355 7.58198C15.1556 7.90285 15.3354 8.33758 15.3354 8.79083C15.3354 9.24407 15.1556 9.67881 14.8355 9.99967L10.0008 14.8344C9.67991 15.1545 9.24518 15.3343 8.79193 15.3343C8.33868 15.3343 7.90395 15.1545 7.58309 14.8344C7.26295 14.5135 7.08317 14.0788 7.08317 13.6256C7.08317 13.1723 7.26295 12.7376 7.58309 12.4167ZM7.22925 10.1459C6.77605 10.1459 6.34127 9.96607 6.02045 9.64594C5.70032 9.32507 5.52053 8.89034 5.52053 8.43709C5.52053 7.98385 5.70032 7.54911 6.02045 7.22825L7.22925 6.01945C7.55011 5.69932 7.98485 5.51953 8.43809 5.51953C8.89134 5.51953 9.32607 5.69932 9.64694 6.01945C9.96707 6.34027 10.1469 6.77505 10.1469 7.22825C10.1469 7.6815 9.96707 8.11623 9.64694 8.43709L8.43809 9.64594C8.11723 9.96607 7.6825 10.1459 7.22925 10.1459Z" fill="white"/>
</svg>
