<svg width="97" height="136" viewBox="0 0 97 136" fill="none" xmlns="http://www.w3.org/2000/svg">
<path d="M97.0003 130.27C97.0003 131.099 95.5081 131.889 92.8264 132.6C88.7882 133.67 82.0631 134.562 73.6771 135.169C71.8406 135.301 69.9224 135.419 67.938 135.517C66.6813 135.582 65.3966 135.64 64.0842 135.691C59.2008 135.887 53.966 135.993 48.5226 135.993H48.4983C45.0879 135.993 41.7592 135.951 38.5471 135.873C34.5976 135.776 30.8237 135.621 27.2916 135.418C25.8273 135.334 24.4058 135.241 23.0273 135.139C22.2563 135.084 21.5027 135.026 20.7665 134.965C16.4569 134.618 12.6587 134.174 9.53008 133.677C8.73009 133.548 7.97647 133.416 7.26923 133.282C6.11621 133.063 5.08491 132.833 4.18753 132.595C1.50061 131.884 0.0136719 131.094 0.0136719 130.265C0.0136719 127.812 13.057 125.72 31.3855 124.901L33.4254 124.816C38.1749 124.642 43.2462 124.534 48.5139 124.534C49.3452 124.534 50.1707 124.534 50.9904 124.534C52.7678 124.545 54.5179 124.566 56.2408 124.599C61.7712 124.705 66.9885 124.919 71.7276 125.226C72.3919 125.268 73.0464 125.312 73.691 125.359C87.6613 126.376 97.0003 128.193 97.0003 130.27Z" fill="#CEEAE9"/>
<path d="M92.8212 132.6C88.7882 133.67 82.0631 134.562 73.6771 135.169C71.8406 135.301 69.9223 135.42 67.938 135.517C66.6812 135.582 65.3966 135.64 64.0841 135.691C59.2007 135.887 53.966 135.993 48.5226 135.993H48.4983C45.0879 135.993 41.7592 135.952 38.5471 135.873C34.5976 135.776 30.8237 135.621 27.2916 135.418C25.8272 135.334 24.4058 135.242 23.0273 135.14C22.2563 135.084 21.5026 135.026 20.7664 134.966C16.4569 134.618 12.6587 134.174 9.53004 133.677C8.73005 133.548 7.97644 133.417 7.2692 133.282C6.11617 133.063 5.08488 132.834 4.1875 132.595C9.43961 131.204 19.2499 130.105 31.3802 129.562L33.4202 129.477C38.1697 129.303 43.2409 129.195 48.5087 129.195C49.34 129.195 50.1655 129.195 50.9852 129.195C52.7626 129.206 54.5127 129.227 56.2355 129.26C61.7659 129.366 66.9832 129.58 71.7223 129.887C72.3867 129.929 73.0411 129.973 73.6858 130.02C82.0631 130.635 88.7882 131.531 92.8212 132.6Z" fill="#364E4C"/>
<path d="M0 5.8955C0 5.06594 1.49215 4.27638 4.17386 3.56509C8.21207 2.49554 14.9337 1.5999 23.3232 0.998166C25.1597 0.865993 27.0779 0.747734 29.0622 0.650344C30.319 0.586577 31.6037 0.528606 32.9161 0.476433C37.7995 0.279914 43.0342 0.173828 48.4777 0.173828H48.4985C51.9089 0.173828 55.2376 0.215567 58.4497 0.293827C62.3992 0.391217 66.1731 0.545997 69.7052 0.749473C71.1695 0.83295 72.591 0.925702 73.9695 1.02773C74.7394 1.08338 75.493 1.14135 76.2304 1.20164C80.5399 1.54946 84.3381 1.99294 87.4667 2.49032C88.2667 2.61901 89.0203 2.75061 89.7276 2.8851C90.8806 3.10423 91.9119 3.33379 92.8093 3.57205C95.4962 4.28334 96.9831 5.0729 96.9831 5.90245C96.9831 8.3546 83.9398 10.4467 65.6114 11.2659L63.5714 11.3511C58.8219 11.5337 53.7506 11.6328 48.4829 11.6328C47.6516 11.6328 46.8261 11.6328 46.0064 11.6328C44.229 11.6224 42.4789 11.6009 40.756 11.5685C35.2257 11.4624 30.0083 11.2485 25.2779 10.9406C24.6136 10.8989 23.9591 10.8549 23.3145 10.8085C9.33901 9.78936 0 7.97199 0 5.8955Z" fill="#CEEAE9"/>
<path d="M4.17969 3.56509C8.21268 2.49554 14.9343 1.5999 23.3238 0.998166C25.1603 0.865993 27.0785 0.747734 29.0629 0.650344C30.3197 0.586577 31.6043 0.528606 32.9167 0.476433C37.8001 0.279914 43.0349 0.173828 48.4783 0.173828H48.4991C51.9095 0.173828 55.2382 0.215567 58.4503 0.293827C62.3998 0.391217 66.1737 0.545997 69.7058 0.749473C71.1702 0.83295 72.5916 0.925702 73.9701 1.02773C74.74 1.08338 75.4936 1.14135 76.231 1.20164C80.5405 1.54946 84.3387 1.99294 87.4673 2.49032C88.2673 2.61902 89.021 2.75061 89.7282 2.8851C90.8812 3.10423 91.9125 3.33379 92.8099 3.57205C87.5578 4.96333 77.7475 6.06245 65.6172 6.60505L63.5772 6.69027C58.8277 6.86418 53.7565 6.972 48.4887 6.972C47.6574 6.972 46.8319 6.972 46.0122 6.972C44.2348 6.96157 42.4847 6.94012 40.7618 6.90766C35.2315 6.80157 30.0141 6.58766 25.2838 6.27984C24.6194 6.2381 23.9649 6.19404 23.3203 6.14767C14.9343 5.53028 8.21268 4.63464 4.17969 3.56509Z" fill="#364E4C"/>
<path d="M14.9028 20.3896H12.6367V25.6783H14.9028V20.3896Z" fill="url(#paint0_linear_217_8950)"/>
<path d="M69.6723 36.9404H67.4062V42.2291H69.6723V36.9404Z" fill="url(#paint1_linear_217_8950)"/>
<path d="M2.56193 24.4453H1.25586V27.4922H2.56193V24.4453Z" fill="url(#paint2_linear_217_8950)"/>
<path d="M15.5561 55.1074H14.25V58.1543H15.5561V55.1074Z" fill="url(#paint3_linear_217_8950)"/>
<path d="M71.4604 18.8662H70.1543V21.9131H71.4604V18.8662Z" fill="url(#paint4_linear_217_8950)"/>
<path d="M84.6576 37.4971H83.3516V40.544H84.6576V37.4971Z" fill="url(#paint5_linear_217_8950)"/>
<path d="M81.5482 58.7227H80.2422V61.7696H81.5482V58.7227Z" fill="url(#paint6_linear_217_8950)"/>
<path d="M38.5485 132.6V135.88C34.599 135.783 30.8251 135.628 27.293 135.424V132.449H29.7155V127.991H31.3764V122.628H33.4164V129.049H35.5763V132.6H38.5485Z" fill="url(#paint7_linear_217_8950)"/>
<path d="M64.083 132.903V135.698C59.1996 135.894 53.9649 136 48.5215 136V132.146H50.2606V128.219H52.151V126.632H53.4362V125.122H50.9771V121.042H52.7527V122.628H54.1127V118.02H56.2275V125.726H58.4118V127.539H59.9213V130.108H57.8901V131.468H62.5752V132.903H64.083Z" fill="url(#paint8_linear_217_8950)"/>
<path d="M73.6785 123.309V135.169C71.842 135.301 69.9238 135.42 67.9395 135.517V132.369H69.7516V127.804H71.7168V123.309H73.6785Z" fill="url(#paint9_linear_217_8950)"/>
<path d="M23.0284 131.632V135.147C22.2574 135.091 21.5038 135.033 20.7676 134.973V131.634L23.0284 131.632Z" fill="url(#paint10_linear_217_8950)"/>
<path d="M48.9731 117.503H46.707V122.792H48.9731V117.503Z" fill="url(#paint11_linear_217_8950)"/>
<path d="M68.5395 119.745H66.2734V125.034H68.5395V119.745Z" fill="url(#paint12_linear_217_8950)"/>
<path d="M83.1625 116.496H80.8965V121.785H83.1625V116.496Z" fill="url(#paint13_linear_217_8950)"/>
<path d="M24.7582 1.46973H22.4922V6.75836H24.7582V1.46973Z" fill="url(#paint14_linear_217_8950)"/>
<path d="M39.8793 9.87598H37.6133V15.1646H39.8793V9.87598Z" fill="url(#paint15_linear_217_8950)"/>
<path d="M85.1391 7.23242H82.873V12.5211H85.1391V7.23242Z" fill="url(#paint16_linear_217_8950)"/>
<path d="M9.52647 129.729V133.682C8.72648 133.553 7.97286 133.421 7.26562 133.287V129.729H9.52647Z" fill="url(#paint17_linear_217_8950)"/>
<path d="M23.6269 124.537H21.8965V128.574H23.6269V124.537Z" fill="url(#paint18_linear_217_8950)"/>
<path d="M57.9428 1.06641H56.6367V4.11332H57.9428V1.06641Z" fill="url(#paint19_linear_217_8950)"/>
<path d="M62.0424 122.388H60.7363V125.435H62.0424V122.388Z" fill="url(#paint20_linear_217_8950)"/>
<path d="M17.1684 110.39H14.9023V115.678H17.1684V110.39Z" fill="#6FC3A0"/>
<path d="M89.1293 93.166H86.8633V98.4547H89.1293V93.166Z" fill="#6FC3A0"/>
<path d="M6.44184 42.7021H4.17578V47.9908H6.44184V42.7021Z" fill="#6FC3A0"/>
<path d="M6.44184 116.508H4.17578V121.796H6.44184V116.508Z" fill="#6FC3A0"/>
<path d="M29.4643 117.102H28.1582V120.148H29.4643V117.102Z" fill="#6FC3A0"/>
<path d="M53.6576 111.976H52.3516V115.023H53.6576V111.976Z" fill="#6FC3A0"/>
<path d="M85.31 100.776H84.0039V103.823H85.31V100.776Z" fill="#6FC3A0"/>
<path d="M29.3694 45.5195C29.3694 45.5195 27.865 45.4413 28.7885 48.9595C29.712 52.4777 29.3485 52.9281 25.2807 56.669C21.2129 60.4098 14.9574 63.0393 15.9904 70.7558C17.0234 78.4722 64.4611 95.545 73.3688 88.1799C82.2765 80.8148 83.1895 74.5627 81.5426 68.3975C79.8957 62.2324 70.1584 61.0115 69.2523 54.709C68.3463 48.4065 65.2211 50.0917 63.1568 48.9699C61.0924 47.8482 61.7498 47.036 61.3603 44.6326C60.9707 42.2292 56.536 32.2223 54.8282 31.2415C53.1204 30.2606 36.804 29.3754 34.4806 34.4188C32.1571 39.4622 29.3694 45.5195 29.3694 45.5195Z" fill="url(#paint21_linear_217_8950)"/>
<path d="M57.8759 51.0016C57.8638 53.2624 57.7925 54.9146 57.702 55.205C57.3542 56.2815 55.662 57.8137 50.7334 59.5111C50.5925 59.5597 50.4447 59.6067 50.2934 59.6537C45.1596 61.2275 34.424 61.511 34.6988 60.1337C34.7394 59.6919 34.7458 59.2477 34.718 58.805C34.6797 57.4415 34.544 55.2207 34.3701 52.7424C34.2693 51.2885 34.1545 49.7442 34.0397 48.2347C33.6658 43.3008 33.2762 38.7183 33.2762 38.7183C33.2762 38.7183 32.7058 37.6313 35.6814 35.7235C36.8988 34.9444 38.7023 34.0296 41.3787 32.9949C49.163 29.9862 52.6395 31.487 54.8307 32.7096C55.2377 32.9375 55.6012 33.1566 55.9403 33.334C56.942 33.8557 57.4655 38.407 57.7038 43.2208C57.8429 45.9564 57.8898 48.779 57.8759 51.0016Z" fill="#F7AC86"/>
<path d="M34.0436 48.2338C33.6697 43.3 33.2801 38.7174 33.2801 38.7174C33.2801 38.7174 32.7097 37.6305 35.6853 35.7227C35.6853 35.7227 36.2558 45.9538 34.0436 48.2338Z" fill="url(#paint22_linear_217_8950)"/>
<path d="M57.7148 43.2202C55.2331 41.4445 54.8853 35.0342 54.8418 32.709C55.2487 32.9368 55.6122 33.1559 55.9513 33.3333C56.9444 33.8672 57.4678 38.4063 57.7148 43.2202Z" fill="url(#paint23_linear_217_8950)"/>
<path d="M33.4654 40.9682C33.4654 40.9682 31.069 40.3978 29.7855 42.4743C28.502 44.5508 29.382 48.8829 34.0985 48.9646L33.4811 41.156L33.4654 40.9682Z" fill="#F7AC86"/>
<path d="M33.6452 43.2204C33.3676 43.0104 33.0467 42.8651 32.7058 42.795C32.3649 42.7249 32.0127 42.7318 31.6748 42.8152C30.4661 43.0795 30.6174 44.6273 30.6174 44.6273C30.6174 44.6273 31.313 43.0378 33.7478 44.436L33.6452 43.2204Z" fill="#D27358"/>
<path d="M57.2891 37.9646C57.2891 37.9646 58.1586 36.789 60.0716 37.2429C61.9847 37.6968 62.6681 43.1002 57.7725 44.9315L57.2891 37.9646Z" fill="#F7AC86"/>
<path d="M57.4434 40.1607C57.4434 40.1607 58.0938 38.9137 59.2851 39.0268C60.4764 39.1398 60.219 40.3311 60.219 40.3311C60.219 40.3311 59.6468 39.5659 58.8433 40.3311C58.0399 41.0963 57.5842 41.6337 57.5842 41.6337L57.4434 40.1607Z" fill="#D27358"/>
<path d="M37.8684 39.5279C37.8684 39.5279 38.4353 37.6149 40.0579 37.1384C41.6805 36.6619 42.1362 37.6845 41.5692 37.9645C41.0023 38.2445 39.4544 39.1506 38.7745 39.754C38.0945 40.3575 37.5971 40.1679 37.8684 39.5279Z" fill="url(#paint24_linear_217_8950)"/>
<path d="M53.9201 37.0118C53.9201 37.0118 52.9392 35.6936 51.5027 35.7231C50.0662 35.7527 50.2575 36.9144 50.7479 37.0118C51.2384 37.1092 51.9566 36.8657 52.7879 37.1388C53.6192 37.4118 53.9966 37.4814 53.9201 37.0118Z" fill="url(#paint25_linear_217_8950)"/>
<path d="M41.2979 45.3462C41.5649 45.3462 41.7814 44.7661 41.7814 44.0505C41.7814 43.335 41.5649 42.7549 41.2979 42.7549C41.0309 42.7549 40.8145 43.335 40.8145 44.0505C40.8145 44.7661 41.0309 45.3462 41.2979 45.3462Z" fill="#08080E"/>
<path d="M46.4121 39.0205C46.4121 39.0205 49.7738 47.876 49.0573 49.1978C48.3408 50.5195 47.666 49.8778 47.2817 48.4813C46.8973 47.0848 46.4121 39.0205 46.4121 39.0205Z" fill="#D27358"/>
<path d="M40.8551 47.46H38.0499C37.634 47.46 37.2969 47.7967 37.2969 48.2121C37.2969 48.6275 37.634 48.9643 38.0499 48.9643H40.8551C41.271 48.9643 41.6081 48.6275 41.6081 48.2121C41.6081 47.7967 41.271 47.46 40.8551 47.46Z" fill="#EC7571"/>
<path d="M54.8053 46.1027L52.0286 46.5014C51.6169 46.5605 51.3311 46.9417 51.3901 47.3529C51.4491 47.7641 51.8307 48.0495 52.2424 47.9904L55.0191 47.5918C55.4308 47.5327 55.7166 47.1514 55.6576 46.7403C55.5986 46.3291 55.217 46.0436 54.8053 46.1027Z" fill="#EC7571"/>
<path d="M60.0151 33.6741C60.0151 33.6741 50.6952 28.6794 41.7319 31.2393C32.7685 33.7993 31.8415 40.9783 31.8415 40.9783C31.8415 40.9783 26.9912 38.6288 25.6312 33.9697C24.2712 29.3107 26.9373 23.589 32.1772 22.5125C34.5024 22.0342 36.4432 22.1264 38.1789 22.1125C39.791 22.1003 41.2258 21.9977 42.631 21.2673C43.1618 20.9893 43.656 20.6464 44.1023 20.2464C47.5022 17.243 49.6848 15.77 53.523 15.883C57.3612 15.996 67.0881 20.5316 60.0151 33.6741Z" fill="#6FC3A0"/>
<path d="M73.3666 98.9829C73.3666 100.119 73.3353 102.774 73.2953 105.679C73.2275 110.684 73.1353 116.433 73.1353 116.433L70.7232 117.264L70.6484 113.786L68.3058 114.164V110.767L65.2832 110.844V116.061H62.4137V113.487H60.0781V117.567H57.2833V108.578H53.6573V105.866H50.4834V109.258H47.3113V114.475H44.8191V112.736H42.6279V123.16H39.6053V121.421H37.2975V123.915H35.0732V116.51H32.8019V111.372H30.9932V107.595H32.3532V103.138H29.9359V101.171H27.8211V113.484H24.9498V106.084H23.0612V102.487L17.9238 65.7538L18.2003 65.6199C19.5795 64.9625 25.7603 62.046 28.7846 61.1921C32.2019 60.2286 60.6102 56.3139 66.1371 59.5034C69.751 61.5904 71.7353 76.5363 72.6727 87.4805C73.1684 93.2543 73.3666 97.9134 73.3666 98.9829Z" fill="#6FC3A0"/>
<path d="M30.2584 60.4754C30.2584 60.4754 29.0863 60.4754 28.8028 61.6076C28.5193 62.7397 31.6288 65.171 39.9087 65.6927C48.1886 66.2145 56.552 63.7101 60.0146 61.6128C63.4771 59.5154 63.3641 57.5902 62.9711 57.0233C62.578 56.4563 61.1015 56.6754 61.1015 56.6754C61.1015 56.6754 42.2374 64.0423 37.6409 63.1919C33.0445 62.3415 30.2584 60.4754 30.2584 60.4754Z" fill="white"/>
<path d="M57.8749 51.001C57.8628 53.2618 57.7915 54.914 57.701 55.2044C57.3532 56.2809 55.661 57.8131 50.7324 59.5104C50.5915 59.5591 50.4437 59.6061 50.2924 59.653C46.1359 60.0165 41.8108 60.3226 39.8004 60.2287C38.023 60.1259 36.2889 59.6401 34.717 58.8044C34.6787 57.4409 34.5431 55.2201 34.3691 52.7418C34.3691 52.7418 35.4283 57.5922 40.3586 58.1557C45.289 58.7191 53.9237 57.2444 53.9237 57.2444C53.9237 57.2444 56.6228 54.547 57.8749 51.001Z" fill="#EC7571"/>
<path d="M59.7172 36.0063C59.5642 36.6863 59.4077 37.1437 59.4077 37.1437C57.7538 37.1019 57.2894 37.9645 57.2894 37.9645L57.1155 36.7472C56.9416 35.5298 52.6304 32.2446 44.1331 33.7542C35.6358 35.2637 33.4254 40.5558 33.4254 40.5558L33.4602 40.9749C32.9762 40.8792 32.4781 40.8792 31.9941 40.9749C31.9384 40.9836 31.8984 40.9923 31.8758 40.9975H31.8567L31.8376 40.9854C31.7489 40.9245 31.3593 40.6028 30.7645 39.3471C30.0845 37.9124 29.7072 34.8515 32.1732 32.2829C34.6393 29.7142 42.587 27.0325 48.933 26.9577C55.279 26.8829 58.0355 29.3368 59.4042 31.2411C60.3137 32.4933 60.0198 34.6759 59.7172 36.0063Z" fill="#FABC68"/>
<path d="M59.7177 36.0068C59.1611 35.9181 58.7611 35.7459 58.8481 35.4311C59.0864 34.525 59.0637 33.3337 57.2933 33.3337C55.5229 33.3337 56.4012 32.3146 56.0029 30.7251C55.6047 29.1355 53.9073 29.6486 52.6603 30.5512C51.4134 31.4538 49.8778 30.7773 48.4674 29.1912C47.0569 27.6051 44.3248 28.5756 43.6413 30.3894C42.9579 32.2033 41.4396 32.1459 38.7718 31.7494C36.104 31.3529 35.2032 32.5425 34.4901 34.412C33.7771 36.2815 32.9962 35.6068 32.151 36.5389C31.3058 37.4711 31.405 37.9806 32.1719 39.4537C32.758 40.5824 32.2606 40.8832 31.998 40.9632C31.9593 40.974 31.9197 40.9816 31.8797 40.9858H31.8606L31.8415 40.9737C31.7528 40.9128 31.3632 40.5911 30.7684 39.3354C30.0885 37.9007 29.7111 34.8398 32.1771 32.2712C34.6432 29.7025 42.5909 27.0208 48.9369 26.946C55.2829 26.8712 58.0394 29.3251 59.4081 31.2294C60.3142 32.4938 60.0203 34.6763 59.7177 36.0068Z" fill="#CEEAE9"/>
<path opacity="0.4" d="M36.8453 88.8721C36.5636 89.8912 33.2176 96.2303 29.9359 101.698V101.176H27.8211V105.098C26.7255 106.788 25.722 108.201 24.9498 109.065V106.084H23.0612V102.488L17.9238 65.7541L18.2003 65.6202C21.6194 65.3263 25.6124 66.2428 27.0472 71.5088C29.7411 81.3991 33.1602 78.7487 34.0975 80.0305C35.0349 81.3122 37.2958 87.2408 36.8453 88.8721Z" fill="#364E4C"/>
<path opacity="0.4" d="M42.6304 21.2676C42.6304 21.2676 38.3782 24.8901 34.8652 25.9632C34.8652 25.9632 36.98 24.4884 38.1782 22.1076C39.7904 22.1006 41.2252 21.998 42.6304 21.2676Z" fill="#364E4C"/>
<path d="M32.4872 55.9406C32.4872 55.9406 36.5097 58.3162 46.8783 56.6745C57.2469 55.0328 57.1947 52.772 59.1721 52.7424C61.1494 52.7128 62.0085 55.885 61.5251 57.6936C61.0416 59.5023 58.9164 61.7162 51.3669 63.4727C43.8175 65.2292 36.8993 64.6622 34.0993 63.4727C31.2994 62.2831 30.1846 62.5631 30.2594 60.4762C30.3342 58.3893 31.1272 54.8641 32.4872 55.9406Z" fill="#CEEAE9"/>
<path d="M36.2819 61.6067C37.033 61.6067 37.6418 60.9978 37.6418 60.2467C37.6418 59.4956 37.033 58.8867 36.2819 58.8867C35.5308 58.8867 34.9219 59.4956 34.9219 60.2467C34.9219 60.9978 35.5308 61.6067 36.2819 61.6067Z" fill="#FABC68"/>
<path d="M34.3013 91.5799C32.2613 94.5259 24.3257 105.345 15.0372 104.781C5.74858 104.218 8.40768 83.8739 10.9016 77.7557C11.7937 75.5644 12.7085 73.3958 13.6441 71.5193C15.3224 68.1576 17.0702 65.728 18.8876 65.7576C18.8876 65.7576 23.0805 64.1611 24.3831 71.4132C25.6857 78.6653 24.3831 82.9139 24.3831 82.9139C24.3831 82.9139 30.7291 81.0444 31.9761 80.8739C33.223 80.7035 34.5256 82.5174 34.9795 83.82C35.4334 85.1226 36.3412 88.6338 34.3013 91.5799Z" fill="#6FC3A0"/>
<path d="M24.3842 82.9097C24.3842 82.9097 24.9512 81.9463 22.5147 81.8889C20.0782 81.8315 14.0157 83.8732 10.2766 86.6488C6.53749 89.4244 7.71486 92.4748 7.71486 92.4748C7.71486 92.4748 14.1913 82.8871 24.3842 82.9097Z" fill="#CEEAE9"/>
<path d="M24.3844 82.9107C24.3844 82.9107 23.8749 81.6638 18.8315 83.4203C13.788 85.1768 8.97245 89.4828 7.95333 91.8063C6.93421 94.1297 8.39333 95.2584 8.39333 95.2584C8.39333 95.2584 12.4333 88.8567 14.4124 87.0429C16.3915 85.229 21.2679 82.9107 24.3844 82.9107Z" fill="white"/>
<path d="M47.8398 65.3457C47.8398 65.3457 52.3337 87.6063 50.4833 109.256" stroke="#364E4C" stroke-width="0.5" stroke-miterlimit="10"/>
<path opacity="0.4" d="M73.3689 98.9829C73.3689 100.119 73.3376 102.774 73.2976 105.678C65.3847 101.962 59.0195 88.8717 59.0195 88.8717C62.3343 78.7501 70.2663 85.2196 72.6681 87.4804C73.1707 93.2543 73.3689 97.9133 73.3689 98.9829Z" fill="#364E4C"/>
<path d="M24.3835 82.9102C24.3835 82.9102 11.7507 85.5188 9.05851 97.9517C9.05851 97.9517 6.93332 96.0544 10.2759 90.8423C13.6185 85.6301 20.8705 82.4563 24.3835 82.9102Z" fill="#CEEAE9"/>
<path d="M19.4553 73.5626C19.2814 75.0356 18.7753 78.0373 17.7562 78.3781C16.9614 78.6425 12.6988 78.4599 10.9023 77.7521C11.7945 75.5608 12.7093 73.3921 13.6449 71.5156C13.6449 71.5156 16.1631 71.9261 17.6362 71.9261C19.1092 71.9261 19.6292 72.0895 19.4553 73.5626Z" fill="#CEEAE9"/>
<path d="M15.9901 76.1434C16.4464 76.1434 16.8162 75.7735 16.8162 75.3173C16.8162 74.8611 16.4464 74.4912 15.9901 74.4912C15.5339 74.4912 15.1641 74.8611 15.1641 75.3173C15.1641 75.7735 15.5339 76.1434 15.9901 76.1434Z" fill="white"/>
<path d="M79.4189 91.4324C76.925 102.613 73.1477 102.99 67.1791 96.6497C61.2104 90.3089 64.4556 76.9334 63.9321 71.5178C63.4087 66.1022 65.6713 59.4814 65.6713 59.4814C68.033 59.5423 70.2834 61.0275 72.2694 63.3892C73.5315 64.9314 74.6128 66.613 75.492 68.4013C79.0207 75.3804 80.8589 84.9681 79.4189 91.4324Z" fill="#6FC3A0"/>
<path opacity="0.4" d="M64.4567 66.54C64.4567 66.54 68.994 70.0409 70.9575 72.8408C72.921 75.6408 73.3679 80.8512 73.3679 80.8512C73.3679 80.8512 65.8897 74.9591 62.4898 74.1278C59.0898 73.2965 64.4567 66.54 64.4567 66.54Z" fill="#364E4C"/>
<path d="M64.4561 66.5399V94.0179C64.4561 94.6027 64.2237 95.1636 63.8102 95.5772C63.3966 95.9907 62.8357 96.223 62.2509 96.223H40.1503C39.5653 96.223 39.0042 95.9908 38.5904 95.5773C38.1765 95.1638 37.9438 94.6029 37.9434 94.0179V66.5399C37.9434 65.9546 38.1759 65.3933 38.5898 64.9794C39.0036 64.5655 39.565 64.333 40.1503 64.333H62.2544C62.8388 64.3344 63.3988 64.5675 63.8115 64.9812C64.2243 65.395 64.4561 65.9555 64.4561 66.5399Z" fill="#EC7571"/>
<path d="M73.3681 80.8512C73.3681 80.8512 72.4238 79.7173 74.3507 80.1243C76.2776 80.5312 78.4863 82.2304 80.2428 86.5938C81.9993 90.9572 79.6289 92.145 79.6289 92.145C79.6289 92.145 78.455 83.1556 73.3681 80.8512Z" fill="#CEEAE9"/>
<path opacity="0.4" d="M64.4561 77.2773V94.0215C64.4561 94.6063 64.2237 95.1672 63.8102 95.5808C63.3966 95.9943 62.8357 96.2267 62.2509 96.2267H40.1503C39.5653 96.2267 39.0042 95.9944 38.5904 95.5809C38.1765 95.1674 37.9438 94.6065 37.9434 94.0215V89.8476C43.1903 91.5867 49.4058 92.1676 52.8545 87.1937C56.5796 81.8077 60.6996 78.7852 64.4561 77.2773Z" fill="#364E4C"/>
<path d="M51.1971 76.1432C52.1095 76.1432 52.8492 75.4035 52.8492 74.491C52.8492 73.5786 52.1095 72.8389 51.1971 72.8389C50.2846 72.8389 49.5449 73.5786 49.5449 74.491C49.5449 75.4035 50.2846 76.1432 51.1971 76.1432Z" fill="#FABC68"/>
<path d="M75.49 68.392C74.3144 69.5989 72.344 70.6233 71.7127 70.7294C70.8066 70.8807 70.2396 70.5398 69.5214 68.5381C68.8031 66.5364 68.1614 65.7051 69.7857 64.912C70.6534 64.4699 71.4834 63.9574 72.2674 63.3799C73.5295 64.922 74.6108 66.6037 75.49 68.392Z" fill="#CEEAE9"/>
<path d="M71.3735 67.829C71.7923 67.829 72.1317 67.4895 72.1317 67.0708C72.1317 66.652 71.7923 66.3125 71.3735 66.3125C70.9547 66.3125 70.6152 66.652 70.6152 67.0708C70.6152 67.4895 70.9547 67.829 71.3735 67.829Z" fill="#EC7571"/>
<path d="M73.3675 80.851C73.3675 80.851 72.877 79.7849 75.1988 80.8371C77.5205 81.8893 80.2422 87.4996 80.2422 90.5031C80.2422 93.5065 78.8039 94.4648 78.8039 94.4648C78.8039 94.4648 78.2596 87.3344 76.5031 84.6092C74.7466 81.884 73.3675 80.851 73.3675 80.851Z" fill="white"/>
<path d="M73.3672 80.8511C73.3672 80.8511 80.061 89.9032 77.4315 97.5674C77.4315 97.5674 79.3358 96.3379 78.8819 90.7293C78.428 85.1206 74.828 80.5485 73.3672 80.8511Z" fill="#CEEAE9"/>
<path d="M63.1379 74.543C63.1379 74.543 67.7848 75.3064 67.9256 79.1881C68.0665 83.0698 65.3483 83.4941 64.3239 82.6437C63.2996 81.7933 62.7379 81.6246 62.0857 81.5394C61.4335 81.4542 60.924 81.0855 61.6892 80.5481C62.4544 80.0107 62.9935 80.1464 62.9935 80.1464C62.9935 80.1464 61.8022 79.6038 60.8405 80.1464C59.8788 80.689 59.9518 79.2333 60.717 78.7551C61.4822 78.2768 63.1918 78.4681 63.1918 78.4681C63.1918 78.4681 63.1379 78.0594 61.6527 77.9829C60.1153 77.9046 59.3831 78.122 59.5831 77.4699C59.7831 76.8177 60.3014 76.1029 61.8022 76.2177L63.3048 76.3308C63.3048 76.3308 62.0874 75.5934 60.9535 75.6508C59.8196 75.7082 60.0283 74.6925 61.1275 74.4943C61.1361 74.4908 62.3692 74.3499 63.1379 74.543Z" fill="#F7AC86"/>
<path d="M44.1869 128.583H42.8809V131.63H44.1869V128.583Z" fill="#6FC3A0"/>
<path d="M11.4062 103.084C11.4062 103.084 21.4931 104.66 35.5799 87.1816" stroke="#364E4C" stroke-width="0.5" stroke-miterlimit="10"/>
<path d="M66.2031 82.8662C66.2031 82.8662 68.9127 102.426 76.7908 98.6921" stroke="#364E4C" stroke-width="0.5" stroke-miterlimit="10"/>
<path d="M41.2994 43.4377C41.4195 43.4377 41.5168 43.3404 41.5168 43.2203C41.5168 43.1003 41.4195 43.0029 41.2994 43.0029C41.1794 43.0029 41.082 43.1003 41.082 43.2203C41.082 43.3404 41.1794 43.4377 41.2994 43.4377Z" fill="white"/>
<path d="M52.1202 43.7729C52.3872 43.7729 52.6037 43.1928 52.6037 42.4773C52.6037 41.7617 52.3872 41.1816 52.1202 41.1816C51.8532 41.1816 51.6367 41.7617 51.6367 42.4773C51.6367 43.1928 51.8532 43.7729 52.1202 43.7729Z" fill="#08080E"/>
<path d="M52.1197 41.8654C52.2398 41.8654 52.3371 41.7681 52.3371 41.6481C52.3371 41.528 52.2398 41.4307 52.1197 41.4307C51.9997 41.4307 51.9023 41.528 51.9023 41.6481C51.9023 41.7681 51.9997 41.8654 52.1197 41.8654Z" fill="white"/>
<path d="M37.7344 79.1696C37.7344 79.1696 33.0875 79.9331 32.9467 83.8148C32.8058 87.6965 35.524 88.1208 36.5432 87.2704C37.5623 86.42 38.131 86.2513 38.7814 86.1661C39.4318 86.0808 39.9431 85.7122 39.1779 85.1748C38.4127 84.6374 37.8753 84.773 37.8753 84.773C37.8753 84.773 39.0649 84.2304 40.0283 84.773C40.9918 85.3157 40.9153 83.86 40.1518 83.3818C39.3883 82.9035 37.6771 83.0844 37.6771 83.0844C37.6771 83.0844 37.731 82.6757 39.2144 82.5992C40.7518 82.5209 41.484 82.7383 41.2857 82.0861C41.0874 81.434 40.5675 80.7209 39.0649 80.834L37.564 80.947C37.564 80.947 38.7814 80.2096 39.9153 80.267C41.0492 80.3244 40.8405 79.3088 39.7414 79.1105C39.7362 79.1175 38.5031 78.9766 37.7344 79.1696Z" fill="#F7AC86"/>
<path d="M46.597 53.5195C46.5811 53.6833 46.5123 53.8375 46.4009 53.9586C46.2894 54.0798 46.1416 54.1613 45.9796 54.1908C45.4231 54.3421 44.5344 54.2064 43.4666 54.0499C41.9153 53.8221 40.5101 53.6308 40.3449 52.883C40.3233 52.7917 40.3203 52.6971 40.3362 52.6047C40.4788 51.6186 41.9988 51.0256 43.7275 51.2778C45.4562 51.5299 46.7414 52.5317 46.597 53.5195Z" fill="url(#paint26_linear_217_8950)"/>
<path d="M45.9804 54.1865C45.4239 54.3378 44.5352 54.2022 43.4674 54.0457C41.9161 53.8178 40.5109 53.6265 40.3457 52.8787C40.9718 52.4457 42.0153 52.2474 43.1474 52.4144C44.5996 52.6265 45.7387 53.3691 45.9804 54.1865Z" fill="#EC7571"/>
<defs>
<linearGradient id="paint0_linear_217_8950" x1="13.7706" y1="26.1548" x2="13.7706" y2="19.9688" gradientUnits="userSpaceOnUse">
<stop stop-color="#44685E"/>
<stop offset="0.87" stop-color="#1B232A"/>
</linearGradient>
<linearGradient id="paint1_linear_217_8950" x1="1095.11" y1="1485.97" x2="1138.73" y2="1278.14" gradientUnits="userSpaceOnUse">
<stop stop-color="#44685E"/>
<stop offset="0.87" stop-color="#1B232A"/>
</linearGradient>
<linearGradient id="paint2_linear_217_8950" x1="95.4366" y1="597.54" x2="95.4366" y2="506.924" gradientUnits="userSpaceOnUse">
<stop stop-color="#44685E"/>
<stop offset="0.87" stop-color="#1B232A"/>
</linearGradient>
<linearGradient id="paint3_linear_217_8950" x1="206.007" y1="1163.91" x2="206.007" y2="1084.29" gradientUnits="userSpaceOnUse">
<stop stop-color="#44685E"/>
<stop offset="0.87" stop-color="#1B232A"/>
</linearGradient>
<linearGradient id="paint4_linear_217_8950" x1="681.749" y1="514.051" x2="681.749" y2="426.605" gradientUnits="userSpaceOnUse">
<stop stop-color="#44685E"/>
<stop offset="0.87" stop-color="#1B232A"/>
</linearGradient>
<linearGradient id="paint5_linear_217_8950" x1="794.064" y1="864.95" x2="794.064" y2="745.449" gradientUnits="userSpaceOnUse">
<stop stop-color="#44685E"/>
<stop offset="0.87" stop-color="#1B232A"/>
</linearGradient>
<linearGradient id="paint6_linear_217_8950" x1="767.609" y1="1237.48" x2="767.609" y2="1131.79" gradientUnits="userSpaceOnUse">
<stop stop-color="#44685E"/>
<stop offset="0.87" stop-color="#1B232A"/>
</linearGradient>
<linearGradient id="paint7_linear_217_8950" x1="32.9207" y1="135.88" x2="32.9207" y2="122.628" gradientUnits="userSpaceOnUse">
<stop stop-color="white"/>
<stop offset="0.38" stop-color="#9AD2B6"/>
<stop offset="0.99" stop-color="#5F9E85"/>
</linearGradient>
<linearGradient id="paint8_linear_217_8950" x1="6037.69" y1="14669.2" x2="6037.69" y2="12810.2" gradientUnits="userSpaceOnUse">
<stop stop-color="white"/>
<stop offset="0.38" stop-color="#9AD2B6"/>
<stop offset="0.99" stop-color="#5F9E85"/>
</linearGradient>
<linearGradient id="paint9_linear_217_8950" x1="2755.37" y1="9969.74" x2="2755.37" y2="9112.34" gradientUnits="userSpaceOnUse">
<stop stop-color="white"/>
<stop offset="0.38" stop-color="#9AD2B6"/>
<stop offset="0.99" stop-color="#5F9E85"/>
</linearGradient>
<linearGradient id="paint10_linear_217_8950" x1="443.613" y1="2958.74" x2="443.613" y2="2887.71" gradientUnits="userSpaceOnUse">
<stop stop-color="white"/>
<stop offset="0.38" stop-color="#9AD2B6"/>
<stop offset="0.99" stop-color="#5F9E85"/>
</linearGradient>
<linearGradient id="paint11_linear_217_8950" x1="808.601" y1="3995.76" x2="808.601" y2="3834.94" gradientUnits="userSpaceOnUse">
<stop stop-color="white"/>
<stop offset="0.38" stop-color="#9AD2B6"/>
<stop offset="0.99" stop-color="#5F9E85"/>
</linearGradient>
<linearGradient id="paint12_linear_217_8950" x1="1083.1" y1="4066.18" x2="1083.1" y2="3905.35" gradientUnits="userSpaceOnUse">
<stop stop-color="white"/>
<stop offset="0.38" stop-color="#9AD2B6"/>
<stop offset="0.99" stop-color="#5F9E85"/>
</linearGradient>
<linearGradient id="paint13_linear_217_8950" x1="1288.26" y1="3964.14" x2="1288.26" y2="3803.31" gradientUnits="userSpaceOnUse">
<stop stop-color="white"/>
<stop offset="0.38" stop-color="#9AD2B6"/>
<stop offset="0.99" stop-color="#5F9E85"/>
</linearGradient>
<linearGradient id="paint14_linear_217_8950" x1="468.838" y1="190.327" x2="468.838" y2="351.154" gradientUnits="userSpaceOnUse">
<stop stop-color="white"/>
<stop offset="0.38" stop-color="#9AD2B6"/>
<stop offset="0.99" stop-color="#5F9E85"/>
</linearGradient>
<linearGradient id="paint15_linear_217_8950" x1="681.015" y1="454.385" x2="681.015" y2="615.212" gradientUnits="userSpaceOnUse">
<stop stop-color="white"/>
<stop offset="0.38" stop-color="#9AD2B6"/>
<stop offset="0.99" stop-color="#5F9E85"/>
</linearGradient>
<linearGradient id="paint16_linear_217_8950" x1="1315.97" y1="371.355" x2="1315.97" y2="532.129" gradientUnits="userSpaceOnUse">
<stop stop-color="white"/>
<stop offset="0.38" stop-color="#9AD2B6"/>
<stop offset="0.99" stop-color="#5F9E85"/>
</linearGradient>
<linearGradient id="paint17_linear_217_8950" x1="254.579" y1="3276.07" x2="254.579" y2="3186.22" gradientUnits="userSpaceOnUse">
<stop stop-color="white"/>
<stop offset="0.38" stop-color="#9AD2B6"/>
<stop offset="0.99" stop-color="#5F9E85"/>
</linearGradient>
<linearGradient id="paint18_linear_217_8950" x1="354.136" y1="3218.78" x2="354.136" y2="3125.09" gradientUnits="userSpaceOnUse">
<stop stop-color="white"/>
<stop offset="0.38" stop-color="#9AD2B6"/>
<stop offset="0.99" stop-color="#5F9E85"/>
</linearGradient>
<linearGradient id="paint19_linear_217_8950" x1="566.721" y1="102.803" x2="566.721" y2="156.185" gradientUnits="userSpaceOnUse">
<stop stop-color="white"/>
<stop offset="0.38" stop-color="#9AD2B6"/>
<stop offset="0.99" stop-color="#5F9E85"/>
</linearGradient>
<linearGradient id="paint20_linear_217_8950" x1="601.62" y1="2403.07" x2="601.62" y2="2349.69" gradientUnits="userSpaceOnUse">
<stop stop-color="white"/>
<stop offset="0.38" stop-color="#9AD2B6"/>
<stop offset="0.99" stop-color="#5F9E85"/>
</linearGradient>
<linearGradient id="paint21_linear_217_8950" x1="22778.4" y1="39223.1" x2="22778.4" y2="5025.51" gradientUnits="userSpaceOnUse">
<stop stop-color="#44685E"/>
<stop offset="0.87" stop-color="#1B232A"/>
</linearGradient>
<linearGradient id="paint22_linear_217_8950" x1="685.788" y1="4118.74" x2="685.788" y2="2897.9" gradientUnits="userSpaceOnUse">
<stop stop-color="#44685E"/>
<stop offset="0.87" stop-color="#1B232A"/>
</linearGradient>
<linearGradient id="paint23_linear_217_8950" x1="1160.06" y1="3463.03" x2="1160.06" y2="2437.35" gradientUnits="userSpaceOnUse">
<stop stop-color="#44685E"/>
<stop offset="0.87" stop-color="#1B232A"/>
</linearGradient>
<linearGradient id="paint24_linear_217_8950" x1="1154.1" y1="810.582" x2="1246.5" y2="810.582" gradientUnits="userSpaceOnUse">
<stop stop-color="#44685E"/>
<stop offset="0.87" stop-color="#1B232A"/>
</linearGradient>
<linearGradient id="paint25_linear_217_8950" x1="1293.53" y1="422.985" x2="1365.7" y2="422.985" gradientUnits="userSpaceOnUse">
<stop stop-color="#44685E"/>
<stop offset="0.87" stop-color="#1B232A"/>
</linearGradient>
<linearGradient id="paint26_linear_217_8950" x1="2141.5" y1="1062.92" x2="1877.61" y2="989.27" gradientUnits="userSpaceOnUse">
<stop stop-color="#44685E"/>
<stop offset="0.87" stop-color="#1B232A"/>
</linearGradient>
</defs>
</svg>
