<svg width="26" height="30" viewBox="0 0 26 30" fill="none" xmlns="http://www.w3.org/2000/svg">
<path fill-rule="evenodd" clip-rule="evenodd" d="M4.30787 6.6496L6.41898 5.52786L6.66735 6.02641L14.3667 1.53946L13.87 1.16554L13.2491 0.79163L13.0007 0.666992L0.334016 8.02062V8.26989L3.93532 6.27569L4.30787 6.6496ZM4.30784 11.3858L10.3928 7.77133L10.6412 8.26988L18.4647 3.78293L17.8438 3.40901L17.2229 3.15974L16.9745 3.0351L0.333984 12.6322V12.8815L3.93529 10.8873L4.30784 11.3858ZM12.3797 9.01773L4.30784 13.6293L3.93529 13.1308L0.333984 15.2496V14.8757L18.9614 4.15686L19.2098 4.2815L19.8307 4.65541L20.4516 4.90469L12.6281 9.39164L12.3797 9.01773ZM4.30784 15.8728L14.3667 10.1395L14.615 10.5134L22.4386 6.15106L21.8176 5.77714L21.1967 5.40323L20.9484 5.27859L0.333984 17.2438V17.4931L3.93529 15.4989L4.30784 15.8728ZM16.3536 11.2612L4.30784 18.2409L3.93529 17.7424L0.333984 19.8612V19.4873L22.9353 6.40035L23.3078 6.64963L23.8046 6.8989L24.4255 7.27282L16.602 11.7598L16.3536 11.2612ZM25.1706 7.77136L24.9222 7.52208L0.333984 21.8554V22.1047L3.93529 20.1105L4.30784 20.609L16.3536 13.5047L16.602 14.0032L25.6673 8.8931V8.02063L25.1706 7.77136ZM3.93524 22.3539L1.94831 23.6003L1.57576 23.351L25.6673 9.51626V11.1366L16.6019 16.3713L16.3535 15.8728L4.1836 22.8525L3.93524 22.3539ZM16.3535 18.2409L16.6019 18.7395L25.6673 13.38V11.7598L3.56268 24.5974L3.93523 24.7221L5.92216 23.4757L6.29471 23.9742L16.3535 18.2409ZM8.03339 24.7221L5.92228 25.8438L5.54973 25.7192L25.6674 14.1279V15.7481L16.602 20.9829L16.3537 20.4844L8.28175 25.2206L8.03339 24.7221ZM7.90907 26.9655L10.0202 25.8438L10.2685 26.3424L16.3535 22.8525L16.6019 23.3511L25.6672 18.1163V16.3713L7.53652 26.8409L7.90907 26.9655ZM9.89612 28.2119L9.52357 27.9627L25.6674 18.7395V20.3598L16.602 25.5945L16.3536 25.096L12.2556 27.4641L12.0072 26.9656L9.89612 28.2119ZM11.883 29.3337L13.8699 28.0873L14.2425 28.5858L16.3536 27.4641L16.6019 27.9626L25.6673 22.7279V20.9829L11.6346 29.209L11.883 29.3337ZM15.8569 2.28728L16.4778 2.66119L8.65425 7.14815L8.40588 6.6496L4.30784 9.01772L3.93529 8.51917L0.333984 10.638V10.2641L14.9876 1.78873L15.2359 2.03801L15.8569 2.28728Z" fill="white"/>
</svg>
