<svg width="58" height="62" viewBox="0 0 58 62" fill="none" xmlns="http://www.w3.org/2000/svg">
<path d="M17.7599 44.6438C15.9636 43.2655 12.4693 40.4477 12.6286 35.1968C12.7345 33.1571 13.2355 31.1572 14.1039 29.3085L14.2518 28.9687C17.0089 23.0416 27.1523 14.1169 35.6291 7.85188C36.4248 7.26123 37.2041 6.6973 37.967 6.16012C37.967 6.16012 38.0202 6.1221 38.0465 6.10075C41.9934 3.3143 45.3262 1.29378 46.9971 0.713142C50.3555 -0.4733 51.5513 1.00337 51.9718 2.2733C52.1899 2.94681 52.2338 3.66456 52.0996 4.35964C51.4027 8.19958 50.3613 11.9689 48.9879 15.622C48.9752 15.6644 48.9584 15.7055 48.9379 15.7448C44.2426 28.2223 36.728 37.5169 33.2275 42.5633C33.1268 42.7002 33.0312 42.8414 32.9442 42.9724L32.894 43.0432C28.5032 49.3396 20.157 46.4861 17.7599 44.6438Z" fill="url(#paint0_linear_604_3160)"/>
<path opacity="0.15" d="M32.8816 43.0437L33.6351 39.4058C40.0357 32.44 45.2044 24.436 48.9199 15.7363C44.2443 28.2215 36.7296 37.5161 33.2291 42.5625C33.1284 42.6994 33.0329 42.8406 32.9458 42.9716L32.8816 43.0437Z" fill="#43675E"/>
<path opacity="0.15" d="M12.6109 35.2034C12.7167 33.1636 13.2177 31.1638 14.0861 29.315L14.2341 28.9752C16.9911 23.0481 27.1345 14.1235 35.6113 7.8584C35.0165 8.42407 16.0187 26.7206 13.6707 33.2854C13.4307 33.9811 13.0721 34.6299 12.6109 35.2034Z" fill="#43675E"/>
<path d="M17.7607 44.6435C15.3837 42.8135 10.0225 38.468 14.0863 29.3146C17.395 26.5261 23.1141 26.6891 27.8188 29.9709C32.5235 33.2527 34.6373 38.5049 33.2142 42.5643C33.1135 42.7012 33.0179 42.8424 32.9309 42.9734C28.5675 49.3617 20.168 46.4943 17.7607 44.6435Z" fill="#354E4C"/>
<path d="M18.1688 43.8158C22.6692 46.9529 28.2836 46.6756 30.7089 43.1963C33.1341 39.7171 31.4519 34.3535 26.9515 31.2164C22.451 28.0793 16.8367 28.3566 14.4114 31.8359C11.9861 35.3151 13.6683 40.6787 18.1688 43.8158Z" fill="#1B232A"/>
<path d="M8.71209 24.772C8.92959 24.4683 17.7142 12.4659 26.1756 18.5411L20.773 24.6291L19.605 25.9427C19.605 25.9427 15.4549 22.4251 8.71209 24.772Z" fill="#6EC5A2"/>
<path d="M37.8283 47.674C38.6241 40.5776 34.2747 37.3054 34.2747 37.3054L35.2569 35.924L40.0244 29.257C47.8301 36.1587 38.0718 47.3962 37.8278 47.6693L37.8283 47.674Z" fill="#6EC5A2"/>
<path d="M33.7128 18.0768C33.961 20.7472 36.327 22.7107 38.9974 22.4625C41.6678 22.2143 43.6313 19.8483 43.3831 17.1779C43.1348 14.5075 40.7688 12.544 38.0985 12.7922C35.4281 13.0405 33.4645 15.4065 33.7128 18.0768Z" fill="white"/>
<path d="M35.131 17.945C35.3063 19.8314 36.9777 21.2184 38.864 21.0431C40.7504 20.8677 42.1374 19.1964 41.962 17.31C41.7867 15.4237 40.1154 14.0367 38.229 14.212C36.3427 14.3874 34.9556 16.0587 35.131 17.945Z" fill="#1B232A"/>
<path d="M48.9199 15.7363C46.8306 8.51118 41.7937 6.5362 37.9631 6.15035C37.9631 6.15035 38.0163 6.11234 38.0426 6.09098C41.9895 3.30454 45.3223 1.28401 46.9932 0.703376C50.3516 -0.483065 51.5474 0.993608 51.9679 2.26354C52.186 2.93704 52.2299 3.65479 52.0957 4.34987C51.3988 8.18982 50.3574 11.9592 48.984 15.6122L48.9199 15.7363Z" fill="#6EC5A2"/>
<path d="M25.6483 46.59C26.7643 44.9212 27.1937 42.8863 26.8469 40.9089C26.5002 38.9315 25.4041 37.1641 23.7868 35.9746C22.1696 34.7852 20.1559 34.2653 18.165 34.5234C16.1741 34.7815 14.3595 35.7975 13.0989 37.36C13.0989 37.36 6.99697 43.9572 5.23586 61.1571C5.23586 61.1571 12.8151 59.7248 24.2808 48.045C24.7963 47.6198 25.2558 47.1309 25.6483 46.59Z" fill="url(#paint1_linear_604_3160)"/>
<path d="M23.7453 43.7423C24.1037 43.2582 24.3632 42.7082 24.509 42.1237C24.6548 41.5392 24.6841 40.9318 24.5951 40.336C24.5062 39.7402 24.3008 39.1678 23.9906 38.6514C23.6804 38.1351 23.2716 37.6848 22.7874 37.3265C22.3032 36.9681 21.7532 36.7086 21.1688 36.5628C20.5843 36.417 19.9768 36.3877 19.3811 36.4766C18.7853 36.5656 18.2129 36.771 17.6965 37.0812C17.1801 37.3914 16.7299 37.8002 16.3715 38.2844C16.3715 38.2844 12.786 42.162 11.7543 52.2622C11.7543 52.2622 16.2035 51.4233 22.9376 44.5594C23.2399 44.3218 23.5112 44.0473 23.7453 43.7423Z" fill="white"/>
<path d="M8.7108 24.772C8.89756 24.646 14.5201 20.924 20.7717 24.6291L19.6037 25.9427C19.6037 25.9427 15.4536 22.4251 8.7108 24.772Z" fill="url(#paint2_linear_604_3160)"/>
<path d="M37.828 47.6733C38.6239 40.5769 34.2745 37.3047 34.2745 37.3047L35.2566 35.9232C35.2566 35.9232 39.8608 41.0716 37.8323 47.6682L37.828 47.6733Z" fill="url(#paint3_linear_604_3160)"/>
<defs>
<linearGradient id="paint0_linear_604_3160" x1="-5185.59" y1="14897.9" x2="-8676.2" y2="18831.7" gradientUnits="userSpaceOnUse">
<stop stop-color="white"/>
<stop offset="0.38" stop-color="#99D0B5"/>
<stop offset="0.99" stop-color="#5F9D84"/>
</linearGradient>
<linearGradient id="paint1_linear_604_3160" x1="23.9482" y1="35.5197" x2="7.80147" y2="58.1021" gradientUnits="userSpaceOnUse">
<stop stop-color="#EE7671"/>
<stop offset="1" stop-color="#1B232A" stop-opacity="0"/>
</linearGradient>
<linearGradient id="paint2_linear_604_3160" x1="-1989.07" y1="1249.71" x2="-2096.94" y2="1809.66" gradientUnits="userSpaceOnUse">
<stop stop-color="#45695E"/>
<stop offset="0.87" stop-color="#1B232A"/>
</linearGradient>
<linearGradient id="paint3_linear_604_3160" x1="-45.5572" y1="4182.31" x2="-573.367" y2="4386.4" gradientUnits="userSpaceOnUse">
<stop stop-color="#45695E"/>
<stop offset="0.87" stop-color="#1B232A"/>
</linearGradient>
</defs>
</svg>
