<svg width="23" height="12" viewBox="0 0 23 12" fill="none" xmlns="http://www.w3.org/2000/svg">
<path d="M0.973673 0.99V11H7.48367V9.88H2.23367V0.99H0.973673ZM13.5159 0.99H12.3959L8.51795 11H9.63795L13.5159 0.99ZM18.7367 5.162C17.2667 4.798 16.1887 4.616 16.1887 3.286C16.1887 2.46 16.9447 1.914 18.3587 1.914C19.9407 1.914 20.6967 2.614 20.8787 3.958H22.1387C21.9707 1.886 20.4867 0.794 18.3587 0.794C16.1467 0.794 14.9287 1.844 14.9287 3.426C14.9287 5.372 16.7207 5.89 18.2187 6.24C20.4587 6.758 21.2007 7.01 21.2007 8.382C21.2007 9.278 20.5847 10.076 18.8487 10.076C16.7487 10.076 15.9087 9.012 15.7687 7.64H14.5087C14.6487 9.936 16.4827 11.196 18.8487 11.196C21.3827 11.196 22.4607 9.838 22.4607 8.382C22.4607 6.1 20.9907 5.722 18.7367 5.162Z" fill="#DD4B4B"/>
</svg>
