<svg width="28" height="30" viewBox="0 0 28 30" fill="none" xmlns="http://www.w3.org/2000/svg">
<path fill-rule="evenodd" clip-rule="evenodd" d="M14.389 29.6673C15.8406 29.6673 19.5644 29.0129 22.8464 26.3952C26.6202 23.3851 26.9758 21.7064 27.2052 20.624C27.2251 20.5298 27.2441 20.4401 27.2644 20.3544C27.3026 20.1922 27.325 19.9719 27.3327 19.7102C26.54 19.5818 25.4289 19.5083 24.1323 19.6622C22.0116 19.9139 20.3454 21.3612 19.7773 22.0534C19.4618 20.4802 17.9218 17.334 14.2863 17.334C10.6509 17.334 8.69016 20.4802 8.1642 22.0534C7.82758 21.466 6.57371 20.1656 4.25108 19.6622C2.81499 19.351 1.56229 19.5048 0.666016 19.7667C0.736778 20.9365 1.12128 22.1841 2.14465 23.5007C3.90555 25.766 6.63779 27.1648 7.85679 27.7889C7.99224 27.8582 8.109 27.918 8.20367 27.9683C9.15039 28.4717 11.7381 29.6673 14.389 29.6673Z" fill="white"/>
<path fill-rule="evenodd" clip-rule="evenodd" d="M27.3297 19.6638C26.5374 19.5358 25.427 19.4625 24.1311 19.616C22.0117 19.867 20.3464 21.3101 19.7787 22.0003C19.4633 20.4317 17.9242 17.2944 14.2909 17.2944C10.6576 17.2944 8.69797 20.4317 8.17232 22.0003C7.8359 21.4147 6.58275 20.118 4.26147 19.616C2.82622 19.3057 1.57424 19.459 0.678491 19.7203C0.614001 18.6565 0.810251 17.6575 1.02085 16.7297C1.37409 15.1737 2.26139 13.1114 2.66089 12.2748C2.30344 11.4173 1.47501 8.98699 1.02085 6.12582C0.566688 3.26464 1.33624 1.33627 1.77779 0.729737C2.49267 0.917973 4.2 1.50778 5.31017 2.36111C6.42035 3.21444 8.12766 5.10098 8.84255 5.93758C9.76769 5.6866 12.1478 5.18464 14.2673 5.18464C16.3867 5.18464 18.4305 5.6866 19.1874 5.93758C19.8182 5.18464 21.3699 3.41523 22.5305 2.36111C23.6912 1.30699 25.5792 0.792482 26.3783 0.666992C26.5885 0.938888 27.0343 1.73366 27.1353 2.73758C27.2614 3.99248 26.8829 6.62778 26.3783 8.38464C25.9746 9.79013 25.4531 11.4382 25.2429 12.0866C25.348 12.3167 25.7097 13.0654 26.3152 14.2199C26.9574 15.4442 27.3724 18.2036 27.3297 19.6638Z" fill="#FFAA35"/>
<path d="M16.9785 25.248C16.8285 25.4487 16.666 25.8334 16.6035 26.0007V25.9379L16.416 24.4326C16.0619 24.4744 15.141 24.558 14.291 24.558C13.441 24.558 12.4369 24.4744 12.041 24.4326L11.9785 25.9379C11.9369 25.8752 11.8285 25.6996 11.7285 25.4989C11.6035 25.248 11.166 24.8716 11.166 24.6835C11.166 24.5329 10.9577 24.2027 10.8535 24.0563L10.666 23.8054H11.791L12.041 23.9935C12.2494 23.9726 12.7785 23.9559 13.2285 24.0563C13.6785 24.1566 13.9576 23.7636 14.041 23.5545V22.5509C13.8535 22.4255 13.391 22.137 13.041 21.9864C12.6035 21.7983 12.166 21.0456 12.291 20.2929C12.416 19.5403 12.791 19.2894 13.041 19.3521C13.291 19.4148 14.916 19.2894 15.166 19.3521C15.416 19.4148 15.8535 19.5403 16.041 19.8539C16.2285 20.1675 16.1035 21.4219 15.7285 21.861C15.4285 22.2122 14.8535 22.4673 14.6035 22.5509V23.5545C14.6035 23.6799 15.041 23.9935 15.1035 24.0563C15.166 24.119 16.1035 24.0563 16.291 24.0563C16.441 24.0563 16.5619 23.9308 16.6035 23.8681H17.666V24.119C17.666 24.2444 17.4785 24.8089 17.416 24.8716C17.3535 24.9344 17.166 24.9971 16.9785 25.248Z" fill="black"/>
<path d="M14.9683 24.8337L14.3333 25.3337L13.8254 24.8337L13.381 25.0559L13 24.667H15.6667L15.2857 25.1114L14.9683 24.8337Z" fill="black"/>
<path d="M8.13512 14.5769C7.39127 14.2692 6.58544 14.0641 6.2755 14C6.19285 14.0427 6.02755 14.1795 6.02755 14.3846C6.02755 14.641 5.96556 14.8974 6.02755 15.4103C6.08954 15.9231 6.58544 16.2436 7.45326 16.6282C8.32108 17.0128 9.80878 17.3333 10.8626 17.3333C11.9164 17.3333 10.9246 16.2436 10.5526 15.9872C10.1807 15.7308 9.06493 14.9615 8.13512 14.5769Z" fill="black"/>
<path d="M9.1518 12.8761C8.59592 12.9755 7.82526 13.0003 7.50941 13.0003C7.19357 12.9589 6.52398 12.7642 6.37237 12.3169C6.18286 11.7577 6.68822 11.1364 7.31991 10.8258C7.95159 10.5151 8.77279 10.6394 9.27814 11.3849C9.78349 12.1305 9.84666 12.7518 9.1518 12.8761Z" fill="white"/>
<path d="M20.5302 14.2439C21.2741 13.9362 22.0799 13.7311 22.3899 13.667C22.4726 13.7097 22.6378 13.8465 22.6378 14.0516C22.6378 14.308 22.6998 14.5644 22.6378 15.0772C22.5758 15.5901 22.0799 15.9106 21.2121 16.2952C20.3443 16.6798 18.8566 17.0003 17.8028 17.0003C16.749 17.0003 17.7408 15.9106 18.1127 15.6542C18.4847 15.3978 19.6004 14.6285 20.5302 14.2439Z" fill="black"/>
<path d="M18.5136 12.8761C19.0694 12.9755 19.8401 13.0003 20.156 13.0003C20.4718 12.9589 21.1414 12.7642 21.293 12.3169C21.4825 11.7577 20.9771 11.1364 20.3455 10.8258C19.7138 10.5151 18.8926 10.6394 18.3872 11.3849C17.8819 12.1305 17.8187 12.7518 18.5136 12.8761Z" fill="white"/>
<path d="M4.80975 8.22546C4.35551 8.72158 3.48487 9.83786 3.10634 10.334C2.85398 9.79652 2.29879 8.36189 2.0969 6.92313C1.89502 5.48437 2.05485 3.26422 2.15999 2.33398C2.43338 2.35466 3.23251 2.58205 4.24195 3.32623C5.25138 4.07042 6.72347 5.45544 7.33333 6.05491C6.6814 6.57171 5.264 7.72933 4.80975 8.22546Z" fill="#FF8C30"/>
<path fill-rule="evenodd" clip-rule="evenodd" d="M2 3.51529C2.99216 3.92932 4.29814 4.56221 4.84545 5.13423C5.40064 5.71449 5.88906 6.48262 6.17902 7.00065C6.61434 6.63972 7.04691 6.29297 7.33333 6.06765C6.71668 5.46612 5.2282 4.07636 4.20753 3.32963C3.18686 2.5829 2.37883 2.35473 2.1024 2.33398C2.06939 2.62374 2.03107 3.03824 2 3.51529Z" fill="#FF9A32"/>
<path d="M22.8556 8.22546C23.3099 8.72158 24.1805 9.83786 24.559 10.334C24.8114 9.79652 25.3666 8.36189 25.5685 6.92313C25.7704 5.48437 25.6105 3.26422 25.5054 2.33398C25.232 2.35466 24.4329 2.58205 23.4234 3.32623C22.414 4.07042 20.9419 5.45544 20.332 6.05491C20.984 6.57171 22.4014 7.72933 22.8556 8.22546Z" fill="#FF8C30"/>
<path fill-rule="evenodd" clip-rule="evenodd" d="M25.6654 3.51529C24.6732 3.92932 23.3672 4.56221 22.8199 5.13423C22.2647 5.71449 21.7763 6.48262 21.4864 7.00065C21.0511 6.63972 20.6185 6.29297 20.332 6.06765C20.9486 5.46612 22.4371 4.07636 23.4578 3.32963C24.4785 2.5829 25.2864 2.35473 25.5629 2.33398C25.596 2.62374 25.6342 3.03824 25.6654 3.51529Z" fill="#FF9A32"/>
</svg>
