<svg width="28" height="22" viewBox="0 0 28 22" fill="none" xmlns="http://www.w3.org/2000/svg">
<path fill-rule="evenodd" clip-rule="evenodd" d="M27.3297 19.6638C26.5374 19.5358 25.427 19.4625 24.1311 19.616C22.0117 19.867 20.3464 21.3101 19.7787 22.0003C19.4633 20.4317 17.9242 17.2944 14.2909 17.2944C10.6576 17.2944 8.69797 20.4317 8.17232 22.0003C7.8359 21.4147 6.58275 20.118 4.26147 19.616C2.82622 19.3057 1.57424 19.459 0.678491 19.7203C0.614001 18.6565 0.810251 17.6575 1.02085 16.7297C1.37409 15.1737 2.26139 13.1114 2.66089 12.2748C2.30344 11.4173 1.47501 8.98699 1.02085 6.12582C0.566688 3.26464 1.33624 1.33627 1.77779 0.729737C2.49267 0.917973 4.2 1.50778 5.31017 2.36111C6.42035 3.21444 8.12766 5.10098 8.84255 5.93758C9.76769 5.6866 12.1478 5.18464 14.2673 5.18464C16.3867 5.18464 18.4305 5.6866 19.1874 5.93758C19.8182 5.18464 21.3699 3.41523 22.5305 2.36111C23.6912 1.30699 25.5792 0.792482 26.3783 0.666992C26.5885 0.938888 27.0343 1.73366 27.1353 2.73758C27.2614 3.99248 26.8829 6.62778 26.3783 8.38464C25.9746 9.79013 25.4531 11.4382 25.2429 12.0866C25.348 12.3167 25.7097 13.0654 26.3152 14.2199C26.9574 15.4442 27.3724 18.2036 27.3297 19.6638Z" fill="#FFAA35"/>
</svg>
