<svg width="144" height="31" viewBox="0 0 144 31" fill="none" xmlns="http://www.w3.org/2000/svg">
<path d="M1 11.2727L5.21255 13.3759C6.75569 14.1463 8.62912 13.46 9.30939 11.875L11.0652 7.78435C12.1801 5.18667 15.9406 5.43169 16.709 8.15208L20.5835 21.8687C21.2468 24.2167 24.2863 24.8331 25.8118 22.929L31.4503 15.8914C32.5361 14.5361 34.5422 14.383 35.8211 15.5578L48.7802 27.4625C50.0416 28.6213 52.0155 28.4905 53.113 27.1754L55.7805 23.9792C56.9002 22.6375 59.0285 22.8847 59.8109 24.4472V24.4472C60.7717 26.3661 63.5679 26.1833 64.2708 24.1557L67.5889 14.5841C68.1568 12.9461 70.1545 12.3343 71.5422 13.3736V13.3736C72.9398 14.4202 74.952 13.7913 75.5049 12.1351L76.3246 9.67966C77.2518 6.90232 81.2009 6.96222 82.0434 9.7664L82.731 12.0549C83.1919 13.589 84.7766 14.4903 86.3307 14.1024L86.7558 13.9963C88.1688 13.6436 89.6309 14.3566 90.2231 15.687L91.6216 18.8289C91.8814 19.4125 92.3207 19.898 92.8756 20.2146L94.459 21.1181C95.8568 21.9156 97.6349 21.4682 98.4887 20.1041L101.118 15.904C102.374 13.8977 105.35 14.0679 106.368 16.2044L108.982 21.6849C109.942 23.6983 112.686 23.9968 114.057 22.2371L114.539 21.618C115.395 20.5183 116.909 20.1752 118.156 20.7978V20.7978C119.904 21.6708 122.001 20.6179 122.345 18.6941L124.291 7.81104C124.668 5.70374 127.293 4.92356 128.808 6.43616V6.43616C129.586 7.21357 130.787 7.41872 131.771 6.92726V6.92726C133.146 6.24109 134.811 6.91189 135.326 8.3592L140 21.5" stroke="#DD4B4B" stroke-linecap="round"/>
<path d="M5.21255 13.3759L1 11.2727V28C1 29.6569 2.34315 31 4 31H139.2C141.287 31 142.736 28.9228 142.016 26.9645L139.822 21L135.326 8.3592C134.811 6.91189 133.146 6.24109 131.771 6.92726C130.787 7.41872 129.586 7.21357 128.808 6.43616C127.293 4.92356 124.668 5.70374 124.291 7.81104L122.345 18.6941C122.001 20.6179 119.904 21.6708 118.156 20.7978C116.909 20.1751 115.395 20.5183 114.539 21.618L114.057 22.2371C112.686 23.9968 109.942 23.6983 108.982 21.6849L106.368 16.2044C105.35 14.0679 102.374 13.8977 101.118 15.904L98.4887 20.1041C97.6349 21.4682 95.8568 21.9156 94.459 21.1181L92.8756 20.2146C92.3207 19.898 91.8814 19.4125 91.6216 18.8289L90.2231 15.687C89.6309 14.3566 88.1688 13.6436 86.7558 13.9963L86.3307 14.1024C84.7766 14.4903 83.1919 13.589 82.731 12.0549L82.0434 9.7664C81.2009 6.96222 77.2518 6.90232 76.3246 9.67966L75.5049 12.1351C74.952 13.7913 72.9398 14.4202 71.5422 13.3736C70.1545 12.3343 68.1568 12.9461 67.589 14.5841L64.2708 24.1557C63.5679 26.1833 60.7717 26.3661 59.8109 24.4472C59.0285 22.8847 56.9002 22.6375 55.7805 23.9792L53.113 27.1754C52.0155 28.4905 50.0416 28.6213 48.7802 27.4625L35.8211 15.5578C34.5422 14.383 32.5361 14.5361 31.4503 15.8914L25.8118 22.929C24.2863 24.8331 21.2468 24.2167 20.5835 21.8687L16.709 8.15208C15.9406 5.43169 12.1801 5.18667 11.0652 7.78435L9.30939 11.875C8.62912 13.46 6.75569 14.1463 5.21255 13.3759Z" fill="url(#paint0_linear_640_682)"/>
<defs>
<linearGradient id="paint0_linear_640_682" x1="76.198" y1="-15.5" x2="76.198" y2="27.3095" gradientUnits="userSpaceOnUse">
<stop stop-color="#DD4B4B"/>
<stop offset="1" stop-color="#DD4B4B" stop-opacity="0"/>
</linearGradient>
</defs>
</svg>
