<svg width="13" height="16" viewBox="0 0 13 16" fill="none" xmlns="http://www.w3.org/2000/svg">
<path fill-rule="evenodd" clip-rule="evenodd" d="M12.3016 6.29786C12.5406 4.69972 11.3239 3.84066 9.66016 3.26758L10.1999 1.10276L8.8821 0.7744L8.35669 2.88222C8.01024 2.79582 7.65447 2.7144 7.30087 2.63369L7.8301 0.511956L6.51312 0.183594L5.97309 2.34771C5.68641 2.28244 5.40483 2.21793 5.13164 2.14995L5.13317 2.14314L3.3159 1.68934L2.96535 3.09683C2.96535 3.09683 3.94304 3.32094 3.92244 3.33474C4.45607 3.46792 4.55258 3.82118 4.53655 4.10117L3.92174 6.56741C3.95848 6.57674 4.00615 6.59024 4.05874 6.61138L4.02042 6.60181C3.98792 6.59368 3.95413 6.58522 3.91945 6.57692L3.05769 10.0318C2.99247 10.1939 2.82694 10.4372 2.45385 10.3448C2.46706 10.3639 1.49606 10.1058 1.49606 10.1058L0.841797 11.6142L2.55669 12.0417C2.74448 12.0888 2.93006 12.1372 3.11375 12.1851L3.11389 12.1851C3.24221 12.2186 3.36962 12.2518 3.49623 12.2842L2.95091 14.4738L4.26718 14.8022L4.80721 12.6358C5.1668 12.7334 5.51577 12.8234 5.8574 12.9083L5.31919 15.0645L6.63704 15.3929L7.18229 13.2073C9.42941 13.6326 11.1191 13.4611 11.8303 11.4286C12.4033 9.79222 11.8017 8.84834 10.6195 8.23282C11.4806 8.03424 12.1292 7.46791 12.3021 6.29804L12.3017 6.29775L12.3016 6.29786ZM9.29074 10.5198C8.9171 12.0212 6.56706 11.4005 5.49184 11.1165C5.39512 11.091 5.30871 11.0681 5.23499 11.0498L5.95863 8.14893C6.04846 8.17135 6.15824 8.19599 6.2826 8.2239L6.28266 8.22391C7.39485 8.47351 9.67356 8.98489 9.2908 10.5198H9.29074ZM6.50573 6.87755C7.40216 7.11679 9.3577 7.63869 9.69827 6.27414H9.69839C10.0461 4.87855 8.14569 4.4578 7.21751 4.2523C7.11309 4.22918 7.02098 4.20878 6.94575 4.19003L6.28967 6.82098C6.35162 6.83642 6.42431 6.85582 6.50573 6.87755Z" fill="white"/>
</svg>
