<svg width="19" height="19" viewBox="0 0 19 19" fill="none" xmlns="http://www.w3.org/2000/svg">
<path opacity="0.1" d="M1.73993 3.93257H5.40537V3.37579C5.40537 2.67982 5.96215 2.12305 6.65812 2.12305H12.3419C13.0379 2.12305 13.5946 2.67982 13.5946 3.37579V3.93257H17.2601C18.2112 3.93257 19 4.72134 19 5.6725V15.1377C19 16.0889 18.2112 16.8776 17.2601 16.8776H1.73993C0.788767 16.8776 0 16.0889 0 15.1377V5.6725C0 4.69814 0.788767 3.93257 1.73993 3.93257Z" fill="#5ED5A8"/>
<path d="M12.1321 7.7837C11.4594 7.11093 10.5314 6.71655 9.51066 6.71655C8.4899 6.71655 7.56194 7.13413 6.88917 7.8069C6.2164 8.47967 5.79882 9.40763 5.79882 10.4284C5.79882 11.4491 6.2164 12.3771 6.88917 13.0499C7.56194 13.7227 8.4899 14.1402 9.51066 14.1402C10.5314 14.1402 11.4594 13.7227 12.1321 13.0499C12.8049 12.3771 13.2225 11.4491 13.2225 10.4284C13.1993 9.38443 12.7817 8.45647 12.1321 7.7837ZM9.51066 5.74219C10.7866 5.74219 11.9698 6.25257 12.8049 7.11093C13.6401 7.94609 14.1737 9.12924 14.1737 10.4052C14.1737 11.6811 13.6633 12.8643 12.8049 13.6995C11.9698 14.5346 10.7866 15.0682 9.51066 15.0682C8.23471 15.0682 7.05156 14.5578 6.2164 13.6995C5.38123 12.8643 4.84766 11.6811 4.84766 10.4052C4.84766 9.12924 5.35803 7.94609 6.2164 7.11093C7.05156 6.25257 8.23471 5.74219 9.51066 5.74219Z" fill="#00B594"/>
<path opacity="0.1" d="M16.2854 7.55124C16.7979 7.55124 17.2133 7.13577 17.2133 6.62327C17.2133 6.11078 16.7979 5.69531 16.2854 5.69531C15.7729 5.69531 15.3574 6.11078 15.3574 6.62327C15.3574 7.13577 15.7729 7.55124 16.2854 7.55124Z" fill="#5ED5A8"/>
<path opacity="0.1" d="M9.51088 12.9563C10.9203 12.9563 12.0628 11.8138 12.0628 10.4044C12.0628 8.99506 10.9203 7.85254 9.51088 7.85254C8.10151 7.85254 6.95898 8.99506 6.95898 10.4044C6.95898 11.8138 8.10151 12.9563 9.51088 12.9563Z" fill="#5ED5A8"/>
</svg>
