<svg width="24" height="24" viewBox="0 0 24 24" fill="none" xmlns="http://www.w3.org/2000/svg">
<path opacity="0.4" d="M6.5 22V17" stroke="#5ED5A8" stroke-width="1.5" stroke-miterlimit="10" stroke-linecap="round" stroke-linejoin="round"/>
<path opacity="0.4" d="M6.5 5V2" stroke="#5ED5A8" stroke-width="1.5" stroke-miterlimit="10" stroke-linecap="round" stroke-linejoin="round"/>
<path opacity="0.4" d="M17.5 22V19" stroke="#5ED5A8" stroke-width="1.5" stroke-miterlimit="10" stroke-linecap="round" stroke-linejoin="round"/>
<path opacity="0.4" d="M17.5 7V2" stroke="#5ED5A8" stroke-width="1.5" stroke-miterlimit="10" stroke-linecap="round" stroke-linejoin="round"/>
<path d="M9.5 7V15C9.5 16.1 9 17 7.5 17H5.5C4 17 3.5 16.1 3.5 15V7C3.5 5.9 4 5 5.5 5H7.5C9 5 9.5 5.9 9.5 7Z" stroke="#5ED5A8" stroke-width="1.5" stroke-miterlimit="10" stroke-linecap="round" stroke-linejoin="round"/>
<path opacity="0.1" d="M10 8.33333V13.6667C10 14.4 9.66667 15 8.66667 15H7.33333C6.33333 15 6 14.4 6 13.6667V8.33333C6 7.6 6.33333 7 7.33333 7H8.66667C9.66667 7 10 7.6 10 8.33333Z" fill="#5ED5A8"/>
<path d="M20.5 9V17C20.5 18.1 20 19 18.5 19H16.5C15 19 14.5 18.1 14.5 17V9C14.5 7.9 15 7 16.5 7H18.5C20 7 20.5 7.9 20.5 9Z" stroke="#5ED5A8" stroke-width="1.5" stroke-miterlimit="10" stroke-linecap="round" stroke-linejoin="round"/>
<path opacity="0.1" d="M21 10.3333V15.6667C21 16.4 20.6667 17 19.6667 17H18.3333C17.3333 17 17 16.4 17 15.6667V10.3333C17 9.6 17.3333 9 18.3333 9H19.6667C20.6667 9 21 9.6 21 10.3333Z" fill="#5ED5A8"/>
</svg>
