<svg width="18" height="18" viewBox="0 0 18 18" fill="none" xmlns="http://www.w3.org/2000/svg">
<path d="M11.3179 18H3.34107C1.49875 18 0 16.7384 0 15.1875V5.66016C0 4.1093 1.49875 2.84766 3.34107 2.84766H11.3179C13.1602 2.84766 14.6589 4.1093 14.6589 5.66016V15.1875C14.6589 16.7384 13.1602 18 11.3179 18ZM3.34107 4.25391C2.41999 4.25391 1.67053 4.8848 1.67053 5.66016V15.1875C1.67053 15.9629 2.41999 16.5938 3.34107 16.5938H11.3179C12.2389 16.5938 12.9884 15.9629 12.9884 15.1875V5.66016C12.9884 4.8848 12.2389 4.25391 11.3179 4.25391H3.34107ZM18 13.4297V2.8125C18 1.26164 16.5013 0 14.6589 0H5.38747C4.92612 0 4.5522 0.314758 4.5522 0.703125C4.5522 1.09149 4.92612 1.40625 5.38747 1.40625H14.6589C15.58 1.40625 16.3295 2.03714 16.3295 2.8125V13.4297C16.3295 13.8181 16.7034 14.1328 17.1647 14.1328C17.6261 14.1328 18 13.8181 18 13.4297Z" fill="#5ED5A8"/>
</svg>
