<svg width="24" height="24" viewBox="0 0 24 24" fill="none" xmlns="http://www.w3.org/2000/svg">
<path fill-rule="evenodd" clip-rule="evenodd" d="M11.2501 18C11.2501 18.41 11.5901 18.75 12.0001 18.75C12.4101 18.75 12.7501 18.41 12.7501 18V17.42H13.4002C14.8802 17.42 16.0802 16.17 16.0902 14.64C16.0902 12.85 15.0402 12.27 14.2602 12L12.7501 11.4679V8.08H13.1102C13.9202 8.08 14.5802 8.79 14.5802 9.66C14.5802 10.07 14.9202 10.41 15.3302 10.41C15.7402 10.41 16.0802 10.07 16.0802 9.66C16.0802 7.96 14.7502 6.58 13.1102 6.58H12.7501V6C12.7501 5.59 12.4101 5.25 12.0001 5.25C11.5901 5.25 11.2501 5.59 11.2501 6V6.58H10.6002C9.12016 6.58 7.91016 7.82 7.91016 9.36C7.91016 11.15 8.96016 11.73 9.74016 12L11.2501 12.532V15.92H10.8902C10.0802 15.92 9.42016 15.21 9.42016 14.34C9.42016 13.93 9.08016 13.59 8.67016 13.59C8.26016 13.59 7.92016 13.93 7.92016 14.34C7.92016 16.04 9.25016 17.42 10.8902 17.42H11.2501V18ZM12.7501 15.92H13.4002C14.0502 15.92 14.5902 15.34 14.5902 14.64C14.5902 13.77 14.2802 13.6 13.7702 13.42L12.7501 13.0606V15.92ZM11.2501 10.9394V8.08H10.6002C9.95016 8.08 9.41016 8.66 9.41016 9.36C9.41016 10.23 9.72016 10.4 10.2302 10.58L11.2501 10.9394Z" fill="#5ED5A8"/>
<path d="M12 22.75C6.07 22.75 1.25 17.93 1.25 12C1.25 6.07 6.07 1.25 12 1.25C17.93 1.25 22.75 6.07 22.75 12C22.75 17.93 17.93 22.75 12 22.75ZM12 2.75C6.9 2.75 2.75 6.9 2.75 12C2.75 17.1 6.9 21.25 12 21.25C17.1 21.25 21.25 17.1 21.25 12C21.25 6.9 17.1 2.75 12 2.75Z" fill="#5ED5A8"/>
</svg>
