<svg width="116" height="26" viewBox="0 0 116 26" fill="none" xmlns="http://www.w3.org/2000/svg">
<path d="M39.0183 12.746V8.57H46.1283V7.13H37.3983V20H39.0183V14.186H44.7603V12.746H39.0183ZM52.8711 13.16C52.8711 14.078 52.1691 14.276 50.6211 14.564C48.2451 15.014 46.6971 15.554 46.6971 17.642C46.6971 19.19 47.8671 20.252 49.7211 20.252C51.2331 20.252 52.2591 19.712 52.8351 18.848H52.8711C53.1231 19.856 53.6451 20.09 54.5091 20.09C54.7791 20.09 54.9771 20.072 55.3551 19.946V18.938C54.4371 19.046 54.3111 18.65 54.3111 17.93V13.466C54.3111 11.252 52.7451 10.568 50.9991 10.568C48.3351 10.568 47.2371 11.9 47.1471 13.664H48.5871C48.6771 12.332 49.2531 11.828 50.9991 11.828C52.4751 11.828 52.8711 12.44 52.8711 13.16ZM49.8651 18.992C48.6771 18.992 48.1371 18.47 48.1371 17.57C48.1371 16.472 48.9651 16.022 50.7471 15.644C51.7191 15.446 52.6011 15.194 52.8711 14.924V16.454C52.8711 18.218 51.5751 18.992 49.8651 18.992ZM63.4221 14.132H64.8621C64.6461 12.08 63.0981 10.568 60.8301 10.568C58.1481 10.568 56.3841 12.53 56.3841 15.41C56.3841 18.29 58.1481 20.252 60.8301 20.252C63.0981 20.252 64.7361 18.704 64.8621 16.616H63.4221C63.3501 17.714 62.6841 18.992 60.8301 18.992C58.6521 18.992 57.8241 17.138 57.8241 15.41C57.8241 13.682 58.6521 11.828 60.8301 11.828C62.6661 11.828 63.3501 13.124 63.4221 14.132ZM70.6213 18.992C68.6233 18.992 67.6333 17.444 67.6333 15.788H74.8873C74.8873 12.53 73.4833 10.568 70.6033 10.568C67.9213 10.568 66.1933 12.35 66.1933 15.41C66.1933 18.29 67.8853 20.252 70.6753 20.252C72.9613 20.252 74.2753 18.884 74.7433 17.174H73.3033C73.1413 17.804 72.4573 18.992 70.6213 18.992ZM70.6033 11.828C72.3313 11.828 73.4473 13.052 73.4473 14.528H67.6333C67.6333 13.052 68.8753 11.828 70.6033 11.828ZM81.1441 10.568C79.6681 10.568 78.8041 11.216 78.2641 12.008H78.2281V7.13H76.7881V20H78.2281V18.866H78.2641C78.8041 19.568 79.6681 20.252 81.1441 20.252C83.4481 20.252 85.2841 18.434 85.2841 15.41C85.2841 12.386 83.4481 10.568 81.1441 10.568ZM81.0001 18.992C79.2901 18.992 78.2281 17.57 78.2281 15.41C78.2281 13.25 79.2901 11.828 81.0001 11.828C82.8901 11.828 83.8441 13.61 83.8441 15.41C83.8441 17.21 82.8901 18.992 81.0001 18.992ZM91.1906 20.252C88.3826 20.252 86.6906 18.272 86.6906 15.41C86.6906 12.548 88.3826 10.568 91.1906 10.568C93.9806 10.568 95.6726 12.548 95.6726 15.41C95.6726 18.272 93.9806 20.252 91.1906 20.252ZM91.1906 18.992C93.2426 18.992 94.2326 17.372 94.2326 15.41C94.2326 13.448 93.2426 11.828 91.1906 11.828C89.1206 11.828 88.1306 13.448 88.1306 15.41C88.1306 17.372 89.1206 18.992 91.1906 18.992ZM101.58 20.252C98.7718 20.252 97.0798 18.272 97.0798 15.41C97.0798 12.548 98.7718 10.568 101.58 10.568C104.37 10.568 106.062 12.548 106.062 15.41C106.062 18.272 104.37 20.252 101.58 20.252ZM101.58 18.992C103.632 18.992 104.622 17.372 104.622 15.41C104.622 13.448 103.632 11.828 101.58 11.828C99.5098 11.828 98.5198 13.448 98.5198 15.41C98.5198 17.372 99.5098 18.992 101.58 18.992ZM107.991 7.13V20H109.431V16.382L110.853 15.068L114.111 20H115.821L111.861 14.222L115.443 10.82H113.643L109.431 14.762V7.13H107.991Z" fill="#1B232A"/>
<path d="M25.9924 0H0.00761719C0.00341033 0 0 0.00341033 0 0.00761719V25.9924C0 25.9966 0.00341033 26 0.00761719 26H25.9924C25.9966 26 26 25.9966 26 25.9924V0.00761719C26 0.00341033 25.9966 0 25.9924 0Z" fill="#1877F2"/>
<path d="M18.0578 16.7578L18.6367 13H15.0313V10.5625C15.0313 9.53672 15.534 8.53125 17.1488 8.53125H18.7891V5.33203C18.7891 5.33203 17.3012 5.07812 15.8793 5.07812C12.9086 5.07812 10.9688 6.87578 10.9688 10.1359V13H7.66797V16.7578H10.9688V26H15.0313V16.7578H18.0578Z" fill="white"/>
</svg>
