<svg width="22" height="22" viewBox="0 0 22 22" fill="none" xmlns="http://www.w3.org/2000/svg">
<path d="M8.88545 13.5385C8.61426 13.5385 8.34772 13.4086 8.18441 13.1674L0.146017 1.32132C-0.116289 0.934631 -0.0155974 0.408325 0.371092 0.146017C0.757358 -0.11629 1.28408 -0.0155975 1.54639 0.371094L9.58479 12.2172C9.84709 12.6039 9.7464 13.1302 9.35971 13.3925C9.21417 13.4915 9.04918 13.5385 8.88545 13.5385Z" fill="#B4B9C7"/>
<path d="M13.1149 13.5385C12.9512 13.5385 12.7862 13.4915 12.6406 13.3925C12.2539 13.1302 12.1532 12.6039 12.4155 12.2172L20.4539 0.371094C20.7163 -0.0155975 21.243 -0.11629 21.6292 0.146017C22.0159 0.408325 22.1166 0.934631 21.8543 1.32132L13.8159 13.1674C13.6526 13.4086 13.3861 13.5385 13.1149 13.5385Z" fill="#B4B9C7"/>
<path d="M8.88521 21.9995C8.41814 21.9995 8.03906 21.6204 8.03906 21.1534V12.6919C8.03906 12.2248 8.41814 11.8457 8.88521 11.8457C9.35228 11.8457 9.73136 12.2248 9.73136 12.6919V21.1534C9.73136 21.6204 9.35228 21.9995 8.88521 21.9995Z" fill="#B4B9C7"/>
<path d="M13.1157 18.474C12.6486 18.474 12.2695 18.095 12.2695 17.6279V12.6919C12.2695 12.2248 12.6486 11.8457 13.1157 11.8457C13.5828 11.8457 13.9618 12.2248 13.9618 12.6919V17.6279C13.9618 18.095 13.5828 18.474 13.1157 18.474Z" fill="#B4B9C7"/>
<path d="M21.1537 1.69328H0.846147C0.379074 1.69328 0 1.3142 0 0.847128C0 0.380053 0.379074 0.000976562 0.846147 0.000976562H21.1537C21.6207 0.000976562 21.9998 0.380053 21.9998 0.847128C21.9998 1.3142 21.6207 1.69328 21.1537 1.69328Z" fill="#B4B9C7"/>
<path d="M8.88552 21.9999C8.6431 21.9999 8.40237 21.8963 8.23525 21.6953C7.93614 21.3361 7.98437 20.8031 8.34356 20.5039L12.5743 16.9785C12.9335 16.6789 13.4666 16.728 13.7657 17.0868C14.0648 17.446 14.0166 17.979 13.6574 18.2781L9.42663 21.8036C9.2684 21.9356 9.07632 21.9999 8.88552 21.9999Z" fill="#B4B9C7"/>
</svg>
