<svg width="95" height="26" viewBox="0 0 95 26" fill="none" xmlns="http://www.w3.org/2000/svg">
<path d="M46.6722 11.018H48.2922C47.8422 8.57 46.1322 6.878 42.8742 6.878C39.3102 6.878 36.8982 9.686 36.8982 13.556C36.8982 17.444 38.9502 20.252 42.6942 20.252C44.6742 20.252 45.8802 19.532 46.8522 18.182H46.8882L47.4282 20H48.5082V13.304H42.6942V14.744H46.8882C46.8882 17.156 44.9982 18.812 42.6942 18.812C39.4542 18.812 38.5182 15.986 38.5182 13.556C38.5182 11.144 39.8142 8.318 42.8742 8.318C44.8182 8.318 46.2942 9.182 46.6722 11.018ZM54.9808 20.252C52.1728 20.252 50.4808 18.272 50.4808 15.41C50.4808 12.548 52.1728 10.568 54.9808 10.568C57.7708 10.568 59.4628 12.548 59.4628 15.41C59.4628 18.272 57.7708 20.252 54.9808 20.252ZM54.9808 18.992C57.0328 18.992 58.0228 17.372 58.0228 15.41C58.0228 13.448 57.0328 11.828 54.9808 11.828C52.9108 11.828 51.9208 13.448 51.9208 15.41C51.9208 17.372 52.9108 18.992 54.9808 18.992ZM65.37 20.252C62.562 20.252 60.87 18.272 60.87 15.41C60.87 12.548 62.562 10.568 65.37 10.568C68.16 10.568 69.852 12.548 69.852 15.41C69.852 18.272 68.16 20.252 65.37 20.252ZM65.37 18.992C67.422 18.992 68.412 17.372 68.412 15.41C68.412 13.448 67.422 11.828 65.37 11.828C63.3 11.828 62.31 13.448 62.31 15.41C62.31 17.372 63.3 18.992 65.37 18.992ZM78.3153 10.82V11.954H78.2793C77.7393 11.252 76.8753 10.568 75.3633 10.568C73.0953 10.568 71.2593 12.026 71.2593 15.05C71.2593 18.074 73.0953 19.532 75.3633 19.532C76.8753 19.532 77.7393 18.884 78.2793 18.092H78.3153V19.478C78.3153 21.188 77.3253 21.926 75.6153 21.926C73.9053 21.926 73.1493 21.224 72.9693 20.288H71.5293C71.6733 21.854 73.1673 23.186 75.6873 23.186C78.2073 23.186 79.7553 21.944 79.7553 19.496V10.82H78.3153ZM75.5433 18.272C73.6533 18.272 72.6993 16.85 72.6993 15.05C72.6993 13.25 73.6533 11.828 75.5433 11.828C77.2533 11.828 78.3153 12.89 78.3153 15.05C78.3153 17.21 77.2533 18.272 75.5433 18.272ZM82.2597 7.13V20H83.6997V7.13H82.2597ZM90.1201 18.992C88.1221 18.992 87.1321 17.444 87.1321 15.788H94.3861C94.3861 12.53 92.9821 10.568 90.1021 10.568C87.4201 10.568 85.6921 12.35 85.6921 15.41C85.6921 18.29 87.3841 20.252 90.1741 20.252C92.4601 20.252 93.7741 18.884 94.2421 17.174H92.8021C92.6401 17.804 91.9561 18.992 90.1201 18.992ZM90.1021 11.828C91.8301 11.828 92.9461 13.052 92.9461 14.528H87.1321C87.1321 13.052 88.3741 11.828 90.1021 11.828Z" fill="#1B232A"/>
<g clip-path="url(#clip0_667_614)">
<path d="M13 18.7689C10.3188 18.7689 8.125 16.9814 7.475 14.5439L2.03125 19.9877C4.30625 23.5627 8.36875 26.0002 13 26.0002C15.5188 26.0002 17.875 25.2689 19.9062 23.9689L14.4625 18.5252C13.975 18.6877 13.4875 18.7689 13 18.7689Z" fill="#34A853"/>
<path d="M26 11.2125C25.9187 10.8063 25.5938 10.5625 25.1875 10.5625H13C12.5125 10.5625 12.1875 10.8875 12.1875 11.375V15.4375C12.1875 15.925 12.5125 16.25 13 16.25H17.3062C16.575 17.3875 15.5187 18.1187 14.4625 18.525L19.9062 23.9688C23.5625 21.6938 26 17.6312 26 13C26 12.7562 26 12.5938 26 12.4313C26.0813 12.1063 26.0813 11.7 26 11.2125Z" fill="#4285F4"/>
<path d="M7.23125 13C7.23125 12.5125 7.3125 12.025 7.39375 11.5375L2.03125 6.09375C0.73125 8.125 0 10.4813 0 13C0 15.5188 0.73125 17.875 2.03125 19.9062L7.475 14.4625C7.3125 13.975 7.23125 13.4875 7.23125 13Z" fill="#FBBC05"/>
<path d="M23.1562 4.875C22.2625 3.7375 21.125 2.7625 19.9062 1.95C17.875 0.73125 15.5188 0 13 0C8.36875 0 4.30625 2.4375 2.03125 6.09375L7.475 11.5375C8.125 9.1 10.4 7.3125 13 7.3125C13.4875 7.3125 13.975 7.39375 14.4625 7.55625C15.1937 7.8 15.8438 8.20625 16.575 8.775C16.8187 9.01875 17.1438 9.01875 17.4688 8.85625L22.9125 6.175C23.1562 6.09375 23.3188 5.85 23.3188 5.60625C23.4 5.3625 23.3188 5.11875 23.1562 4.875Z" fill="#EA4335"/>
</g>
<defs>
<clipPath id="clip0_667_614">
<rect width="26" height="26" fill="white"/>
</clipPath>
</defs>
</svg>
