<svg width="141" height="24" viewBox="0 0 141 24" fill="none" xmlns="http://www.w3.org/2000/svg">
<path d="M1 6.27273L5.21255 8.37588C6.75569 9.1463 8.62912 8.45999 9.30939 6.87504L11.0652 2.78435C12.1801 0.186668 15.9406 0.431685 16.709 3.15208L20.5835 16.8687C21.2468 19.2167 24.2863 19.8331 25.8118 17.929L31.4503 10.8914C32.5361 9.53611 34.5422 9.38304 35.8211 10.5578L48.7802 22.4625C50.0416 23.6213 52.0155 23.4905 53.113 22.1754L55.7805 18.9792C56.9002 17.6375 59.0285 17.8847 59.8109 19.4472V19.4472C60.7717 21.3661 63.5679 21.1833 64.2708 19.1557L67.5889 9.58413C68.1568 7.94607 70.1545 7.33434 71.5422 8.37357V8.37357C72.9398 9.42022 74.952 8.79135 75.5049 7.13513L76.3246 4.67966C77.2518 1.90232 81.2009 1.96222 82.0434 4.7664L82.731 7.05493C83.1919 8.58897 84.7766 9.49035 86.3307 9.1024L86.7558 8.99628C88.1688 8.64357 89.6309 9.35656 90.2231 10.687L91.6216 13.8289C91.8814 14.4125 92.3207 14.898 92.8756 15.2146L94.459 16.1181C95.8568 16.9156 97.6349 16.4682 98.4887 15.1041L101.118 10.904C102.374 8.89766 105.35 9.06788 106.368 11.2044L108.982 16.6849C109.942 18.6983 112.686 18.9968 114.057 17.2371L114.539 16.618C115.395 15.5183 116.909 15.1752 118.156 15.7978V15.7978C119.904 16.6708 122.001 15.6179 122.345 13.6941L124.291 2.81104C124.668 0.703743 127.293 -0.0764428 128.808 1.43616V1.43616C129.586 2.21357 130.787 2.41872 131.771 1.92726V1.92726C133.146 1.24109 134.811 1.91189 135.326 3.3592L140 16.5" stroke="#5ED5A8" stroke-linecap="round"/>
</svg>
