<svg width="52" height="51" viewBox="0 0 52 51" fill="none" xmlns="http://www.w3.org/2000/svg">
<g filter="url(#filter0_d_217_9477)">
<path d="M22.02 14.6201H20.98C19.39 14.6201 18.75 15.2201 18.75 16.7401V28.6201H24.25V16.7401C24.24 15.2201 23.6 14.6201 22.02 14.6201Z" fill="#777777"/>
<path d="M30.52 19.6201H29.48C27.89 19.6201 27.25 20.2301 27.25 21.7401V28.6201H32.75V21.7401C32.75 20.2301 32.1 19.6201 30.52 19.6201Z" fill="#5ED5A8"/>
<path d="M16.75 27.8799H35.25C35.66 27.8799 36 28.2199 36 28.6299C36 29.0399 35.66 29.3799 35.25 29.3799H16.75C16.34 29.3799 16 29.0399 16 28.6199C16 28.1999 16.34 27.8799 16.75 27.8799Z" fill="#777777"/>
</g>
<defs>
<filter id="filter0_d_217_9477" x="0" y="3.62012" width="52" height="46.7598" filterUnits="userSpaceOnUse" color-interpolation-filters="sRGB">
<feFlood flood-opacity="0" result="BackgroundImageFix"/>
<feColorMatrix in="SourceAlpha" type="matrix" values="0 0 0 0 0 0 0 0 0 0 0 0 0 0 0 0 0 0 127 0" result="hardAlpha"/>
<feOffset dy="5"/>
<feGaussianBlur stdDeviation="8"/>
<feComposite in2="hardAlpha" operator="out"/>
<feColorMatrix type="matrix" values="0 0 0 0 0.368627 0 0 0 0 0.835294 0 0 0 0 0.658824 0 0 0 0.25 0"/>
<feBlend mode="normal" in2="BackgroundImageFix" result="effect1_dropShadow_217_9477"/>
<feBlend mode="normal" in="SourceGraphic" in2="effect1_dropShadow_217_9477" result="shape"/>
</filter>
</defs>
</svg>
