<svg width="52" height="53" viewBox="0 0 52 53" fill="none" xmlns="http://www.w3.org/2000/svg">
<g filter="url(#filter0_d_217_9496)">
<path d="M30 18H22V26H30V18Z" fill="#5ED5A8"/>
<path d="M16 29C16 30.65 17.35 32 19 32C20.65 32 22 30.65 22 29V26H19C17.35 26 16 27.35 16 29Z" fill="#5ED5A8"/>
<path d="M19 12C17.35 12 16 13.35 16 15C16 16.65 17.35 18 19 18H22V15C22 13.35 20.65 12 19 12Z" fill="#777777"/>
<path d="M36 15C36 13.35 34.65 12 33 12C31.35 12 30 13.35 30 15V18H33C34.65 18 36 16.65 36 15Z" fill="#5ED5A8"/>
<path d="M33 26H30V29C30 30.65 31.35 32 33 32C34.65 32 36 30.65 36 29C36 27.35 34.65 26 33 26Z" fill="#777777"/>
</g>
<defs>
<filter id="filter0_d_217_9496" x="0" y="1" width="52" height="52" filterUnits="userSpaceOnUse" color-interpolation-filters="sRGB">
<feFlood flood-opacity="0" result="BackgroundImageFix"/>
<feColorMatrix in="SourceAlpha" type="matrix" values="0 0 0 0 0 0 0 0 0 0 0 0 0 0 0 0 0 0 127 0" result="hardAlpha"/>
<feOffset dy="5"/>
<feGaussianBlur stdDeviation="8"/>
<feComposite in2="hardAlpha" operator="out"/>
<feColorMatrix type="matrix" values="0 0 0 0 0.368627 0 0 0 0 0.835294 0 0 0 0 0.658824 0 0 0 0.25 0"/>
<feBlend mode="normal" in2="BackgroundImageFix" result="effect1_dropShadow_217_9496"/>
<feBlend mode="normal" in="SourceGraphic" in2="effect1_dropShadow_217_9496" result="shape"/>
</filter>
</defs>
</svg>
