<svg width="54" height="53" viewBox="0 0 54 53" fill="none" xmlns="http://www.w3.org/2000/svg">
<g filter="url(#filter0_d_640_1299)">
<path d="M35.83 18.01L29.28 12.77C28 11.75 26 11.74 24.73 12.76L18.18 18.01C17.24 18.76 16.67 20.26 16.87 21.44L18.13 28.98C18.42 30.67 19.99 32 21.7 32H32.3C33.99 32 35.59 30.64 35.88 28.97L37.14 21.43C37.32 20.26 36.75 18.76 35.83 18.01ZM27.75 28C27.75 28.41 27.41 28.75 27 28.75C26.59 28.75 26.25 28.41 26.25 28V25C26.25 24.59 26.59 24.25 27 24.25C27.41 24.25 27.75 24.59 27.75 25V28Z" fill="#5ED5A8"/>
</g>
<defs>
<filter id="filter0_d_640_1299" x="0.830078" y="1" width="52.3438" height="52" filterUnits="userSpaceOnUse" color-interpolation-filters="sRGB">
<feFlood flood-opacity="0" result="BackgroundImageFix"/>
<feColorMatrix in="SourceAlpha" type="matrix" values="0 0 0 0 0 0 0 0 0 0 0 0 0 0 0 0 0 0 127 0" result="hardAlpha"/>
<feOffset dy="5"/>
<feGaussianBlur stdDeviation="8"/>
<feComposite in2="hardAlpha" operator="out"/>
<feColorMatrix type="matrix" values="0 0 0 0 0.368627 0 0 0 0 0.835294 0 0 0 0 0.658824 0 0 0 0.25 0"/>
<feBlend mode="normal" in2="BackgroundImageFix" result="effect1_dropShadow_640_1299"/>
<feBlend mode="normal" in="SourceGraphic" in2="effect1_dropShadow_640_1299" result="shape"/>
</filter>
</defs>
</svg>
