<svg width="44" height="45" viewBox="0 0 44 45" fill="none" xmlns="http://www.w3.org/2000/svg">
<path d="M26 18.75C25.59 18.75 25.25 18.41 25.25 18V14.5C25.25 13.42 24.58 12.75 23.5 12.75H20.5C19.42 12.75 18.75 13.42 18.75 14.5V18C18.75 18.41 18.41 18.75 18 18.75C17.59 18.75 17.25 18.41 17.25 18V14.5C17.25 12.59 18.59 11.25 20.5 11.25H23.5C25.41 11.25 26.75 12.59 26.75 14.5V18C26.75 18.41 26.41 18.75 26 18.75Z" fill="#777777"/>
<path d="M18.0008 27.78C17.5908 27.78 17.2508 27.44 17.2508 27.03C17.2508 26.61 17.5908 26.28 18.0008 26.28H29.7608C30.0608 26.28 30.2908 26.02 30.2608 25.72L29.5808 20.03C29.3408 18.09 29.0008 16.5 25.6008 16.5H18.4008C15.0008 16.5 14.6608 18.09 14.4308 20.03L13.5308 27.53C13.2408 29.99 14.0008 32 17.5108 32H26.4908C29.6508 32 30.5808 30.37 30.5308 28.25C30.5208 27.98 30.3008 27.78 30.0308 27.78H18.0008Z" fill="#777777"/>
</svg>
