<svg width="44" height="44" viewBox="0 0 44 44" fill="none" xmlns="http://www.w3.org/2000/svg">
<path d="M20.25 20.03C20.25 20.57 20.4 20.65 20.74 20.77L21.25 20.95V19.25H20.95C20.57 19.25 20.25 19.6 20.25 20.03Z" fill="#777777"/>
<path d="M22.75 24.7498H23.05C23.44 24.7498 23.75 24.3998 23.75 23.9698C23.75 23.4298 23.6 23.3498 23.26 23.2298L22.75 23.0498V24.7498Z" fill="#777777"/>
<path d="M29.58 15.48L27.53 17.53C27.38 17.68 27.19 17.75 27 17.75C26.81 17.75 26.62 17.68 26.47 17.53C26.18 17.24 26.18 16.76 26.47 16.47L28.52 14.42C26.76 12.92 24.49 12 22 12C16.48 12 12 16.48 12 22C12 27.52 16.48 32 22 32C27.52 32 32 27.52 32 22C32 19.51 31.08 17.24 29.58 15.48ZM23.75 21.82C24.39 22.05 25.25 22.51 25.25 23.98C25.25 25.23 24.26 26.26 23.05 26.26H22.75V26.51C22.75 26.92 22.41 27.26 22 27.26C21.59 27.26 21.25 26.92 21.25 26.51V26.26H21.17C19.84 26.26 18.75 25.14 18.75 23.76C18.75 23.34 19.09 23 19.5 23C19.91 23 20.25 23.34 20.25 23.75C20.25 24.3 20.66 24.75 21.17 24.75H21.25V22.53L20.25 22.18C19.61 21.95 18.75 21.49 18.75 20.02C18.75 18.77 19.74 17.74 20.95 17.74H21.25V17.5C21.25 17.09 21.59 16.75 22 16.75C22.41 16.75 22.75 17.09 22.75 17.5V17.75H22.83C24.16 17.75 25.25 18.87 25.25 20.25C25.25 20.66 24.91 21 24.5 21C24.09 21 23.75 20.66 23.75 20.25C23.75 19.7 23.34 19.25 22.83 19.25H22.75V21.47L23.75 21.82Z" fill="#777777"/>
<path d="M32.69 11.71C32.61 11.53 32.47 11.38 32.28 11.3C32.19 11.27 32.1 11.25 32 11.25H28C27.59 11.25 27.25 11.59 27.25 12C27.25 12.41 27.59 12.75 28 12.75H30.19L28.52 14.42C28.9 14.75 29.25 15.1 29.58 15.48L31.25 13.81V16C31.25 16.41 31.59 16.75 32 16.75C32.41 16.75 32.75 16.41 32.75 16V12C32.75 11.9 32.73 11.81 32.69 11.71Z" fill="#777777"/>
</svg>
