<svg width="44" height="44" viewBox="0 0 44 44" fill="none" xmlns="http://www.w3.org/2000/svg">
<path d="M12 17V31C12 31.83 12.94 32.3 13.6 31.8L15.31 30.52C15.71 30.22 16.27 30.26 16.63 30.62L18.29 32.29C18.68 32.68 19.32 32.68 19.71 32.29L21.39 30.61C21.74 30.26 22.3 30.22 22.69 30.52L24.4 31.8C25.06 32.29 26 31.82 26 31V14C26 12.9 26.9 12 28 12H17H16C13 12 12 13.79 12 16V17Z" fill="#777777"/>
<path d="M28.01 12V13.5C28.67 13.5 29.3 13.77 29.76 14.22C30.24 14.71 30.5 15.34 30.5 16V18.42C30.5 19.16 30.17 19.5 29.42 19.5H27.5V14.01C27.5 13.73 27.73 13.5 28.01 13.5V12ZM28.01 12C26.9 12 26 12.9 26 14.01V21H29.42C31 21 32 20 32 18.42V16C32 14.9 31.55 13.9 30.83 13.17C30.1 12.45 29.11 12.01 28.01 12C28.01 12 28.02 12 28.01 12Z" fill="#777777"/>
</svg>
