<svg width="44" height="44" viewBox="0 0 44 44" fill="none" xmlns="http://www.w3.org/2000/svg">
<path d="M24.85 13.9498V17.7498H23.35V13.9498C23.35 13.6798 23.11 13.5498 22.95 13.5498C22.9 13.5498 22.85 13.5598 22.8 13.5798L14.87 16.5698C14.34 16.7698 14 17.2698 14 17.8398V18.5098C13.09 19.1898 12.5 20.2798 12.5 21.5098V17.8398C12.5 16.6498 13.23 15.5898 14.34 15.1698L22.28 12.1698C22.5 12.0898 22.73 12.0498 22.95 12.0498C23.95 12.0498 24.85 12.8598 24.85 13.9498Z" fill="#777777"/>
<path d="M31.5007 24.5V25.5C31.5007 25.77 31.2907 25.99 31.0107 26H29.5507C29.0207 26 28.5407 25.61 28.5007 25.09C28.4707 24.78 28.5907 24.49 28.7907 24.29C28.9707 24.1 29.2207 24 29.4907 24H31.0007C31.2907 24.01 31.5007 24.23 31.5007 24.5Z" fill="#777777"/>
<path d="M29.48 22.95H30.5C31.05 22.95 31.5 22.5 31.5 21.95V21.51C31.5 19.44 29.81 17.75 27.74 17.75H16.26C15.41 17.75 14.63 18.03 14 18.51C13.09 19.19 12.5 20.28 12.5 21.51V28.24C12.5 30.31 14.19 32 16.26 32H27.74C29.81 32 31.5 30.31 31.5 28.24V28.05C31.5 27.5 31.05 27.05 30.5 27.05H29.63C28.67 27.05 27.75 26.46 27.5 25.53C27.29 24.77 27.54 24.04 28.04 23.55C28.41 23.17 28.92 22.95 29.48 22.95ZM24 22.75H17C16.59 22.75 16.25 22.41 16.25 22C16.25 21.59 16.59 21.25 17 21.25H24C24.41 21.25 24.75 21.59 24.75 22C24.75 22.41 24.41 22.75 24 22.75Z" fill="#777777"/>
</svg>
