<svg width="44" height="44" viewBox="0 0 44 44" fill="none" xmlns="http://www.w3.org/2000/svg">
<path d="M22.0208 30.3502C19.4408 30.3502 16.8708 29.9402 14.4208 29.1202C13.5108 28.8202 12.8208 28.1702 12.5208 27.3502C12.2208 26.5302 12.3208 25.5902 12.8108 24.7702L14.0808 22.6502C14.3608 22.1802 14.6108 21.3002 14.6108 20.7502V18.6502C14.6108 14.5602 17.9308 11.2402 22.0208 11.2402C26.1108 11.2402 29.4308 14.5602 29.4308 18.6502V20.7502C29.4308 21.2902 29.6808 22.1802 29.9608 22.6502L31.2308 24.7702C31.7008 25.5502 31.7808 26.4802 31.4708 27.3302C31.1608 28.1802 30.4808 28.8302 29.6208 29.1202C27.1708 29.9502 24.6008 30.3502 22.0208 30.3502ZM22.0208 12.7502C18.7608 12.7502 16.1108 15.4002 16.1108 18.6602V20.7602C16.1108 21.5702 15.7908 22.7402 15.3708 23.4302L14.1008 25.5602C13.8408 25.9902 13.7808 26.4502 13.9308 26.8502C14.0808 27.2502 14.4208 27.5502 14.9008 27.7102C19.5008 29.2402 24.5608 29.2402 29.1608 27.7102C29.5908 27.5702 29.9208 27.2502 30.0708 26.8302C30.2308 26.4102 30.1808 25.9502 29.9508 25.5602L28.6808 23.4402C28.2608 22.7502 27.9408 21.5802 27.9408 20.7702V18.6702C27.9308 15.4002 25.2808 12.7502 22.0208 12.7502Z" fill="#5ED5A8"/>
<path opacity="0.1" d="M26 19C26 17.9391 25.5786 16.9217 24.8284 16.1716C24.0783 15.4214 23.0609 15 22 15C20.9391 15 19.9217 15.4214 19.1716 16.1716C18.4214 16.9217 18 17.9391 18 19L22 19H26Z" fill="#5ED5A8"/>
<path d="M21.75 29.75C20.76 29.75 19.8 29.35 19.1 28.65C18.4 27.95 18 26.99 18 26H19.5C19.5 26.59 19.74 27.17 20.16 27.59C20.58 28.01 21.16 28.25 21.75 28.25C22.99 28.25 24 27.24 24 26H25.5C25.5 28.07 23.82 29.75 21.75 29.75Z" fill="#5ED5A8"/>
</svg>
