<svg width="22" height="22" viewBox="0 0 22 22" fill="none" xmlns="http://www.w3.org/2000/svg">
<path d="M0 4.125V0.859375C0 0.384705 0.384705 0 0.859375 0H4.125C4.59967 0 4.98438 0.384705 4.98438 0.859375C4.98438 1.33405 4.59967 1.71875 4.125 1.71875H1.71875V4.125C1.71875 4.59967 1.33405 4.98438 0.859375 4.98438C0.384705 4.98438 0 4.59967 0 4.125ZM21.1406 0H17.875C17.4003 0 17.0156 0.384705 17.0156 0.859375C17.0156 1.33405 17.4003 1.71875 17.875 1.71875H20.2812V4.125C20.2812 4.59967 20.666 4.98438 21.1406 4.98438C21.6153 4.98438 22 4.59967 22 4.125V0.859375C22 0.384705 21.6153 0 21.1406 0ZM4.125 20.2812H1.71875V17.875C1.71875 17.4003 1.33405 17.0156 0.859375 17.0156C0.384705 17.0156 0 17.4003 0 17.875V21.1406C0 21.6153 0.384705 22 0.859375 22H4.125C4.59967 22 4.98438 21.6153 4.98438 21.1406C4.98438 20.666 4.59967 20.2812 4.125 20.2812ZM21.1406 17.0156C20.666 17.0156 20.2812 17.4003 20.2812 17.875V20.2812H17.875C17.4003 20.2812 17.0156 20.666 17.0156 21.1406C17.0156 21.6153 17.4003 22 17.875 22H21.1406C21.6153 22 22 21.6153 22 21.1406V17.875C22 17.4003 21.6153 17.0156 21.1406 17.0156ZM10.248 4.23242V9.38867C10.248 9.86334 9.86334 10.248 9.38867 10.248H4.23242C3.75775 10.248 3.37305 9.86334 3.37305 9.38867V4.23242C3.37305 3.75775 3.75775 3.37305 4.23242 3.37305H9.38867C9.86334 3.37305 10.248 3.75775 10.248 4.23242ZM8.5293 5.0918H5.0918V8.5293H8.5293V5.0918ZM18.1973 10.248H13.041C12.5663 10.248 12.1816 9.86334 12.1816 9.38867V4.23242C12.1816 3.75775 12.5663 3.37305 13.041 3.37305H18.1973C18.6719 3.37305 19.0566 3.75775 19.0566 4.23242V9.38867C19.0566 9.86334 18.6719 10.248 18.1973 10.248ZM17.3379 5.0918H13.9004V8.5293H17.3379V5.0918ZM10.248 13.041V18.1973C10.248 18.6719 9.86334 19.0566 9.38867 19.0566H4.23242C3.75775 19.0566 3.37305 18.6719 3.37305 18.1973V13.041C3.37305 12.5663 3.75775 12.1816 4.23242 12.1816H9.38867C9.86334 12.1816 10.248 12.5663 10.248 13.041ZM8.5293 13.9004H5.0918V17.3379H8.5293V13.9004ZM17.0908 17.9502H14.1475C13.6728 17.9502 13.2881 17.5655 13.2881 17.0908V14.1475C13.2881 13.6728 13.6728 13.2881 14.1475 13.2881H17.0908C17.5655 13.2881 17.9502 13.6728 17.9502 14.1475V17.0908C17.9502 17.5655 17.5655 17.9502 17.0908 17.9502ZM16.2314 15.0068H15.0068V16.2314H16.2314V15.0068Z" fill="black"/>
</svg>
