<svg width="44" height="44" viewBox="0 0 44 44" fill="none" xmlns="http://www.w3.org/2000/svg">
<path d="M32 19.75C31.59 19.75 31.25 19.41 31.25 19V17C31.25 14.42 29.58 12.75 27 12.75H17C14.42 12.75 12.75 14.42 12.75 17V19C12.75 19.41 12.41 19.75 12 19.75C11.59 19.75 11.25 19.41 11.25 19V17C11.25 13.56 13.56 11.25 17 11.25H27C30.44 11.25 32.75 13.56 32.75 17V19C32.75 19.41 32.41 19.75 32 19.75Z" fill="#5ED5A8"/>
<path d="M27 32.75H17C13.56 32.75 11.25 30.44 11.25 27V25C11.25 24.59 11.59 24.25 12 24.25C12.41 24.25 12.75 24.59 12.75 25V27C12.75 29.58 14.42 31.25 17 31.25H27C29.58 31.25 31.25 29.58 31.25 27V25C31.25 24.59 31.59 24.25 32 24.25C32.41 24.25 32.75 24.59 32.75 25V27C32.75 30.44 30.44 32.75 27 32.75Z" fill="#5ED5A8"/>
<path d="M32 22.75H12C11.59 22.75 11.25 22.41 11.25 22C11.25 21.59 11.59 21.25 12 21.25H32C32.41 21.25 32.75 21.59 32.75 22C32.75 22.41 32.41 22.75 32 22.75Z" fill="#5ED5A8"/>
<path opacity="0.1" d="M26.5 19H17.5C17.22 19 17 18.78 17 18.5V16.5C17 15.68 17.67 15 18.5 15H25.5C26.33 15 27 15.68 27 16.5V18.5C27 18.78 26.78 19 26.5 19Z" fill="#5ED5A8"/>
<path opacity="0.1" d="M26.5 25H17.5C17.22 25 17 25.22 17 25.5V27.5C17 28.32 17.67 29 18.5 29H25.5C26.33 29 27 28.32 27 27.5V25.5C27 25.22 26.78 25 26.5 25Z" fill="#5ED5A8"/>
</svg>
