<svg width="48" height="52" viewBox="0 0 48 52" fill="none" xmlns="http://www.w3.org/2000/svg">
<g filter="url(#filter0_d_604_2971)">
<path d="M24 11C21.38 11 19.25 13.13 19.25 15.75C19.25 18.32 21.26 20.4 23.88 20.49C23.96 20.48 24.04 20.48 24.1 20.49C24.12 20.49 24.13 20.49 24.15 20.49C24.16 20.49 24.16 20.49 24.17 20.49C26.73 20.4 28.74 18.32 28.75 15.75C28.75 13.13 26.62 11 24 11Z" fill="#777777"/>
<path fill-rule="evenodd" clip-rule="evenodd" d="M18.9309 23.1499C21.7409 21.2899 26.2909 21.2899 29.0809 23.1499C30.3409 23.9899 31.0309 25.1299 31.0409 26.3599C31.0409 27.5999 30.3409 28.7399 29.0809 29.5899C27.6809 30.5299 25.8409 30.9999 24.0009 30.9999C22.1609 30.9999 20.3209 30.5299 18.9209 29.5899C17.6609 28.7499 16.9609 27.6099 16.9609 26.3799C16.9609 25.1499 17.6609 23.9999 18.9309 23.1499ZM24.7509 25.6299H26.0009C26.4109 25.6299 26.7509 25.9699 26.7509 26.3799C26.7509 26.7899 26.4109 27.1299 26.0009 27.1299H24.7509V28.3799C24.7509 28.7899 24.4109 29.1299 24.0009 29.1299C23.5909 29.1299 23.2509 28.7899 23.2509 28.3799V27.1299H22.0009C21.5909 27.1299 21.2509 26.7899 21.2509 26.3799C21.2509 25.9699 21.5909 25.6299 22.0009 25.6299H23.2509V24.3799C23.2509 23.9699 23.5909 23.6299 24.0009 23.6299C24.4109 23.6299 24.7509 23.9699 24.7509 24.3799V25.6299Z" fill="#5ED5A8"/>
</g>
<defs>
<filter id="filter0_d_604_2971" x="0.960938" y="0" width="46.0801" height="52" filterUnits="userSpaceOnUse" color-interpolation-filters="sRGB">
<feFlood flood-opacity="0" result="BackgroundImageFix"/>
<feColorMatrix in="SourceAlpha" type="matrix" values="0 0 0 0 0 0 0 0 0 0 0 0 0 0 0 0 0 0 127 0" result="hardAlpha"/>
<feOffset dy="5"/>
<feGaussianBlur stdDeviation="8"/>
<feComposite in2="hardAlpha" operator="out"/>
<feColorMatrix type="matrix" values="0 0 0 0 0.368627 0 0 0 0 0.835294 0 0 0 0 0.658824 0 0 0 0.25 0"/>
<feBlend mode="normal" in2="BackgroundImageFix" result="effect1_dropShadow_604_2971"/>
<feBlend mode="normal" in="SourceGraphic" in2="effect1_dropShadow_604_2971" result="shape"/>
</filter>
</defs>
</svg>
