<svg width="52" height="53" viewBox="0 0 52 53" fill="none" xmlns="http://www.w3.org/2000/svg">
<g filter="url(#filter0_d_217_9491)">
<path d="M25.9392 12.2098L23.5292 17.8198H21.1192C20.7192 17.8198 20.3292 17.8498 19.9492 17.9298L20.9492 15.5298L20.9892 15.4398L21.0492 15.2798C21.0792 15.2098 21.0992 15.1498 21.1292 15.0998C22.2892 12.4098 23.5892 11.5698 25.9392 12.2098Z" fill="#777777"/>
<path d="M32.7291 18.0895L32.7091 18.0795C32.1091 17.9095 31.4991 17.8195 30.8791 17.8195H24.6191L26.8691 12.5895L26.8991 12.5195C27.0391 12.5695 27.1891 12.6395 27.3391 12.6895L29.5491 13.6195C30.7791 14.1295 31.6391 14.6595 32.1691 15.2995C32.2591 15.4195 32.3391 15.5295 32.4191 15.6595C32.5091 15.7995 32.5791 15.9395 32.6191 16.0895C32.6591 16.1795 32.6891 16.2595 32.7091 16.3495C32.8591 16.8595 32.8691 17.4395 32.7291 18.0895Z" fill="#777777"/>
<path d="M26.5195 27.6601H26.7695C27.0695 27.6601 27.3195 27.3901 27.3195 27.0601C27.3195 26.6401 27.1995 26.5801 26.9395 26.4801L26.5195 26.3301V27.6601Z" fill="#5ED5A8"/>
<path d="M32.2902 19.5203C31.8402 19.3903 31.3702 19.3203 30.8802 19.3203H21.1202C20.4402 19.3203 19.8002 19.4503 19.2002 19.7103C17.4602 20.4603 16.2402 22.1903 16.2402 24.2003V26.1503C16.2402 26.3903 16.2602 26.6203 16.2902 26.8603C16.5102 30.0403 18.2102 31.7403 21.3902 31.9503C21.6202 31.9803 21.8502 32.0003 22.1002 32.0003H29.9002C33.6002 32.0003 35.5502 30.2403 35.7402 26.7403C35.7502 26.5503 35.7602 26.3503 35.7602 26.1503V24.2003C35.7602 21.9903 34.2902 20.1303 32.2902 19.5203ZM27.2802 25.5003C27.7402 25.6603 28.3602 26.0003 28.3602 27.0603C28.3602 27.9703 27.6502 28.7003 26.7702 28.7003H26.5202V28.9203C26.5202 29.2103 26.2902 29.4403 26.0002 29.4403C25.7102 29.4403 25.4802 29.2103 25.4802 28.9203V28.7003H25.3902C24.4302 28.7003 23.6402 27.8903 23.6402 26.8903C23.6402 26.6003 23.8702 26.3703 24.1602 26.3703C24.4502 26.3703 24.6802 26.6003 24.6802 26.8903C24.6802 27.3103 25.0002 27.6603 25.3902 27.6603H25.4802V25.9703L24.7202 25.7003C24.2602 25.5403 23.6402 25.2003 23.6402 24.1403C23.6402 23.2303 24.3502 22.5003 25.2302 22.5003H25.4802V22.2803C25.4802 21.9903 25.7102 21.7603 26.0002 21.7603C26.2902 21.7603 26.5202 21.9903 26.5202 22.2803V22.5003H26.6102C27.5702 22.5003 28.3602 23.3103 28.3602 24.3103C28.3602 24.6003 28.1302 24.8303 27.8402 24.8303C27.5502 24.8303 27.3202 24.6003 27.3202 24.3103C27.3202 23.8903 27.0002 23.5403 26.6102 23.5403H26.5202V25.2303L27.2802 25.5003Z" fill="#5ED5A8"/>
<path d="M24.6797 24.14C24.6797 24.56 24.7997 24.62 25.0597 24.72L25.4797 24.87V23.54H25.2297C24.9197 23.54 24.6797 23.81 24.6797 24.14Z" fill="#5ED5A8"/>
</g>
<defs>
<filter id="filter0_d_217_9491" x="0.240234" y="1.00586" width="51.5195" height="51.9941" filterUnits="userSpaceOnUse" color-interpolation-filters="sRGB">
<feFlood flood-opacity="0" result="BackgroundImageFix"/>
<feColorMatrix in="SourceAlpha" type="matrix" values="0 0 0 0 0 0 0 0 0 0 0 0 0 0 0 0 0 0 127 0" result="hardAlpha"/>
<feOffset dy="5"/>
<feGaussianBlur stdDeviation="8"/>
<feComposite in2="hardAlpha" operator="out"/>
<feColorMatrix type="matrix" values="0 0 0 0 0.368627 0 0 0 0 0.835294 0 0 0 0 0.658824 0 0 0 0.25 0"/>
<feBlend mode="normal" in2="BackgroundImageFix" result="effect1_dropShadow_217_9491"/>
<feBlend mode="normal" in="SourceGraphic" in2="effect1_dropShadow_217_9491" result="shape"/>
</filter>
</defs>
</svg>
