<svg width="44" height="44" viewBox="0 0 44 44" fill="none" xmlns="http://www.w3.org/2000/svg">
<path d="M21 30.75C15.62 30.75 11.25 26.38 11.25 21C11.25 15.62 15.62 11.25 21 11.25C26.38 11.25 30.75 15.62 30.75 21C30.75 26.38 26.38 30.75 21 30.75ZM21 12.75C16.45 12.75 12.75 16.45 12.75 21C12.75 25.55 16.45 29.25 21 29.25C25.55 29.25 29.25 25.55 29.25 21C29.25 16.45 25.55 12.75 21 12.75Z" fill="#5ED5A8"/>
<path d="M30.1591 32.79C30.0791 32.79 29.9991 32.78 29.9291 32.77C29.4591 32.71 28.6091 32.39 28.1291 30.96C27.8791 30.21 27.9691 29.46 28.3791 28.89C28.7891 28.32 29.4791 28 30.2691 28C31.2891 28 32.0891 28.39 32.4491 29.08C32.8091 29.77 32.7091 30.65 32.1391 31.5C31.4291 32.57 30.6591 32.79 30.1591 32.79ZM29.5591 30.49C29.7291 31.01 29.9691 31.27 30.1291 31.29C30.2891 31.31 30.5891 31.12 30.8991 30.67C31.1891 30.24 31.2091 29.93 31.1391 29.79C31.0691 29.65 30.7891 29.5 30.2691 29.5C29.9591 29.5 29.7291 29.6 29.5991 29.77C29.4791 29.94 29.4591 30.2 29.5591 30.49Z" fill="#5ED5A8"/>
<path opacity="0.1" d="M27.0619 17.4997C26.525 16.5698 25.7814 15.7759 24.8887 15.1794C23.9959 14.5829 22.9779 14.1997 21.9134 14.0596C20.8488 13.9194 19.7663 14.026 18.7496 14.3712C17.7329 14.7163 16.8092 15.2907 16.0499 16.0499C15.2907 16.8092 14.7163 17.7329 14.3712 18.7496C14.026 19.7663 13.9194 20.8488 14.0596 21.9134C14.1997 22.9779 14.5829 23.9959 15.1794 24.8887C15.7759 25.7814 16.5698 26.525 17.4997 27.0619L20.9997 20.9997L27.0619 17.4997Z" fill="#5ED5A8"/>
</svg>
