<svg width="306" height="128" viewBox="0 0 306 128" fill="none" xmlns="http://www.w3.org/2000/svg">
<path d="M303 59V49" stroke="#5ED5A8" stroke-width="5" stroke-linecap="round"/>
<path d="M303 71L303 46" stroke="#5ED5A8" stroke-linecap="round"/>
<path d="M3 125L3 67" stroke="#5ED5A8" stroke-width="5" stroke-linecap="round"/>
<path d="M3 125L3 59" stroke="#5ED5A8" stroke-linecap="round"/>
<path d="M15 107L15 51" stroke="#5ED5A8" stroke-width="5" stroke-linecap="round"/>
<path d="M75 54V31" stroke="#5ED5A8" stroke-width="5" stroke-linecap="round"/>
<path d="M75 71L75 26" stroke="#5ED5A8" stroke-linecap="round"/>
<path d="M87 54L87 18" stroke="#5ED5A8" stroke-width="5" stroke-linecap="round"/>
<path d="M87 59L87 1" stroke="#5ED5A8" stroke-linecap="round"/>
<path d="M15 106L15 26" stroke="#5ED5A8" stroke-linecap="round"/>
<path d="M27 59L27 48" stroke="#DD4B4B" stroke-width="5" stroke-linecap="round"/>
<path d="M27 72L27 36" stroke="#DD4B4B" stroke-linecap="round"/>
<path d="M63 51L63 48" stroke="#DD4B4B" stroke-width="5" stroke-linecap="round"/>
<path d="M63 60L63 39" stroke="#DD4B4B" stroke-linecap="round"/>
<path d="M39 72L39 48" stroke="#DD4B4B" stroke-width="5" stroke-linecap="round"/>
<path d="M39 82L39 46" stroke="#DD4B4B" stroke-linecap="round"/>
<path d="M51 88L51 53" stroke="#DD4B4B" stroke-width="5" stroke-linecap="round"/>
<path d="M39 82L39 46" stroke="#DD4B4B" stroke-linecap="round"/>
<path d="M51 101L51 46" stroke="#DD4B4B" stroke-linecap="round"/>
<path d="M195 76L195 46" stroke="#DD4B4B" stroke-width="5" stroke-linecap="round"/>
<path d="M195 92L195 59" stroke="#DD4B4B" stroke-linecap="round"/>
<path d="M207 84L207 51" stroke="#5ED5A8" stroke-width="5" stroke-linecap="round"/>
<path d="M207 92L207 26" stroke="#5ED5A8" stroke-linecap="round"/>
<path d="M219 77L219 48" stroke="#5ED5A8" stroke-width="5" stroke-linecap="round"/>
<path d="M219 72L219 36" stroke="#5ED5A8" stroke-linecap="round"/>
<path d="M231 72L231 33" stroke="#5ED5A8" stroke-width="5" stroke-linecap="round"/>
<path d="M231 82L231 46" stroke="#5ED5A8" stroke-linecap="round"/>
<path d="M243 69L243 22" stroke="#5ED5A8" stroke-width="5" stroke-linecap="round"/>
<path d="M255 34L255 7" stroke="#5ED5A8" stroke-width="5" stroke-linecap="round"/>
<path d="M231 51L231 15" stroke="#5ED5A8" stroke-linecap="round"/>
<path d="M243 65L243 10" stroke="#5ED5A8" stroke-linecap="round"/>
<path d="M255 65L255 10" stroke="#5ED5A8" stroke-linecap="round"/>
<path d="M99 29L99 18" stroke="#DD4B4B" stroke-width="5" stroke-linecap="round"/>
<path d="M99 42L99 6" stroke="#DD4B4B" stroke-linecap="round"/>
<path d="M111 42L111 18" stroke="#DD4B4B" stroke-width="5" stroke-linecap="round"/>
<path d="M111 52L111 16" stroke="#DD4B4B" stroke-linecap="round"/>
<path d="M123 58L123 23" stroke="#DD4B4B" stroke-width="5" stroke-linecap="round"/>
<path d="M111 52L111 16" stroke="#DD4B4B" stroke-linecap="round"/>
<path d="M123 71L123 16" stroke="#DD4B4B" stroke-linecap="round"/>
<path d="M267 18L267 7" stroke="#DD4B4B" stroke-width="5" stroke-linecap="round"/>
<path d="M267 42L267 6" stroke="#DD4B4B" stroke-linecap="round"/>
<path d="M279 42L279 18" stroke="#DD4B4B" stroke-width="5" stroke-linecap="round"/>
<path d="M279 52L279 16" stroke="#DD4B4B" stroke-linecap="round"/>
<path d="M279 52L279 16" stroke="#DD4B4B" stroke-linecap="round"/>
<path d="M135 64V41" stroke="#5ED5A8" stroke-width="5" stroke-linecap="round"/>
<path d="M135 81L135 36" stroke="#5ED5A8" stroke-linecap="round"/>
<path d="M147 64L147 28" stroke="#5ED5A8" stroke-width="5" stroke-linecap="round"/>
<path d="M147 69L147 11" stroke="#5ED5A8" stroke-linecap="round"/>
<path d="M159 39L159 28" stroke="#DD4B4B" stroke-width="5" stroke-linecap="round"/>
<path d="M159 52L159 16" stroke="#DD4B4B" stroke-linecap="round"/>
<path d="M171 52L171 28" stroke="#DD4B4B" stroke-width="5" stroke-linecap="round"/>
<path d="M171 62L171 26" stroke="#DD4B4B" stroke-linecap="round"/>
<path d="M183 68L183 33" stroke="#DD4B4B" stroke-width="5" stroke-linecap="round"/>
<path d="M171 62L171 26" stroke="#DD4B4B" stroke-linecap="round"/>
<path d="M183 81L183 26" stroke="#DD4B4B" stroke-linecap="round"/>
<path d="M291 58L291 23" stroke="#DD4B4B" stroke-width="5" stroke-linecap="round"/>
<path d="M291 71L291 16" stroke="#DD4B4B" stroke-linecap="round"/>
</svg>
