<svg width="40" height="40" viewBox="0 0 40 40" fill="none" xmlns="http://www.w3.org/2000/svg">
<path fill-rule="evenodd" clip-rule="evenodd" d="M5.66592 20.8876C8.28788 15.6217 13.7238 11.9998 19.9997 11.9998C28.8295 11.9998 35.9994 19.1697 35.9994 27.9995C35.9994 29.1035 35.1034 29.9995 33.9994 29.9995C32.8954 29.9995 31.9995 29.1035 31.9995 27.9995C31.9995 21.3776 26.6216 15.9997 19.9997 15.9997C13.3778 15.9997 7.99987 21.3776 7.99987 27.9995C7.99987 34.6214 13.3778 39.9993 19.9997 39.9993C21.1036 39.9993 21.9996 39.1033 21.9996 37.9994C21.9996 36.8954 21.1036 35.9994 19.9997 35.9994C15.5837 35.9994 11.9998 32.4155 11.9998 27.9995C11.9998 23.5836 15.5837 19.9997 19.9997 19.9997C24.4156 19.9997 27.9995 23.5836 27.9995 27.9995C27.9995 31.3115 30.6875 33.9994 33.9994 33.9994C37.3114 33.9994 39.9993 31.3115 39.9993 27.9995C39.9993 16.9617 31.0375 7.99987 19.9997 7.99987C12.1558 7.99987 5.35997 12.5238 2.08602 19.1037C1.59403 20.0917 1.99598 21.2937 2.98396 21.7856C3.97194 22.2776 5.17393 21.8756 5.66592 20.8876ZM6.69593 36.8854C4.99396 34.3434 3.99993 31.2875 3.99993 27.9995C3.99993 26.8955 3.10395 25.9996 1.99997 25.9996C0.895985 25.9996 0 26.8955 0 27.9995C0 32.1095 1.244 35.9334 3.37397 39.1134C3.98796 40.0293 5.22986 40.2753 6.14785 39.6613C7.06383 39.0473 7.30992 37.8034 6.69593 36.8854ZM5.2139 9.09985C9.28983 5.90591 14.4238 3.99993 19.9997 3.99993C25.5676 3.99993 30.6934 5.8999 34.7674 9.08585C35.6373 9.76583 36.8954 9.61183 37.5754 8.74384C38.2554 7.87386 38.1014 6.61589 37.2314 5.9359C32.4795 2.21797 26.4956 0 19.9997 0C13.4938 0 7.50185 2.22396 2.74593 5.9519C1.87794 6.63388 1.72598 7.89188 2.40597 8.75986C3.08795 9.62785 4.34592 9.78184 5.2139 9.09985Z" fill="#5ED5A8"/>
</svg>
